<?xml version="1.0" standalone="no"?>
<!DOCTYPE svg PUBLIC "-//W3C//DTD SVG 1.1//EN" "http://www.w3.org/Graphics/SVG/1.1/DTD/svg11.dtd" >
<svg>
<metadata>
Created by FontForge 20110222 at Mon Mar  7 12:43:20 2011
 By www-data
Copyright 2009 by Daniel Johnson.  Released under the terms of the Open Font License. Kayah Li glyphs are released under the GPL version 3.
</metadata>
<defs>
<font id="JuraLight" horiz-adv-x="614" >
  <font-face 
    font-family="Jura"
    font-weight="300"
    font-stretch="normal"
    units-per-em="1024"
    panose-1="2 0 3 3 0 0 0 0 0 0"
    ascent="819"
    descent="-205"
    x-height="461"
    cap-height="643"
    bbox="-414 -205 904 820"
    underline-thickness="51"
    underline-position="-102"
    unicode-range="U+0020-A91A"
  />
    <missing-glyph />
    <glyph glyph-name="space" unicode=" " horiz-adv-x="409" 
 />
    <glyph glyph-name="exclam" unicode="!" horiz-adv-x="210" 
d="M152 29q0 -14 -15.5 -25t-31.5 -11q-15 0 -30.5 11t-15.5 25t15.5 25t30.5 11q16 0 31.5 -11t15.5 -25zM84 616q0 28 21 28t21 -28v-419q0 -28 -22 -28q-20 0 -20 28v419z" />
    <glyph glyph-name="quotedbl" unicode="&#x22;" horiz-adv-x="272" 
d="M208 466q0 -28 -22 -28q-20 0 -20 28v149q0 28 21 28t21 -28v-149zM106 466q0 -28 -21 -28q-20 0 -20 28v149q0 28 21 28q20 0 20 -28v-149z" />
    <glyph glyph-name="numbersign" unicode="#" horiz-adv-x="504" 
d="M268 625q21 0 21 -20q0 -6 -3 -15l-59 -159h134l64 173q7 21 22 21q9 0 15 -6t6 -15q0 -6 -3 -14l-58 -159h70q28 0 28 -21t-28 -21h-86l-51 -142h106q28 0 28 -22q0 -20 -28 -20h-121l-64 -173q-7 -21 -22 -21q-21 0 -21 21q0 6 3 14l59 159h-135l-63 -173
q-7 -21 -22 -21q-20 0 -20 20q0 6 3 15l58 159h-73q-28 0 -28 21t28 21h89l51 142h-110q-27 0 -27 22q0 20 27 20h125l64 173q7 21 21 21zM212 389l-51 -142h134l51 142h-134z" />
    <glyph glyph-name="dollar" unicode="$" 
d="M180 91q-31 0 -51.5 9t-29 26t-11.5 33t-3 39q0 30 21 30t21 -28q0 -36 13 -51.5t47 -15.5h104v173h-82q-124 0 -124 128q0 58 28.5 88t95.5 30h82v63q0 28 21 28t21 -28v-63h101q31 0 51.5 -9t29 -26t11.5 -33t3 -39q0 -30 -21 -30t-21 28q0 36 -13 51.5t-47 15.5h-94
v-162h75q123 0 123 -134q0 -123 -123 -123h-75v-71q0 -27 -22 -27q-20 0 -20 27v71h-111zM333 306v-173h92q64 0 64 81q0 42 -18 67t-46 25h-92zM291 348v162h-100q-64 0 -64 -76q0 -41 18 -63.5t46 -22.5h100z" />
    <glyph glyph-name="percent" unicode="%" horiz-adv-x="482" 
d="M318 183q0 -14 10.5 -24.5t24.5 -10.5q15 0 25 10.5t10 24.5q0 15 -10 25t-25 10q-14 0 -24.5 -10t-10.5 -25zM276 183q0 31 23 54t54 23t54 -23t23 -54t-23 -54t-54 -23t-54 23t-23 54zM95 471q0 -14 10.5 -24.5t24.5 -10.5t24.5 10.5t10.5 24.5t-10.5 24.5t-24.5 10.5
t-24.5 -10.5t-10.5 -24.5zM52 471q0 32 23 54.5t55 22.5q31 0 53.5 -22.5t22.5 -54.5t-22.5 -54.5t-53.5 -22.5q-32 0 -55 22.5t-23 54.5zM422 528q7 0 13.5 -6t6.5 -14t-11 -21l-350 -350q-11 -11 -21 -11q-7 0 -13.5 6t-6.5 14q0 10 11 21l350 350q13 11 21 11z" />
    <glyph glyph-name="ampersand" unicode="&#x26;" horiz-adv-x="586" 
d="M422 528q0 -8 -6 -14t-15 -6q-10 0 -21 15t-20.5 33.5t-30 33.5t-46.5 15q-49 0 -89 -35.5t-40 -93.5q0 -37 39 -82l240 -277q34 47 34 110q0 31 22 31q19 0 19 -31q0 -80 -46 -143l48 -55q6 -7 6 -18q0 -18 -17 -18q-13 0 -26 14l-39 45q-66 -61 -145 -61q-33 0 -67 10
t-65.5 31t-51.5 60t-20 90q0 49 21.5 97t64.5 77l-14 17q-47 54 -47 103q0 74 55.5 122.5t119.5 48.5q39 0 73 -28.5t49 -55t15 -35.5zM407 84l-208 241q-37 -21 -54.5 -61t-17.5 -82q0 -77 50 -113t112 -36q64 0 118 51z" />
    <glyph glyph-name="quotesingle" unicode="'" horiz-adv-x="171" 
d="M106 466q0 -28 -21 -28q-20 0 -20 28v149q0 28 21 28q20 0 20 -28v-149z" />
    <glyph glyph-name="parenleft" unicode="(" horiz-adv-x="269" 
d="M205 636q-54 0 -66 -20.5t-12 -112.5v-370q0 -92 12 -112.5t66 -20.5v-42q-45 0 -69 12t-37.5 50.5t-13.5 112.5v370q0 74 13.5 112.5t37.5 50.5t69 12v-42z" />
    <glyph glyph-name="parenright" unicode=")" horiz-adv-x="269" 
d="M65 0q53 0 65 20.5t12 112.5v370q0 92 -12 112.5t-65 20.5v42q67 0 93 -33.5t26 -141.5v-370q0 -108 -26 -141.5t-93 -33.5v42z" />
    <glyph glyph-name="asterisk" unicode="*" horiz-adv-x="386" 
d="M322 429q0 -5 -5 -12.5t-15 -7.5q-6 0 -18 5l-70 41v-81q0 -28 -21 -28t-21 28v81l-70 -41q-12 -5 -18 -5q-8 0 -13.5 6.5t-5.5 13.5q0 12 16 22l70 41l-70 39q-16 10 -16 22q0 5 4.5 12.5t14.5 7.5q6 0 18 -5l70 -41v81q0 28 22 28q20 0 20 -28v-81l70 41q12 5 18 5
q8 0 14 -6.5t6 -13.5q0 -11 -17 -22l-69 -39l69 -41q17 -11 17 -22z" />
    <glyph glyph-name="plus" unicode="+" horiz-adv-x="562" 
d="M302 20q0 -27 -21 -27t-21 27v189h-169q-26 0 -26 22q0 21 26 21h169v188q0 28 22 28q20 0 20 -28v-188h167q29 0 29 -23q0 -20 -29 -20h-167v-189z" />
    <glyph glyph-name="comma" unicode="," horiz-adv-x="185" 
d="M101 61q10 0 23 -5t13 -15q0 -9 -4 -17l-42 -83q-9 -21 -20 -21q-17 0 -17 20q0 6 3 15l24 86q6 20 20 20z" />
    <glyph glyph-name="hyphen" unicode="-" horiz-adv-x="429" 
d="M91 209q-26 0 -26 22q0 21 26 21h245q29 0 29 -23q0 -20 -29 -20h-245z" />
    <glyph glyph-name="period" unicode="." horiz-adv-x="221" 
d="M65 29q0 14 15 25t31 11q15 0 30.5 -11t15.5 -25t-15.5 -25t-30.5 -11q-16 0 -31 11t-15 25z" />
    <glyph glyph-name="slash" unicode="/" horiz-adv-x="330" 
d="M275 645q22 0 22 -19q0 -7 -3 -16l-218 -598q-6 -20 -21 -20q-21 0 -21 19q0 5 3 16l218 598q6 20 20 20z" />
    <glyph glyph-name="zero" unicode="0" 
d="M127 497v-359q0 -37 35 -66.5t85 -29.5h120q50 0 85 29.5t35 66.5v359q0 37 -35 66.5t-85 29.5h-120q-50 0 -85 -29.5t-35 -66.5zM529 154q0 -68 -49 -111t-121 -43h-104q-72 0 -121 43t-49 111v328q0 68 49 111t121 43h104q72 0 121 -43t49 -111v-328z" />
    <glyph glyph-name="one" unicode="1" horiz-adv-x="294" 
d="M132 616l-34 -33q-12 -13 -25 -13q-19 0 -19 18q0 11 12 22l62 63q12 12 24 12q4 0 8.5 -1.5t9 -7t4.5 -14.5v-642q0 -27 -21 -27t-21 27v596z" />
    <glyph glyph-name="two" unicode="2" 
d="M529 460q0 -49 -41.5 -89t-100.5 -71t-117.5 -63.5t-100 -82.5t-41.5 -112h371q30 0 30 -22q0 -20 -30 -20h-413v44q0 51 22 94t57.5 71.5t78 53.5t85.5 46t78.5 42.5t57.5 49t22 59.5q0 86 -36 110t-129 24h-135q-34 0 -47 -15t-13 -50q0 -30 -22 -30q-20 0 -20 30
q0 58 22 82.5t73 24.5h142q51 0 85.5 -6.5t64 -24.5t43.5 -54t14 -91z" />
    <glyph glyph-name="three" unicode="3" 
d="M347 594h-80q-45 0 -92.5 -17.5t-47.5 -49.5q0 -28 -21 -28t-21 30q0 42 47 74.5t128 32.5h77q104 0 148 -41t44 -144q0 -35 -48.5 -76.5t-81.5 -48.5q32 -6 81 -55t49 -86q0 -103 -44 -144t-148 -41h-77q-81 0 -128 32.5t-47 73.5q0 31 21 31t21 -28q0 -32 47.5 -49.5
t92.5 -17.5h80q80 0 110.5 32.5t30.5 91.5q0 50 -65.5 94t-120.5 44q-32 0 -32 22q0 21 32 21q57 0 121.5 37.5t64.5 85.5q0 59 -30.5 91.5t-110.5 32.5z" />
    <glyph glyph-name="four" unicode="4" 
d="M504 175h-61v-155q0 -27 -21 -27t-21 27v155h-318v56l303 405h57v-419h61q27 0 27 -21t-27 -21zM401 217v377l-281 -377h281z" />
    <glyph glyph-name="five" unicode="5" 
d="M299 -9q-62 0 -137 34.5t-75 64.5q0 8 6 14.5t13 6.5q3 0 30.5 -19.5t72 -39t90.5 -19.5q85 0 132.5 51.5t47.5 142.5q0 44 -16 78t-40.5 52t-49.5 26.5t-49 8.5h-231l9 120q6 69 30 96.5t79 27.5h241q27 0 27 -22q0 -20 -27 -20h-247q-28 0 -42 -15t-17 -50l-6 -95h175
q80 0 143 -56.5t63 -150.5q0 -110 -62.5 -173t-159.5 -63z" />
    <glyph glyph-name="six" unicode="6" 
d="M85 207q0 89 21.5 166t51.5 124.5t64 82.5t58.5 49.5t34.5 14.5q22 0 22 -18q0 -13 -18 -23q-53 -29 -101.5 -91t-72.5 -153q64 64 162 64q95 0 158.5 -61t63.5 -155t-63.5 -155t-158.5 -61t-158.5 61t-63.5 155zM127 207q0 -78 48.5 -126t131.5 -48t131.5 48t48.5 126
t-48.5 126t-131.5 48t-131.5 -48t-48.5 -126z" />
    <glyph glyph-name="seven" unicode="7" 
d="M282 -10q-22 0 -22 19q0 8 4 19l206 566h-273q-34 0 -47.5 -15t-13.5 -50q0 -30 -21 -30t-21 30q0 58 22 82.5t73 24.5h310q21 0 21 -18q0 -8 -4 -19l-213 -586q-8 -23 -21 -23z" />
    <glyph glyph-name="eight" unicode="8" 
d="M127 174q0 -36 7 -60.5t18.5 -38.5t34 -21.5t45.5 -9.5t61 -2h29q47 0 73.5 3.5t50 16.5t32.5 40t9 72t-9.5 72t-32.5 40.5t-49.5 17t-73.5 3.5h-29q-48 0 -74.5 -3.5t-49.5 -17t-32.5 -40.5t-9.5 -72zM529 174q0 -55 -14 -90.5t-43.5 -53.5t-64 -24t-85.5 -6h-29
q-106 0 -157 34.5t-51 139.5q0 115 70 152q-70 32 -70 146q0 45 10.5 75.5t26 48t45 26.5t56.5 11.5t70 2.5h29q43 0 70 -2.5t56 -11.5t44.5 -26.5t26 -48t10.5 -75.5q0 -115 -69 -146q69 -36 69 -152zM487 472q0 36 -7.5 59.5t-17.5 36t-35 18.5t-44 7t-61 1h-29
q-42 0 -61 -1t-44.5 -7t-35.5 -18.5t-17.5 -36t-7.5 -59.5q0 -30 4 -51.5t15 -35t21.5 -21t33.5 -11t40 -4t52 -0.5h29q35 0 51.5 0.5t40 4t33.5 11t21 21t15 35t4 51.5z" />
    <glyph glyph-name="nine" unicode="9" 
d="M85 471q0 53 25.5 89t67.5 51t75 20t69 5q207 0 207 -166q0 -107 -30.5 -200t-79.5 -154.5t-110 -96.5t-123 -35q-26 0 -26 22q0 21 26 21q35 0 76.5 18.5t84.5 55t78 100.5t51 144q-50 -38 -154 -38q-237 0 -237 164zM322 594q-195 0 -195 -123q0 -32 13 -55.5t31.5 -36
t47 -20t51 -9t52.5 -1.5q165 0 165 121q0 124 -165 124z" />
    <glyph glyph-name="colon" unicode=":" horiz-adv-x="221" 
d="M65 433q0 14 15 25t31 11q15 0 30.5 -11t15.5 -25t-15.5 -25t-30.5 -11q-16 0 -31 11t-15 25zM65 80q0 14 15 25t31 11q15 0 30.5 -11t15.5 -25t-15.5 -25t-30.5 -11q-16 0 -31 11t-15 25z" />
    <glyph glyph-name="semicolon" unicode=";" horiz-adv-x="221" 
d="M65 433q0 14 15 25t31 11q15 0 30.5 -11t15.5 -25t-15.5 -25t-30.5 -11q-16 0 -31 11t-15 25zM119 112q10 0 23 -5t13 -15q0 -9 -4 -17l-42 -83q-9 -21 -20 -21q-17 0 -17 20q0 6 3 15l24 86q6 20 20 20z" />
    <glyph glyph-name="less" unicode="&#x3c;" horiz-adv-x="546" 
d="M482 116q0 -6 -4.5 -14t-14.5 -8q-7 0 -19 6l-363 210q-16 11 -16 23t16 21l363 210q9 5 18 5q20 0 20 -18q0 -12 -16 -24l-339 -194l338 -196q17 -9 17 -21z" />
    <glyph glyph-name="equal" unicode="=" horiz-adv-x="429" 
d="M91 259q-26 0 -26 22q0 21 26 21h245q29 0 29 -23q0 -20 -29 -20h-245zM91 362q-26 0 -26 22q0 21 26 21h245q29 0 29 -23q0 -20 -29 -20h-245z" />
    <glyph glyph-name="greater" unicode="&#x3e;" horiz-adv-x="546" 
d="M65 548q0 6 4.5 13.5t14.5 7.5q8 0 18 -6l364 -210q16 -11 16 -22q0 -13 -16 -22l-364 -210q-8 -5 -17 -5q-20 0 -20 19q0 13 16 23l339 195l-338 195q-17 9 -17 22z" />
    <glyph glyph-name="question" unicode="?" 
d="M246 29q0 14 15 25t31 11q15 0 30.5 -11t15.5 -25t-15.5 -25t-30.5 -11q-16 0 -31 11t-15 25zM313 303v-109q0 -28 -21 -28t-21 28v140l153 42q28 8 46 37t18 71q0 44 -24.5 81t-77.5 37h-93q-48 0 -74.5 -3.5t-50 -16t-32.5 -39.5t-9 -72q0 -28 -21 -28q-22 0 -22 28
q0 55 14 90.5t44.5 53t64.5 23.5t86 6h76q86 0 123.5 -47t37.5 -113t-27.5 -101t-95.5 -54z" />
    <glyph glyph-name="at" unicode="@" 
d="M440 0h-141q-95 0 -151.5 64t-56.5 177v154q0 113 56.5 177t151.5 64h29q95 0 151.5 -64t56.5 -177q0 -31 -1 -51t-6 -44t-13.5 -38.5t-24.5 -30t-39 -23.5t-57 -13t-78 -5q-70 0 -95.5 32.5t-25.5 109.5q0 76 25.5 108.5t95.5 32.5q71 0 96.5 -32.5t25.5 -108.5
q0 -57 -13 -89q28 6 41 18t20 43t7 91q0 94 -42 146.5t-124 52.5h-29q-82 0 -124 -52.5t-42 -146.5v-154q0 -94 42 -146.5t124 -52.5h134q34 0 47.5 15t13.5 52q0 28 20 28q22 0 22 -31q0 -22 -3 -38t-12 -33t-29.5 -26t-51.5 -9zM317 232q52 0 66 20.5t14 79.5
q0 58 -14 78.5t-66 20.5q-51 0 -65 -20.5t-14 -78.5q0 -59 14 -79.5t65 -20.5z" />
    <glyph glyph-name="A" unicode="A" horiz-adv-x="578" 
d="M45 -16q-21 0 -21 20q0 7 3 14l225 618h46l225 -618q3 -7 3 -14q0 -20 -21 -20q-14 0 -22 20l-72 200h-272l-72 -200q-9 -20 -22 -20zM155 246h240l-121 329z" />
    <glyph glyph-name="B" unicode="B" 
d="M127 42h195q47 0 73.5 3.5t49.5 17t32.5 40.5t9.5 72v29q0 45 -9.5 72t-32.5 40.5t-49.5 17t-73.5 3.5h-195v-295zM85 31v574q0 31 19 31h176q103 0 155 -32t52 -118q0 -84 -55 -119q49 -15 73 -53t24 -110v-29q0 -105 -51 -140t-156 -35h-218q-19 0 -19 31zM280 379
q90 0 127.5 21t37.5 86q0 66 -37.5 87t-127.5 21h-153v-215h153z" />
    <glyph glyph-name="C" unicode="C" 
d="M434 0h-141q-106 0 -157 35t-51 140v286q0 105 51 140t157 35h141q31 0 51.5 -9t29 -26t11.5 -33t3 -39q0 -30 -21 -30t-21 28q0 36 -13 51.5t-47 15.5h-134q-48 0 -74.5 -3.5t-49.5 -17t-32.5 -40.5t-9.5 -72v-286q0 -45 9.5 -72t32.5 -40.5t49.5 -17t74.5 -3.5h134
q34 0 47 15t13 52q0 28 21 28t21 -31q0 -22 -3 -38t-11.5 -33t-29 -26t-51.5 -9z" />
    <glyph glyph-name="D" unicode="D" 
d="M529 461v-286q0 -105 -51 -140t-156 -35h-218q-19 0 -19 31v574q0 31 19 31h218q105 0 156 -35t51 -140zM487 175v286q0 45 -9.5 72t-32.5 40.5t-49.5 17t-73.5 3.5h-195v-552h195q47 0 73.5 3.5t49.5 17t32.5 40.5t9.5 72z" />
    <glyph glyph-name="E" unicode="E" 
d="M127 337v-295h373q29 0 29 -23q0 -19 -29 -19h-396q-19 0 -19 31v574q0 31 19 31h396q29 0 29 -23q0 -19 -29 -19h-373v-215h255q30 0 30 -23q0 -19 -30 -19h-255z" />
    <glyph glyph-name="F" unicode="F" 
d="M127 23q0 -30 -21 -30t-21 30v582q0 31 19 31h396q29 0 29 -23q0 -19 -29 -19h-373v-215h255q30 0 30 -23q0 -19 -30 -19h-255v-314z" />
    <glyph glyph-name="G" unicode="G" 
d="M487 251h-133q-30 0 -30 20q0 22 30 22h175v-195q0 -22 -3 -38t-11.5 -33t-29 -26t-51.5 -9h-141q-52 0 -86 6t-64 24t-44 54t-14 91v302q0 55 14 91t44 54t64 24t86 6h141q31 0 51.5 -9t29 -26t11.5 -33t3 -38q0 -31 -21 -31t-21 29q0 36 -13 51t-47 15h-134
q-48 0 -74.5 -3.5t-49.5 -17t-32.5 -40.5t-9.5 -72v-302q0 -45 9.5 -72t32.5 -40.5t49.5 -17t74.5 -3.5h134q34 0 47 15t13 51v151z" />
    <glyph glyph-name="H" unicode="H" 
d="M127 23q0 -30 -21 -30t-21 30v589q0 31 19 31q23 0 23 -31v-248h360v248q0 31 20 31q22 0 22 -31v-589q0 -30 -20 -30q-22 0 -22 30v299h-360v-299z" />
    <glyph glyph-name="I" unicode="I" horiz-adv-x="211" 
d="M127 20q0 -27 -22 -27q-20 0 -20 27v595q0 28 21 28t21 -28v-595z" />
    <glyph glyph-name="J" unicode="J" horiz-adv-x="586" 
d="M294 34q48 0 74.5 3.5t49.5 17t32.5 40.5t9.5 72v448q0 28 21 28t21 -28v-448q0 -55 -14 -91t-44 -54t-64 -24t-86 -6t-86.5 6t-64.5 24t-44 54t-14 91q0 28 23 28q20 0 20 -28q0 -86 36 -109.5t130 -23.5z" />
    <glyph glyph-name="K" unicode="K" horiz-adv-x="559" 
d="M495 13q0 -8 -7 -14t-14 -6q-11 0 -21 13l-268 319l-58 -70v-235q0 -27 -22 -27q-20 0 -20 27v595q0 28 21 28t21 -28v-294l260 309q10 13 21 13q7 0 13.5 -5.5t6.5 -13.5q0 -10 -9 -21l-206 -246l272 -324q10 -10 10 -20z" />
    <glyph glyph-name="L" unicode="L" horiz-adv-x="558" 
d="M104 0q-19 0 -19 31v584q0 28 21 28t21 -28v-573h318q28 0 28 -22q0 -20 -28 -20h-341z" />
    <glyph glyph-name="M" unicode="M" horiz-adv-x="634" 
d="M317 279q-7 0 -12 6l-178 272v-534q0 -30 -21 -30t-21 30v589q0 31 19 31q15 0 26 -17l187 -284l188 284q11 17 25 17q20 0 20 -31v-589q0 -30 -22 -30q-20 0 -20 30v534l-178 -272q-4 -6 -13 -6z" />
    <glyph glyph-name="N" unicode="N" 
d="M509 -7q-12 0 -16 7l-366 557v-534q0 -30 -21 -30t-21 30v589q0 31 19 31q15 0 26 -17l357 -542v528q0 31 20 31q22 0 22 -31v-589q0 -30 -20 -30z" />
    <glyph glyph-name="O" unicode="O" 
d="M307 -9q-97 0 -159.5 63t-62.5 173v182q0 110 62.5 173t159.5 63t159.5 -63t62.5 -173v-182q0 -110 -62.5 -173t-159.5 -63zM307 603q-84 0 -132 -51.5t-48 -142.5v-182q0 -91 48 -142.5t132 -51.5t132 51.5t48 142.5v182q0 91 -48 142.5t-132 51.5z" />
    <glyph glyph-name="P" unicode="P" horiz-adv-x="550" 
d="M127 20q0 -27 -22 -27q-20 0 -20 27v585q0 31 19 31h176q103 0 155 -32t52 -118q0 -73 -43.5 -111t-121.5 -38h-195v-317zM280 379q90 0 127.5 21t37.5 86q0 66 -37.5 87t-127.5 21h-153v-215h153z" />
    <glyph glyph-name="Q" unicode="Q" 
d="M307 603q-84 0 -132 -51.5t-48 -142.5v-182q0 -91 48 -142.5t132 -51.5q69 0 112 34l-58 57q-11 11 -11 20q0 7 6 14t14 7q10 0 21 -11l58 -59q38 50 38 132v182q0 91 -48 142.5t-132 51.5zM307 -9q-97 0 -159.5 63t-62.5 173v182q0 110 62.5 173t159.5 63t159.5 -63
t62.5 -173v-182q0 -99 -51 -160l38 -38q10 -10 10 -21q0 -7 -5.5 -13.5t-13.5 -6.5t-21 11l-37 38q-60 -46 -142 -46z" />
    <glyph glyph-name="R" unicode="R" horiz-adv-x="567" 
d="M280 379q90 0 127.5 21t37.5 86q0 66 -37.5 87t-127.5 21h-153v-215h153zM127 20q0 -27 -22 -27q-20 0 -20 27v585q0 31 19 31h176q103 0 155 -32t52 -118q0 -63 -32 -100t-91 -46q33 -26 65.5 -104.5t49 -141t16.5 -74.5q0 -27 -22 -27q-9 0 -14.5 8t-5.5 19
q0 14 -14 71t-48 135t-76 111h-188v-317z" />
    <glyph glyph-name="S" unicode="S" horiz-adv-x="586" 
d="M127 484q0 -42 18.5 -71.5t45.5 -36.5l217 -52q123 -31 123 -170q0 -66 -37.5 -114t-123.5 -48h-76q-52 0 -86.5 6t-64.5 24t-44 54t-14 91q0 28 23 28q20 0 20 -28q0 -86 36 -109.5t130 -23.5h93q53 0 77.5 38t24.5 82q0 51 -20.5 84t-43.5 38l-216 53q-68 16 -96 52
t-28 103q0 66 38 113t124 47h76q52 0 86 -6t64 -23.5t44 -53t14 -90.5q0 -28 -22 -28q-21 0 -21 28q0 45 -9 72t-32.5 39.5t-49.5 16t-74 3.5h-94q-53 0 -77.5 -37.5t-24.5 -80.5z" />
    <glyph glyph-name="T" unicode="T" horiz-adv-x="515" 
d="M433 636q28 0 28 -22q0 -20 -28 -20h-154v-574q0 -27 -22 -27q-20 0 -20 27v574h-155q-28 0 -28 21t28 21h351z" />
    <glyph glyph-name="U" unicode="U" 
d="M487 615q0 28 22 28q20 0 20 -28v-388q0 -110 -62.5 -173t-159.5 -63t-159.5 63t-62.5 173v388q0 28 21 28t21 -28v-388q0 -91 48 -142.5t132 -51.5t132 51.5t48 142.5v388z" />
    <glyph glyph-name="V" unicode="V" horiz-adv-x="578" 
d="M24 632q0 7 4.5 12t9 6.5t7.5 1.5q13 0 22 -20l208 -572l208 572q8 20 22 20q3 0 7.5 -1.5t9 -6.5t4.5 -12q0 -6 -3 -15l-225 -617h-46l-225 617q-3 9 -3 15z" />
    <glyph glyph-name="W" unicode="W" horiz-adv-x="967" 
d="M483 652q18 0 25 -22l177 -570l176 572q8 20 20 20q3 0 8 -1.5t10 -6.5t5 -12q0 -6 -3 -15l-192 -617h-50l-176 565l-175 -565h-49l-188 617q-1 3 -4.5 8t-3.5 7q0 7 5.5 12t10.5 6.5t8 1.5q13 0 19 -20l178 -572l176 570q7 22 23 22z" />
    <glyph glyph-name="X" unicode="X" horiz-adv-x="636" 
d="M531 643q7 0 14 -6t7 -14q0 -11 -7 -19l-201 -287l201 -285q7 -11 7 -20q0 -8 -6.5 -13.5t-14.5 -5.5q-10 0 -21 14l-192 274l-191 -274q-11 -14 -22 -14q-7 0 -13.5 5.5t-6.5 13.5q0 9 7 20l201 285l-201 287q-7 8 -7 19q0 8 6.5 14t13.5 6q11 0 22 -16l191 -273
l192 273q11 16 21 16z" />
    <glyph glyph-name="Y" unicode="Y" horiz-adv-x="595" 
d="M278 310l-206 294q-7 10 -7 19q0 8 6.5 14t13.5 6q10 0 21 -16l192 -273l191 273q13 16 22 16q7 0 13.5 -6t6.5 -14q0 -9 -7 -19l-205 -294v-290q0 -27 -21 -27q-20 0 -20 27v290z" />
    <glyph glyph-name="Z" unicode="Z" 
d="M86 0v44l396 550h-366q-31 0 -31 21t31 21h413v-46l-394 -548h364q30 0 30 -22q0 -20 -30 -20h-413z" />
    <glyph glyph-name="bracketleft" unicode="[" horiz-adv-x="269" 
d="M205 636h-78v-636h78v-42h-120v720h120v-42z" />
    <glyph glyph-name="backslash" unicode="\" horiz-adv-x="330" 
d="M55 645q15 0 21 -20l218 -598q3 -10 3 -16q0 -19 -22 -19q-14 0 -20 20l-218 598q-3 9 -3 16q0 19 21 19z" />
    <glyph glyph-name="bracketright" unicode="]" horiz-adv-x="269" 
d="M85 0h78v636h-78v42h120v-720h-120v42z" />
    <glyph glyph-name="asciicircum" unicode="^" horiz-adv-x="443" 
d="M223 590h-3l-93 -207q-9 -18 -24 -18q-18 0 -18 18q0 2 2 10l108 243h54l107 -243q2 -4 2 -10q0 -18 -18 -18q-15 0 -24 18z" />
    <glyph glyph-name="underscore" unicode="_" horiz-adv-x="475" 
d="M28 -42q-28 0 -28 22q0 20 28 20h419q28 0 28 -22q0 -20 -28 -20h-419z" />
    <glyph glyph-name="grave" unicode="`" horiz-adv-x="212" 
d="M34 657q0 9 6.5 15t13.5 6q9 0 21 -13l96 -115q8 -9 8 -20q0 -8 -6.5 -14t-13.5 -6q-9 0 -21 13l-96 115q-8 9 -8 19z" />
    <glyph glyph-name="a" unicode="a" 
d="M293 248q-48 0 -74.5 -3.5t-49.5 -17t-32.5 -40.5t-9.5 -72q0 -28 18.5 -50.5t41.5 -22.5h93q79 0 122 48t43 138v20h-152zM293 290h152v64q0 35 -13 50t-47 15h-141q-117 0 -117 -65q0 -30 -22 -30q-20 0 -20 30q0 54 42.5 80.5t109.5 26.5h155q55 0 75 -27t20 -97v-314
q0 -30 -21 -30t-21 30v49q-54 -72 -165 -72h-93q-45 0 -73.5 32.5t-28.5 87.5q0 42 10 73t27 49.5t44 29t57 14.5t70 4z" />
    <glyph glyph-name="b" unicode="b" 
d="M127 389q56 72 166 72h29q105 0 156 -35t51 -140v-111q0 -105 -51 -140t-156 -35h-29q-110 0 -166 72v-49q0 -30 -21 -30t-21 30v589q0 31 19 31q23 0 23 -31v-223zM293 419q-80 0 -123 -48.5t-43 -138.5v-4q0 -90 43 -138t123 -48h29q47 0 73.5 3.5t49.5 17t32.5 40.5
t9.5 72v111q0 45 -9.5 72t-32.5 40.5t-49.5 17t-73.5 3.5h-29z" />
    <glyph glyph-name="c" unicode="c" 
d="M434 0h-141q-106 0 -157 35t-51 140v111q0 105 51 140t157 35h141q31 0 51.5 -9t29 -26.5t11.5 -33t3 -38.5q0 -30 -21 -30t-21 28q0 36 -13 51.5t-47 15.5h-134q-48 0 -74.5 -3.5t-49.5 -17t-32.5 -40.5t-9.5 -72v-111q0 -45 9.5 -72t32.5 -40.5t49.5 -17t74.5 -3.5h134
q34 0 47 15t13 52q0 28 21 28t21 -31q0 -22 -3 -38t-11.5 -33t-29 -26t-51.5 -9z" />
    <glyph glyph-name="d" unicode="d" 
d="M127 175q0 -45 9.5 -72t32.5 -40.5t49.5 -17t74.5 -3.5h29q79 0 122 48t43 138v191h-194q-48 0 -74.5 -3.5t-49.5 -17t-32.5 -40.5t-9.5 -72v-111zM85 286q0 105 51 140t157 35h194v151q0 31 23 31q19 0 19 -31v-589q0 -30 -21 -30t-21 30v49q-54 -72 -165 -72h-29
q-106 0 -157 35t-51 140v111z" />
    <glyph glyph-name="e" unicode="e" 
d="M529 286v-36h-402v-75q0 -45 9.5 -72t32.5 -40.5t49.5 -17t74.5 -3.5h134q34 0 47 15t13 52q0 28 21 28t21 -31q0 -22 -3 -38t-11.5 -33t-29 -26t-51.5 -9h-141q-106 0 -157 35t-51 140v111q0 105 51 140t157 35h29q105 0 156 -35t51 -140zM322 419h-29q-92 0 -129 -23
t-37 -104h360q0 81 -37 104t-128 23z" />
    <glyph glyph-name="f" unicode="f" horiz-adv-x="372" 
d="M293 594q-48 0 -74.5 -3.5t-49.5 -17t-32.5 -40.5t-9.5 -72h143q31 0 31 -23q0 -19 -31 -19h-143v-395q0 -31 -23 -31q-19 0 -19 31v395q-31 0 -31 22q0 20 31 20q0 56 14 91.5t44 53.5t64 24t86 6q31 0 31 -23q0 -19 -31 -19z" />
    <glyph glyph-name="g" unicode="g" 
d="M85 286q0 105 51 140t157 35h29q111 0 165 -72v49q0 30 21 30t21 -30v-530q0 -64 -18 -88.5t-68 -24.5h-263q-31 0 -51.5 9t-29 26.5t-11.5 33t-3 38.5q0 30 21 30t21 -28q0 -36 13 -51.5t47 -15.5h249q31 0 41 11.5t10 43.5v117q-19 -9 -53 -9h-141q-106 0 -157 35
t-51 140v111zM127 175q0 -45 9.5 -72t32.5 -40.5t49.5 -17t74.5 -3.5h134q34 0 47 14.5t13 49.5v126q0 90 -43 138.5t-122 48.5h-29q-48 0 -74.5 -3.5t-49.5 -17t-32.5 -40.5t-9.5 -72v-111z" />
    <glyph glyph-name="h" unicode="h" 
d="M293 419q-80 0 -123 -48.5t-43 -138.5v-209q0 -30 -21 -30t-21 30v589q0 31 19 31q23 0 23 -31v-223q56 72 166 72h29q105 0 156 -35t51 -140v-263q0 -30 -20 -30q-22 0 -22 30v263q0 45 -9.5 72t-32.5 40.5t-49.5 17t-73.5 3.5h-29z" />
    <glyph glyph-name="i" unicode="i" horiz-adv-x="210" 
d="M127 20q0 -27 -22 -27q-20 0 -20 27v420q0 28 21 28t21 -28v-420zM60 601q0 14 15 25t31 11q15 0 30.5 -11t15.5 -25t-15.5 -25t-30.5 -11q-16 0 -31 11t-15 25z" />
    <glyph glyph-name="j" unicode="j" horiz-adv-x="208" 
d="M57 601q0 14 15.5 25t30.5 11q16 0 31 -11t15 -25t-15 -25t-31 -11q-15 0 -30.5 11t-15.5 25zM124 0q0 -56 -14 -92t-44 -53.5t-64 -23.5t-86 -6q-31 0 -31 22q0 20 31 20q48 0 74.5 3.5t49.5 17t32.5 40.5t9.5 72v437q0 31 22 31q20 0 20 -31v-437z" />
    <glyph glyph-name="k" unicode="k" horiz-adv-x="478" 
d="M432 14q0 -7 -5.5 -13.5t-13.5 -6.5q-10 0 -21 11l-231 232l-34 -34v-183q0 -27 -22 -27q-20 0 -20 27v595q0 28 21 28t21 -28v-353l192 193q13 11 21 11q7 0 13.5 -6t6.5 -15t-11 -20l-159 -159l232 -231q10 -10 10 -21z" />
    <glyph glyph-name="l" unicode="l" horiz-adv-x="256" 
d="M187 0h-7q-55 0 -75 27t-20 97v489q0 30 21 30t21 -30v-507q0 -35 13 -49.5t47 -14.5q30 0 30 -22q0 -20 -30 -20z" />
    <glyph glyph-name="m" unicode="m" horiz-adv-x="836" 
d="M262 419q-64 0 -99.5 -48.5t-35.5 -138.5v-209q0 -30 -21 -30t-21 30v414q0 31 19 31q23 0 23 -31v-48q30 39 59 55.5t76 16.5q67 0 108 -18t58 -69q47 87 146 87q89 0 133.5 -35t44.5 -140v-263q0 -30 -21 -30t-21 30v263q0 45 -7 72t-26 40.5t-41 17t-62 3.5
q-64 0 -99.5 -48.5t-35.5 -138.5v-209q0 -30 -20 -30q-22 0 -22 30v263q0 45 -7 72t-26 40.5t-40.5 17t-61.5 3.5z" />
    <glyph glyph-name="n" unicode="n" 
d="M293 419q-80 0 -123 -48.5t-43 -138.5v-209q0 -30 -21 -30t-21 30v414q0 31 19 31q23 0 23 -31v-48q56 72 166 72h29q105 0 156 -35t51 -140v-263q0 -30 -20 -30q-22 0 -22 30v263q0 45 -9.5 72t-32.5 40.5t-49.5 17t-73.5 3.5h-29z" />
    <glyph glyph-name="o" unicode="o" 
d="M322 0h-29q-106 0 -157 35t-51 140v111q0 105 51 140t157 35h29q105 0 156 -35t51 -140v-111q0 -105 -51 -140t-156 -35zM293 42h29q47 0 73.5 3.5t49.5 17t32.5 40.5t9.5 72v111q0 45 -9.5 72t-32.5 40.5t-49.5 17t-73.5 3.5h-29q-48 0 -74.5 -3.5t-49.5 -17
t-32.5 -40.5t-9.5 -72v-111q0 -45 9.5 -72t32.5 -40.5t49.5 -17t74.5 -3.5z" />
    <glyph glyph-name="p" unicode="p" 
d="M487 286q0 45 -9.5 72t-32.5 40.5t-49.5 17t-73.5 3.5h-29q-80 0 -123 -48.5t-43 -138.5v-190h195q47 0 73.5 3.5t49.5 17t32.5 40.5t9.5 72v111zM529 175q0 -105 -51 -140t-156 -35h-195v-152q0 -30 -23 -30q-19 0 -19 30v590q0 30 21 30t21 -30v-49q56 72 166 72h29
q105 0 156 -35t51 -140v-111z" />
    <glyph glyph-name="q" unicode="q" 
d="M127 286v-111q0 -45 9.5 -72t32.5 -40.5t49.5 -17t74.5 -3.5h194v190q0 90 -43 138.5t-122 48.5h-29q-48 0 -74.5 -3.5t-49.5 -17t-32.5 -40.5t-9.5 -72zM85 175v111q0 105 51 140t157 35h29q111 0 165 -72v49q0 30 21 30t21 -30v-590q0 -30 -19 -30q-23 0 -23 30v152
h-194q-106 0 -157 35t-51 140z" />
    <glyph glyph-name="r" unicode="r" horiz-adv-x="422" 
d="M293 419q-80 0 -123 -48.5t-43 -138.5v-209q0 -30 -21 -30t-21 30v414q0 31 19 31q23 0 23 -31v-48q56 72 166 72h46q30 0 30 -21t-30 -21h-46z" />
    <glyph glyph-name="s" unicode="s" 
d="M180 0q-31 0 -51.5 9t-29 26t-11.5 33t-3 38q0 31 21 31t21 -28q0 -37 13 -52t47 -15h238q64 0 64 81q0 42 -18 67t-46 25h-216q-124 0 -124 128q0 58 28.5 88t95.5 30h225q31 0 51.5 -9t29 -26.5t11.5 -33t3 -38.5q0 -30 -21 -30t-21 28q0 36 -13 51.5t-47 15.5h-236
q-64 0 -64 -76q0 -41 18 -63.5t46 -22.5h217q123 0 123 -134q0 -123 -123 -123h-228z" />
    <glyph glyph-name="t" unicode="t" horiz-adv-x="377" 
d="M122 175q0 -45 9.5 -72t32.5 -40.5t49.5 -17t74.5 -3.5q30 0 30 -19q0 -23 -30 -23q-51 0 -86 6.5t-64.5 24.5t-43.5 53.5t-14 90.5v244q-31 0 -31 22q0 20 31 20v109q0 31 19 31q23 0 23 -31v-109h143q31 0 31 -23q0 -19 -31 -19h-143v-244z" />
    <glyph glyph-name="u" unicode="u" 
d="M322 42q79 0 122 48t43 138v210q0 30 21 30t21 -30v-414q0 -31 -19 -31q-23 0 -23 31v48q-54 -72 -165 -72h-29q-106 0 -157 35t-51 140v263q0 30 20 30q22 0 22 -30v-263q0 -45 9.5 -72t32.5 -40.5t49.5 -17t74.5 -3.5h29z" />
    <glyph glyph-name="v" unicode="v" horiz-adv-x="573" 
d="M249 0l-181 439q-3 2 -3 10t5.5 13.5t13.5 5.5q15 0 23 -19l173 -403h7l180 404q9 18 23 18q19 0 19 -18q0 -8 -3 -11l-193 -439h-64z" />
    <glyph glyph-name="w" unicode="w" horiz-adv-x="818" 
d="M431 450l138 -404h6l145 404q6 18 17 18q8 0 17.5 -5.5t9.5 -12.5q0 -8 -3 -11l-155 -439h-71l-126 384l-136 -384h-71l-145 439q-3 2 -3 10q0 7 10 13t17 6q10 0 17 -19l139 -403h6l144 404q3 17 23 17q16 0 21 -17z" />
    <glyph glyph-name="x" unicode="x" horiz-adv-x="568" 
d="M490 8q0 -8 -6.5 -13.5t-13.5 -5.5q-9 0 -20 12l-165 197l-166 -197q-11 -12 -21 -12q-7 0 -13.5 5.5t-6.5 13.5t9 21l170 201l-170 203q-9 11 -9 20q0 8 6.5 13.5t13.5 5.5q10 0 21 -12l166 -197l165 197q11 12 20 12q7 0 13.5 -5.5t6.5 -13.5q0 -9 -9 -20l-170 -203
l170 -201q9 -13 9 -21z" />
    <glyph glyph-name="y" unicode="y" 
d="M529 -92q0 -64 -18 -88.5t-68 -24.5h-263q-31 0 -51.5 9t-29 26.5t-11.5 33t-3 38.5q0 30 21 30t21 -28q0 -36 13 -51.5t47 -15.5h249q31 0 41 11.5t10 43.5v180q-54 -72 -165 -72h-29q-106 0 -157 35t-51 140v261q0 32 21 32t21 -32v-261q0 -45 9.5 -72t32.5 -40.5
t49.5 -17t74.5 -3.5h29q79 0 122 48t43 138v208q0 32 22 32q20 0 20 -32v-528z" />
    <glyph glyph-name="z" unicode="z" horiz-adv-x="591" 
d="M135 42h269q28 0 42 12.5t16.5 27t2.5 42.5q0 31 21 31t21 -31q0 -70 -20.5 -97t-74.5 -27h-327v59l354 360h-252q-39 0 -49.5 -20.5t-10.5 -61.5q0 -31 -22 -31q-20 0 -20 31q0 70 20 97t75 27h306v-62z" />
    <glyph glyph-name="braceleft" unicode="{" horiz-adv-x="269" 
d="M79 317q9 -4 21.5 -11.5t33.5 -29t21 -40.5q0 -26 -14 -71t-14 -57q0 -69 13 -88.5t65 -19.5v-42q-66 0 -93 30.5t-27 119.5q0 18 14 63.5t14 64.5t-19 39.5t-38 30.5l-19 11q9 4 21.5 12t33.5 30t21 41t-14 64.5t-14 63.5q0 89 27 119.5t93 30.5v-42q-52 0 -65 -20
t-13 -88q0 -12 14 -57.5t14 -70.5q0 -19 -19 -40t-38 -32z" />
    <glyph glyph-name="bar" unicode="|" horiz-adv-x="211" 
d="M127 20q0 -27 -22 -27q-20 0 -20 27v595q0 28 21 28t21 -28v-595z" />
    <glyph glyph-name="braceright" unicode="}" horiz-adv-x="269" 
d="M163 318q-9 4 -21.5 12t-33.5 29.5t-21 40.5q0 25 14 70.5t14 57.5q0 68 -13 88t-65 20v42q66 0 93 -30.5t27 -119.5q0 -18 -14 -63.5t-14 -64.5t19 -39.5t38 -31.5l19 -11q-9 -4 -21.5 -12t-33.5 -29.5t-21 -40.5t14 -64.5t14 -63.5q0 -89 -27 -119.5t-93 -30.5v42
q52 0 65 19.5t13 88.5q0 12 -14 57t-14 71q0 19 19 39.5t38 31.5z" />
    <glyph glyph-name="asciitilde" unicode="~" horiz-adv-x="401" 
d="M248 231q4 -2 7 -2q4 0 11 5l31 28q11 8 19 8t14.5 -5t6.5 -13q0 -12 -12 -23l-47 -39q-7 -7 -16 -7q-4 0 -10 2l-98 36q-4 2 -8 2t-11 -5l-31 -28q-11 -8 -19 -8q-7 0 -13.5 5.5t-6.5 13.5q0 13 12 22l47 39q5 7 15 7q3 0 11 -2z" />
    <glyph glyph-name="exclamdown" unicode="&#xa1;" horiz-adv-x="210" 
d="M127 -138q0 -27 -22 -27q-20 0 -20 27v420q0 28 21 28t21 -28v-420zM59 450q0 14 15.5 25t30.5 11q16 0 31.5 -11t15.5 -25t-15.5 -25t-31.5 -11q-15 0 -30.5 11t-15.5 25z" />
    <glyph glyph-name="cent" unicode="&#xa2;" horiz-adv-x="535" 
d="M298 20q0 -27 -22 -27q-20 0 -20 27v104q-85 4 -127 41t-42 133v42q0 95 42.5 132.5t126.5 41.5v101q0 28 22 28q20 0 20 -28v-100h57q58 0 77 -29t19 -77q0 -31 -22 -31q-20 0 -20 29q0 36 -13.5 51t-47.5 15h-50v-308h48q34 0 47.5 15t13.5 51q0 29 20 29q22 0 22 -31
q0 -22 -3 -38t-12 -33t-29.5 -26t-51.5 -9h-55v-103zM256 166v306q-68 -2 -97.5 -29.5t-29.5 -102.5v-42q0 -77 28.5 -103.5t98.5 -28.5z" />
    <glyph glyph-name="sterling" unicode="&#xa3;" horiz-adv-x="537" 
d="M102 0q-17 0 -17 23q0 5 1 8l38 437q5 55 21 91.5t42.5 53.5t53 23.5t62.5 6.5q69 0 108.5 -29.5t39.5 -112.5q0 -28 -22 -28q-20 0 -20 28q0 34 -8 55.5t-25.5 30.5t-33.5 11.5t-43 2.5q-60 0 -93 -25t-40 -108l-9 -104h39q27 0 27 -22q0 -20 -27 -20h-43l-24 -280h296
q28 0 28 -22q0 -20 -28 -20h-323z" />
    <glyph glyph-name="currency" unicode="&#xa4;" horiz-adv-x="478" 
d="M130 230q0 -45 32 -77t78 -32q45 0 77 32t32 77q0 46 -32 78t-77 32q-46 0 -78 -32t-32 -78zM124 145q-28 37 -28 85q0 49 28 85l-48 49q-11 11 -11 20q0 7 6.5 13.5t13.5 6.5q9 0 20 -11l49 -48q37 29 86 29q48 0 85 -29l48 48q11 11 21 11q6 0 13 -5.5t7 -13.5
q0 -11 -12 -21l-48 -49q29 -35 29 -85q0 -48 -29 -85l48 -48q12 -10 12 -20q0 -7 -7 -14t-14 -7q-9 0 -20 12l-48 48q-37 -29 -85 -29q-49 0 -86 29l-49 -48q-11 -12 -21 -12q-6 0 -12.5 5.5t-6.5 14.5q0 10 11 21z" />
    <glyph glyph-name="yen" unicode="&#xa5;" horiz-adv-x="595" 
d="M278 310l-206 294q-7 10 -7 19q0 8 6.5 14t13.5 6q10 0 21 -16l192 -273l191 273q13 16 22 16q7 0 13.5 -6t6.5 -14q0 -9 -7 -19l-205 -294v-38h99q28 0 28 -22q0 -21 -28 -21h-99v-46h99q28 0 28 -22q0 -21 -28 -21h-99v-120q0 -27 -21 -27q-20 0 -20 27v120h-105
q-27 0 -27 23q0 20 27 20h105v46h-105q-27 0 -27 23q0 20 27 20h105v38z" />
    <glyph glyph-name="brokenbar" unicode="&#xa6;" horiz-adv-x="171" 
d="M65 616q0 27 21 27q20 0 20 -27v-215q0 -28 -22 -28q-19 0 -19 28v215zM65 237q0 26 21 26q20 0 20 -26v-215q0 -29 -22 -29q-19 0 -19 29v215z" />
    <glyph glyph-name="section" unicode="&#xa7;" 
d="M488 289q0 -77 -53 -94q53 -25 53 -96q0 -99 -100 -99h-184q-33 0 -50.5 14t-21.5 30.5t-4 41.5t22 25q8 0 14 -6t6 -17q0 -29 8.5 -37.5t36.5 -8.5h184q27 0 37 13.5t10 43.5q0 69 -43 75l-175 25q-100 14 -100 107q0 76 53 93q-53 25 -53 96q0 99 100 99h185
q25 0 41 -7t23 -21t9 -27t2 -31q0 -25 -21 -25t-21 23q0 29 -8.5 37.5t-36.5 8.5h-184q-27 0 -37 -14t-10 -43q0 -69 43 -75l175 -25q100 -14 100 -106zM170 306q0 -43 55 -64t135 -21q53 0 69.5 11t16.5 57q0 43 -55 63.5t-135 20.5q-53 0 -69.5 -11t-16.5 -56z" />
    <glyph glyph-name="dieresis" unicode="&#xa8;" horiz-adv-x="367" 
d="M211 630q0 14 15 25t31 11q15 0 30.5 -11t15.5 -25t-15.5 -25t-30.5 -11q-16 0 -31 11t-15 25zM65 630q0 14 15 25t31 11q15 0 30.5 -11t15.5 -25t-15.5 -25t-30.5 -11q-16 0 -31 11t-15 25z" />
    <glyph glyph-name="copyright" unicode="&#xa9;" 
d="M352 219h-50q-37 0 -63.5 20t-26.5 59v39q0 39 26.5 59t63.5 20h50q20 0 32 -10.5t15 -21t3 -22.5q0 -11 -15 -11q-14 0 -14 10q0 24 -23 24h-48q-26 0 -43 -12.5t-17 -35.5v-39q0 -23 17 -35.5t43 -12.5h48q23 0 23 23q0 11 14 11q15 0 15 -12q0 -11 -3 -21.5t-15 -21
t-32 -10.5zM322 87h-29q-106 0 -157 35t-51 140v111q0 105 51 140t157 35h29q105 0 156 -35t51 -140v-111q0 -105 -51 -140t-156 -35zM293 129h29q47 0 73.5 3.5t49.5 17t32.5 40.5t9.5 72v111q0 45 -9.5 72t-32.5 40.5t-49.5 17t-73.5 3.5h-29q-48 0 -74.5 -3.5t-49.5 -17
t-32.5 -40.5t-9.5 -72v-111q0 -45 9.5 -72t32.5 -40.5t49.5 -17t74.5 -3.5z" />
    <glyph glyph-name="ordfeminine" unicode="&#xaa;" horiz-adv-x="369" 
d="M86 164q-21 0 -21 18q0 17 21 17h196q23 0 23 -19q0 -16 -23 -16h-196zM249 354h-62q-37 0 -51.5 -8.5t-14.5 -36.5q0 -11 7 -20t17 -9h37q32 0 49.5 19t17.5 55zM187 385h62v19q0 14 -5.5 20t-19.5 6h-79q-13 0 -18.5 -6t-5.5 -20q0 -12 -16 -12q-15 0 -15 12
q0 24 14.5 40.5t37.5 16.5h85q53 0 53 -64v-139q0 -12 -16 -12q-15 0 -15 12v34q-8 -22 -22 -32.5t-45 -10.5h-37q-24 0 -39.5 19t-15.5 43q0 42 23.5 58t73.5 16z" />
    <glyph glyph-name="guillemotleft" unicode="&#xab;" horiz-adv-x="516" 
d="M285 178q13 -13 13 -28t-15 -15q-14 0 -20 6l-182 169q-16 14 -16 23q0 7 16 21l182 169q5 5 20 5t15 -14t-13 -28l-158 -153zM439 178q13 -13 13 -28t-15 -15q-14 0 -20 6l-182 169q-16 14 -16 23q0 7 16 21l182 169q5 5 20 5t15 -14t-13 -28l-158 -153z" />
    <glyph glyph-name="logicalnot" unicode="&#xac;" horiz-adv-x="482" 
d="M418 225v-84q0 -28 -23 -28q-20 0 -20 28v68h-284q-26 0 -26 22q0 21 26 21h298q29 0 29 -27z" />
    <glyph glyph-name="uni00AD" unicode="&#xad;" horiz-adv-x="429" 
d="M91 209q-26 0 -26 22q0 21 26 21h245q29 0 29 -23q0 -20 -29 -20h-245z" />
    <glyph glyph-name="registered" unicode="&#xae;" 
d="M306 334q40 0 56.5 5t16.5 22q0 18 -16.5 23.5t-56.5 5.5h-67v-56h67zM239 217q0 -9 -16 -9q-15 0 -15 9v194q0 10 14 10h84q104 0 104 -60q0 -21 -15 -37.5t-40 -19.5q15 -9 29.5 -30t21.5 -37.5t7 -19.5q0 -9 -16 -9q-5 0 -10 3t-5 6t-7.5 18t-24 36t-34.5 32h-77v-86z
M322 87h-29q-106 0 -157 35t-51 140v111q0 105 51 140t157 35h29q105 0 156 -35t51 -140v-111q0 -105 -51 -140t-156 -35zM293 129h29q47 0 73.5 3.5t49.5 17t32.5 40.5t9.5 72v111q0 45 -9.5 72t-32.5 40.5t-49.5 17t-73.5 3.5h-29q-48 0 -74.5 -3.5t-49.5 -17t-32.5 -40.5
t-9.5 -72v-111q0 -45 9.5 -72t32.5 -40.5t49.5 -17t74.5 -3.5z" />
    <glyph glyph-name="macron" unicode="&#xaf;" horiz-adv-x="429" 
d="M91 678q-26 0 -26 22q0 21 26 21h245q29 0 29 -23q0 -20 -29 -20h-245z" />
    <glyph glyph-name="degree" unicode="&#xb0;" horiz-adv-x="456" 
d="M126 535q0 -43 30 -73t72 -30q43 0 73 30t30 73q0 42 -30 72t-73 30q-42 0 -72 -30t-30 -72zM85 535q0 59 42.5 101t100.5 42q59 0 101.5 -42t42.5 -101t-42.5 -101.5t-101.5 -42.5t-101 42.5t-42 101.5z" />
    <glyph glyph-name="plusminus" unicode="&#xb1;" horiz-adv-x="562" 
d="M469 43q29 0 29 -23q0 -20 -29 -20h-378q-26 0 -26 23q0 20 26 20h378zM302 143q0 -27 -21 -27t-21 27v127h-169q-26 0 -26 23q0 20 26 20h169v127q0 28 22 28q20 0 20 -28v-127h167q29 0 29 -22q0 -21 -29 -21h-167v-127z" />
    <glyph glyph-name="twosuperior" unicode="&#xb2;" horiz-adv-x="311" 
d="M268 682q0 -28 -29.5 -52.5t-64.5 -40.5t-64.5 -41.5t-29.5 -53.5h166q8 0 15 -5.5t7 -11.5q0 -5 -7 -10.5t-15 -5.5h-203v22q0 35 20 62.5t48 44.5t56 31t48 29t20 32q0 35 -18 43.5t-69 8.5h-26q-43 0 -43 -31q0 -7 -5.5 -12.5t-12.5 -5.5q-6 0 -12 5.5t-6 12.5
q0 27 22.5 45.5t52.5 18.5h30q61 0 90.5 -16t29.5 -69z" />
    <glyph glyph-name="threesuperior" unicode="&#xb3;" horiz-adv-x="299" 
d="M156 734h-12q-23 0 -44 -8.5t-21 -24.5q0 -13 -19 -13q-17 0 -17 15q0 21 26.5 42.5t70.5 21.5h12q57 0 80.5 -19t23.5 -64q0 -24 -25 -43t-45 -23q21 -3 45.5 -25.5t24.5 -52.5q0 -42 -23.5 -60.5t-80.5 -18.5h-12q-44 0 -70.5 21.5t-26.5 42.5q0 15 17 15q19 0 19 -13
q0 -16 21 -24.5t44 -8.5h12q23 0 37.5 3.5t20.5 11t8 14.5t2 18q0 24 -30.5 42t-61.5 18q-18 0 -18 17q0 16 18 16q32 0 62 15t30 38q0 11 -2 18t-8 14.5t-20.5 11t-37.5 3.5z" />
    <glyph glyph-name="acute" unicode="&#xb4;" horiz-adv-x="212" 
d="M179 657q0 -10 -8 -19l-96 -115q-12 -13 -21 -13q-7 0 -13.5 6t-6.5 14q0 11 8 20l96 115q12 13 21 13q7 0 13.5 -6t6.5 -15z" />
    <glyph glyph-name="uni00B5" unicode="&#xb5;" horiz-adv-x="585" 
d="M293 42q79 0 122.5 48t43.5 138v210q0 30 20 30q22 0 22 -30v-414q0 -31 -20 -31q-22 0 -22 31v48q-56 -72 -166 -72t-166 72v-244q0 -31 -23 -31q-19 0 -19 31v610q0 30 20 30q22 0 22 -30v-210q0 -90 43 -138t123 -48z" />
    <glyph glyph-name="paragraph" unicode="&#xb6;" horiz-adv-x="488" 
d="M405 20q0 -27 -20 -27q-22 0 -22 27v574h-31v-574q0 -27 -20 -27q-22 0 -22 27v317h-42q-78 0 -121.5 38t-43.5 111q0 86 52 118t155 32h115v-616z" />
    <glyph glyph-name="periodcentered" unicode="&#xb7;" horiz-adv-x="221" 
d="M65 387q0 14 15 25t31 11q15 0 30.5 -11t15.5 -25t-15.5 -25t-30.5 -11q-16 0 -31 11t-15 25z" />
    <glyph glyph-name="cedilla" unicode="&#xb8;" horiz-adv-x="209" 
d="M104 12v-24q44 -14 57 -30.5t13 -46.5q0 -55 -70 -55q-62 0 -62 43q0 13 11 13q10 0 10 -13q0 -22 41 -22q49 0 49 34q0 13 -3 22t-19.5 20.5t-47.5 18.5v40h21z" />
    <glyph glyph-name="onesuperior" unicode="&#xb9;" horiz-adv-x="294" 
d="M128 715l-27 -27q-9 -10 -20 -10q-15 0 -15 14q0 9 10 18l49 50q10 10 19 10q18 0 18 -19v-271q0 -22 -17 -22t-17 22v235z" />
    <glyph glyph-name="ordmasculine" unicode="&#xba;" horiz-adv-x="369" 
d="M180 280h9q36 0 48 9t12 44v44q0 35 -12 44t-48 9h-9q-36 0 -47.5 -9t-11.5 -44v-44q0 -35 11.5 -44t47.5 -9zM189 249h-9q-51 0 -70.5 17t-19.5 67v44q0 49 19.5 66.5t70.5 17.5h9q52 0 71.5 -17.5t19.5 -66.5v-44q0 -50 -19.5 -67t-71.5 -17zM86 164q-21 0 -21 18
q0 17 21 17h196q23 0 23 -19q0 -16 -23 -16h-196z" />
    <glyph glyph-name="guillemotright" unicode="&#xbb;" horiz-adv-x="516" 
d="M78 178l158 155l-158 153q-13 14 -13 28t15 14q14 0 19 -5l183 -169q16 -14 16 -21q0 -9 -16 -23l-183 -169q-6 -6 -19 -6q-15 0 -15 15t13 28zM232 178l158 155l-158 153q-13 14 -13 28t15 14q14 0 19 -5l183 -169q16 -14 16 -21q0 -9 -16 -23l-183 -169q-6 -6 -19 -6
q-15 0 -15 15t13 28z" />
    <glyph glyph-name="onequarter" unicode="&#xbc;" horiz-adv-x="624" 
d="M540 100h-49v-82q0 -22 -17 -22t-17 22v82h-132v45l120 160h46v-172h49q21 0 21 -16q0 -17 -21 -17zM457 133v138l-103 -138h103zM504 534q15 0 15 -15q0 -8 -11 -21l-409 -409q-11 -11 -21 -11q-15 0 -15 15q0 10 11 21l409 409q13 11 21 11zM182 581l-27 -27
q-9 -10 -20 -10q-15 0 -15 14q0 9 10 18l49 50q10 10 19 10q18 0 18 -19v-271q0 -22 -17 -22t-17 22v235z" />
    <glyph glyph-name="onehalf" unicode="&#xbd;" horiz-adv-x="637" 
d="M504 534q15 0 15 -15q0 -8 -11 -21l-409 -409q-11 -11 -21 -11q-15 0 -15 15q0 10 11 21l409 409q13 11 21 11zM182 581l-27 -27q-9 -10 -20 -10q-15 0 -15 14q0 9 10 18l49 50q10 10 19 10q18 0 18 -19v-271q0 -22 -17 -22t-17 22v235zM572 220q0 -28 -29.5 -52.5
t-64.5 -40.5t-64.5 -41.5t-29.5 -53.5h166q8 0 15 -5.5t7 -11.5q0 -5 -7 -10.5t-15 -5.5h-203v22q0 35 20 62.5t48 44.5t56 31t48 29t20 32q0 35 -18 43.5t-69 8.5h-26q-43 0 -43 -31q0 -7 -5.5 -12.5t-12.5 -5.5q-6 0 -12 5.5t-6 12.5q0 27 22.5 45.5t52.5 18.5h30
q61 0 90.5 -16t29.5 -69z" />
    <glyph glyph-name="threequarters" unicode="&#xbe;" horiz-adv-x="624" 
d="M540 100h-49v-82q0 -22 -17 -22t-17 22v82h-132v45l120 160h46v-172h49q21 0 21 -16q0 -17 -21 -17zM457 133v138l-103 -138h103zM513 534q15 0 15 -15q0 -8 -11 -21l-409 -409q-11 -11 -21 -11q-15 0 -15 15q0 10 11 21l409 409q13 11 21 11zM161 603h-12
q-23 0 -44 -8.5t-21 -24.5q0 -13 -19 -13q-17 0 -17 15q0 21 26.5 42.5t70.5 21.5h12q57 0 80.5 -19t23.5 -64q0 -24 -25 -43t-45 -23q21 -3 45.5 -25.5t24.5 -52.5q0 -42 -23.5 -60.5t-80.5 -18.5h-12q-44 0 -70.5 21.5t-26.5 42.5q0 15 17 15q19 0 19 -13q0 -16 21 -24.5
t44 -8.5h12q23 0 37.5 3.5t20.5 11t8 14.5t2 18q0 24 -30.5 42t-61.5 18q-18 0 -18 17q0 16 18 16q32 0 62 15t30 38q0 11 -2 18t-8 14.5t-20.5 11t-37.5 3.5z" />
    <glyph glyph-name="questiondown" unicode="&#xbf;" 
d="M369 450q0 -14 -15.5 -25t-30.5 -11q-16 0 -31.5 11t-15.5 25t15.5 25t31.5 11q15 0 30.5 -11t15.5 -25zM301 176v109q0 28 22 28q20 0 20 -28v-140l-153 -42q-27 -8 -45.5 -37.5t-18.5 -70.5q0 -44 24.5 -81t77.5 -37h94q48 0 74 3.5t49.5 16t32.5 39.5t9 72q0 28 21 28
q22 0 22 -28q0 -55 -14 -90.5t-44 -53t-64 -23.5t-86 -6h-76q-86 0 -124 47t-38 113t28 101t96 54z" />
    <glyph glyph-name="Agrave" unicode="&#xc0;" horiz-adv-x="578" 
d="M172 799q0 6 6.5 13t14.5 7q10 0 20 -11l70 -69q11 -13 11 -22q0 -6 -6 -12.5t-14 -6.5q-11 0 -21 11l-69 69q-12 12 -12 21zM45 -16q-21 0 -21 20q0 7 3 14l225 618h46l225 -618q3 -7 3 -14q0 -20 -21 -20q-14 0 -22 20l-72 200h-272l-72 -200q-9 -20 -22 -20zM155 246
h240l-121 329z" />
    <glyph glyph-name="Aacute" unicode="&#xc1;" horiz-adv-x="578" 
d="M358 799q0 -8 -11 -21l-70 -69q-10 -11 -20 -11q-8 0 -14.5 6.5t-6.5 12.5q0 10 12 22l69 69q10 11 21 11q8 0 14 -7t6 -13zM45 -16q-21 0 -21 20q0 7 3 14l225 618h46l225 -618q3 -7 3 -14q0 -20 -21 -20q-14 0 -22 20l-72 200h-272l-72 -200q-9 -20 -22 -20zM155 246
h240l-121 329z" />
    <glyph glyph-name="Acircumflex" unicode="&#xc2;" horiz-adv-x="578" 
d="M276 773h-3l-92 -104q-16 -18 -24 -18q-18 0 -18 18q0 9 4 13l104 137h55l106 -137q4 -5 4 -13q0 -18 -18 -18q-4 0 -7.5 1.5t-5 3t-5.5 6.5t-6 7zM45 -16q-21 0 -21 20q0 7 3 14l225 618h46l225 -618q3 -7 3 -14q0 -20 -21 -20q-14 0 -22 20l-72 200h-272l-72 -200
q-9 -20 -22 -20zM155 246h240l-121 329z" />
    <glyph glyph-name="Atilde" unicode="&#xc3;" horiz-adv-x="578" 
d="M322 755q4 -2 7 -2q4 0 11 5l31 28q11 8 19 8t14.5 -5t6.5 -13q0 -12 -12 -23l-47 -39q-7 -7 -16 -7q-4 0 -10 2l-98 36q-4 2 -8 2t-11 -5l-31 -28q-11 -8 -19 -8q-7 0 -13.5 5.5t-6.5 13.5q0 13 12 22l47 39q5 7 15 7q3 0 11 -2zM45 -16q-21 0 -21 20q0 7 3 14l225 618
h46l225 -618q3 -7 3 -14q0 -20 -21 -20q-14 0 -22 20l-72 200h-272l-72 -200q-9 -20 -22 -20zM155 246h240l-121 329z" />
    <glyph glyph-name="Adieresis" unicode="&#xc4;" horiz-adv-x="578" 
d="M302 743q0 14 15 25t31 11q15 0 30.5 -11t15.5 -25t-15.5 -25t-30.5 -11q-16 0 -31 11t-15 25zM156 743q0 14 15 25t31 11q15 0 30.5 -11t15.5 -25t-15.5 -25t-30.5 -11q-16 0 -31 11t-15 25zM45 -16q-21 0 -21 20q0 7 3 14l225 618h46l225 -618q3 -7 3 -14
q0 -20 -21 -20q-14 0 -22 20l-72 200h-272l-72 -200q-9 -20 -22 -20zM155 246h240l-121 329z" />
    <glyph glyph-name="Aring" unicode="&#xc5;" horiz-adv-x="578" 
d="M226 716q0 -20 14.5 -34.5t34.5 -14.5t34.5 14.5t14.5 34.5t-15 34.5t-34 14.5q-20 0 -34.5 -14.5t-14.5 -34.5zM199 716q0 32 22.5 54t53.5 22t53.5 -22t22.5 -54t-22.5 -54t-53.5 -22t-53.5 22t-22.5 54zM45 -16q-21 0 -21 20q0 7 3 14l225 618h46l225 -618q3 -7 3 -14
q0 -20 -21 -20q-14 0 -22 20l-72 200h-272l-72 -200q-9 -20 -22 -20zM155 246h240l-121 329z" />
    <glyph glyph-name="AE" unicode="&#xc6;" horiz-adv-x="843" 
d="M427 337v-295h334q29 0 29 -23q0 -19 -29 -19h-356q-19 0 -19 31v173h-219l-123 -199q-13 -21 -29 -21q-15 0 -15 13q0 7 7 21l383 610q5 8 15 8h356q29 0 29 -23q0 -19 -29 -19h-334v-215h215q31 0 31 -23q0 -19 -31 -19h-215zM386 246v304l-191 -304h191z" />
    <glyph glyph-name="Ccedilla" unicode="&#xc7;" 
d="M302 0h-9q-106 0 -157 35t-51 140v286q0 105 51 140t157 35h141q31 0 51.5 -9t29 -26t11.5 -33t3 -39q0 -30 -21 -30t-21 28q0 36 -13 51.5t-47 15.5h-134q-48 0 -74.5 -3.5t-49.5 -17t-32.5 -40.5t-9.5 -72v-286q0 -45 9.5 -72t32.5 -40.5t49.5 -17t74.5 -3.5h134
q34 0 47 15t13 52q0 28 21 28t21 -31q0 -22 -3 -38t-11.5 -33t-29 -26t-51.5 -9h-111v-19q44 -14 57 -30.5t13 -46.5q0 -55 -70 -55q-62 0 -62 43q0 13 11 13q10 0 10 -13q0 -22 41 -22q49 0 49 34q0 13 -3 22t-19.5 20.5t-47.5 18.5v35z" />
    <glyph glyph-name="Egrave" unicode="&#xc8;" 
d="M200 799q0 6 6.5 13t14.5 7q10 0 20 -11l70 -69q11 -13 11 -22q0 -6 -6 -12.5t-14 -6.5q-11 0 -21 11l-69 69q-12 12 -12 21zM127 337v-295h373q29 0 29 -23q0 -19 -29 -19h-396q-19 0 -19 31v574q0 31 19 31h396q29 0 29 -23q0 -19 -29 -19h-373v-215h255q30 0 30 -23
q0 -19 -30 -19h-255z" />
    <glyph glyph-name="Eacute" unicode="&#xc9;" 
d="M373 799q0 -8 -11 -21l-70 -69q-10 -11 -20 -11q-8 0 -14.5 6.5t-6.5 12.5q0 10 12 22l69 69q10 11 21 11q8 0 14 -7t6 -13zM127 337v-295h373q29 0 29 -23q0 -19 -29 -19h-396q-19 0 -19 31v574q0 31 19 31h396q29 0 29 -23q0 -19 -29 -19h-373v-215h255q30 0 30 -23
q0 -19 -30 -19h-255z" />
    <glyph glyph-name="Ecircumflex" unicode="&#xca;" 
d="M303 773h-3l-92 -104q-16 -18 -24 -18q-18 0 -18 18q0 9 4 13l104 137h55l106 -137q4 -5 4 -13q0 -18 -18 -18q-4 0 -7.5 1.5t-5 3t-5.5 6.5t-6 7zM127 337v-295h373q29 0 29 -23q0 -19 -29 -19h-396q-19 0 -19 31v574q0 31 19 31h396q29 0 29 -23q0 -19 -29 -19h-373
v-215h255q30 0 30 -23q0 -19 -30 -19h-255z" />
    <glyph glyph-name="Edieresis" unicode="&#xcb;" 
d="M330 743q0 14 15 25t31 11q15 0 30.5 -11t15.5 -25t-15.5 -25t-30.5 -11q-16 0 -31 11t-15 25zM184 743q0 14 15 25t31 11q15 0 30.5 -11t15.5 -25t-15.5 -25t-30.5 -11q-16 0 -31 11t-15 25zM127 337v-295h373q29 0 29 -23q0 -19 -29 -19h-396q-19 0 -19 31v574
q0 31 19 31h396q29 0 29 -23q0 -19 -29 -19h-373v-215h255q30 0 30 -23q0 -19 -30 -19h-255z" />
    <glyph glyph-name="Igrave" unicode="&#xcc;" horiz-adv-x="211" 
d="M5 799q0 6 6.5 13t14.5 7q10 0 20 -11l70 -69q11 -13 11 -22q0 -6 -6 -12.5t-14 -6.5q-11 0 -21 11l-69 69q-12 12 -12 21zM127 20q0 -27 -22 -27q-20 0 -20 27v595q0 28 21 28t21 -28v-595z" />
    <glyph glyph-name="Iacute" unicode="&#xcd;" horiz-adv-x="211" 
d="M208 799q0 -8 -11 -21l-70 -69q-10 -11 -20 -11q-8 0 -14.5 6.5t-6.5 12.5q0 10 12 22l69 69q10 11 21 11q8 0 14 -7t6 -13zM127 20q0 -27 -22 -27q-20 0 -20 27v595q0 28 21 28t21 -28v-595z" />
    <glyph glyph-name="Icircumflex" unicode="&#xce;" horiz-adv-x="211" 
d="M108 773h-3l-92 -104q-16 -18 -24 -18q-18 0 -18 18q0 9 4 13l104 137h55l106 -137q4 -5 4 -13q0 -18 -18 -18q-4 0 -7.5 1.5t-5 3t-5.5 6.5t-6 7zM127 20q0 -27 -22 -27q-20 0 -20 27v595q0 28 21 28t21 -28v-595z" />
    <glyph glyph-name="Idieresis" unicode="&#xcf;" horiz-adv-x="211" 
d="M134 743q0 14 15 25t31 11q15 0 30.5 -11t15.5 -25t-15.5 -25t-30.5 -11q-16 0 -31 11t-15 25zM-12 743q0 14 15 25t31 11q15 0 30.5 -11t15.5 -25t-15.5 -25t-30.5 -11q-16 0 -31 11t-15 25zM127 20q0 -27 -22 -27q-20 0 -20 27v595q0 28 21 28t21 -28v-595z" />
    <glyph glyph-name="Eth" unicode="&#xd0;" 
d="M77 303q-27 0 -27 23q0 20 27 20h8v259q0 31 19 31h218q105 0 156 -35t51 -140v-286q0 -105 -51 -140t-156 -35h-218q-19 0 -19 31v272h-8zM487 175v286q0 45 -9.5 72t-32.5 40.5t-49.5 17t-73.5 3.5h-195v-248h106q29 0 29 -22q0 -21 -29 -21h-106v-261h195
q47 0 73.5 3.5t49.5 17t32.5 40.5t9.5 72z" />
    <glyph glyph-name="Ntilde" unicode="&#xd1;" 
d="M353 755q4 -2 7 -2q4 0 11 5l31 28q11 8 19 8t14.5 -5t6.5 -13q0 -12 -12 -23l-47 -39q-7 -7 -16 -7q-4 0 -10 2l-98 36q-4 2 -8 2t-11 -5l-31 -28q-11 -8 -19 -8q-7 0 -13.5 5.5t-6.5 13.5q0 13 12 22l47 39q5 7 15 7q3 0 11 -2zM509 -7q-12 0 -16 7l-366 557v-534
q0 -30 -21 -30t-21 30v589q0 31 19 31q15 0 26 -17l357 -542v528q0 31 20 31q22 0 22 -31v-589q0 -30 -20 -30z" />
    <glyph glyph-name="Ograve" unicode="&#xd2;" 
d="M205 799q0 6 6.5 13t14.5 7q10 0 20 -11l70 -69q11 -13 11 -22q0 -6 -6 -12.5t-14 -6.5q-11 0 -21 11l-69 69q-12 12 -12 21zM307 -9q-97 0 -159.5 63t-62.5 173v182q0 110 62.5 173t159.5 63t159.5 -63t62.5 -173v-182q0 -110 -62.5 -173t-159.5 -63zM307 603
q-84 0 -132 -51.5t-48 -142.5v-182q0 -91 48 -142.5t132 -51.5t132 51.5t48 142.5v182q0 91 -48 142.5t-132 51.5z" />
    <glyph glyph-name="Oacute" unicode="&#xd3;" 
d="M408 799q0 -8 -11 -21l-70 -69q-10 -11 -20 -11q-8 0 -14.5 6.5t-6.5 12.5q0 10 12 22l69 69q10 11 21 11q8 0 14 -7t6 -13zM307 -9q-97 0 -159.5 63t-62.5 173v182q0 110 62.5 173t159.5 63t159.5 -63t62.5 -173v-182q0 -110 -62.5 -173t-159.5 -63zM307 603
q-84 0 -132 -51.5t-48 -142.5v-182q0 -91 48 -142.5t132 -51.5t132 51.5t48 142.5v182q0 91 -48 142.5t-132 51.5z" />
    <glyph glyph-name="Ocircumflex" unicode="&#xd4;" 
d="M308 773h-3l-92 -104q-16 -18 -24 -18q-18 0 -18 18q0 9 4 13l104 137h55l106 -137q4 -5 4 -13q0 -18 -18 -18q-4 0 -7.5 1.5t-5 3t-5.5 6.5t-6 7zM307 -9q-97 0 -159.5 63t-62.5 173v182q0 110 62.5 173t159.5 63t159.5 -63t62.5 -173v-182q0 -110 -62.5 -173
t-159.5 -63zM307 603q-84 0 -132 -51.5t-48 -142.5v-182q0 -91 48 -142.5t132 -51.5t132 51.5t48 142.5v182q0 91 -48 142.5t-132 51.5z" />
    <glyph glyph-name="Otilde" unicode="&#xd5;" 
d="M354 755q4 -2 7 -2q4 0 11 5l31 28q11 8 19 8t14.5 -5t6.5 -13q0 -12 -12 -23l-47 -39q-7 -7 -16 -7q-4 0 -10 2l-98 36q-4 2 -8 2t-11 -5l-31 -28q-11 -8 -19 -8q-7 0 -13.5 5.5t-6.5 13.5q0 13 12 22l47 39q5 7 15 7q3 0 11 -2zM307 -9q-97 0 -159.5 63t-62.5 173v182
q0 110 62.5 173t159.5 63t159.5 -63t62.5 -173v-182q0 -110 -62.5 -173t-159.5 -63zM307 603q-84 0 -132 -51.5t-48 -142.5v-182q0 -91 48 -142.5t132 -51.5t132 51.5t48 142.5v182q0 91 -48 142.5t-132 51.5z" />
    <glyph glyph-name="Odieresis" unicode="&#xd6;" 
d="M335 743q0 14 15 25t31 11q15 0 30.5 -11t15.5 -25t-15.5 -25t-30.5 -11q-16 0 -31 11t-15 25zM189 743q0 14 15 25t31 11q15 0 30.5 -11t15.5 -25t-15.5 -25t-30.5 -11q-16 0 -31 11t-15 25zM307 -9q-97 0 -159.5 63t-62.5 173v182q0 110 62.5 173t159.5 63t159.5 -63
t62.5 -173v-182q0 -110 -62.5 -173t-159.5 -63zM307 603q-84 0 -132 -51.5t-48 -142.5v-182q0 -91 48 -142.5t132 -51.5t132 51.5t48 142.5v182q0 91 -48 142.5t-132 51.5z" />
    <glyph glyph-name="multiply" unicode="&#xd7;" horiz-adv-x="478" 
d="M65 384q0 7 6.5 13.5t13.5 6.5q9 0 20 -11l135 -133l133 133q11 11 21 11q6 0 13 -5.5t7 -13.5q0 -11 -12 -21l-133 -134l133 -133q12 -10 12 -20q0 -7 -7 -14t-14 -7q-9 0 -20 12l-133 133l-135 -133q-11 -12 -21 -12q-6 0 -12.5 5.5t-6.5 14.5q0 10 11 21l133 133
l-133 134q-11 11 -11 20z" />
    <glyph glyph-name="Oslash" unicode="&#xd8;" 
d="M307 603q-84 0 -132 -51.5t-48 -142.5v-182q0 -76 33 -124l266 461q-47 39 -119 39zM480 638q3 0 7.5 -1.5t9 -6.5t4.5 -12q0 -6 -5 -18l-19 -30q52 -63 52 -161v-182q0 -110 -62.5 -173t-159.5 -63q-82 0 -138 44l-12 -21q-9 -16 -22 -16q-5 0 -12.5 4.5t-7.5 14.5
q0 7 5 19l17 29q-52 61 -52 162v182q0 110 62.5 173t159.5 63q83 0 139 -45l13 22q9 16 21 16zM455 531l-266 -460q46 -38 118 -38q84 0 132 51.5t48 142.5v182q0 75 -32 122z" />
    <glyph glyph-name="Ugrave" unicode="&#xd9;" 
d="M206 783q0 9 6.5 15t13.5 6q9 0 21 -13l96 -115q8 -9 8 -20q0 -8 -6.5 -14t-13.5 -6q-9 0 -21 13l-96 115q-8 9 -8 19zM487 615q0 28 22 28q20 0 20 -28v-388q0 -110 -62.5 -173t-159.5 -63t-159.5 63t-62.5 173v388q0 28 21 28t21 -28v-388q0 -91 48 -142.5t132 -51.5
t132 51.5t48 142.5v388z" />
    <glyph glyph-name="Uacute" unicode="&#xda;" 
d="M432 783q0 -10 -8 -19l-96 -115q-12 -13 -21 -13q-7 0 -13.5 6t-6.5 14q0 11 8 20l96 115q12 13 21 13q7 0 13.5 -6t6.5 -15zM487 615q0 28 22 28q20 0 20 -28v-388q0 -110 -62.5 -173t-159.5 -63t-159.5 63t-62.5 173v388q0 28 21 28t21 -28v-388q0 -91 48 -142.5
t132 -51.5t132 51.5t48 142.5v388z" />
    <glyph glyph-name="Ucircumflex" unicode="&#xdb;" 
d="M308 773h-3l-92 -104q-16 -18 -24 -18q-18 0 -18 18q0 9 4 13l104 137h55l106 -137q4 -5 4 -13q0 -18 -18 -18q-4 0 -7.5 1.5t-5 3t-5.5 6.5t-6 7zM487 615q0 28 22 28q20 0 20 -28v-388q0 -110 -62.5 -173t-159.5 -63t-159.5 63t-62.5 173v388q0 28 21 28t21 -28v-388
q0 -91 48 -142.5t132 -51.5t132 51.5t48 142.5v388z" />
    <glyph glyph-name="Udieresis" unicode="&#xdc;" 
d="M335 743q0 14 15 25t31 11q15 0 30.5 -11t15.5 -25t-15.5 -25t-30.5 -11q-16 0 -31 11t-15 25zM189 743q0 14 15 25t31 11q15 0 30.5 -11t15.5 -25t-15.5 -25t-30.5 -11q-16 0 -31 11t-15 25zM487 615q0 28 22 28q20 0 20 -28v-388q0 -110 -62.5 -173t-159.5 -63
t-159.5 63t-62.5 173v388q0 28 21 28t21 -28v-388q0 -91 48 -142.5t132 -51.5t132 51.5t48 142.5v388z" />
    <glyph glyph-name="Yacute" unicode="&#xdd;" horiz-adv-x="595" 
d="M423 783q0 -10 -8 -19l-96 -115q-12 -13 -21 -13q-7 0 -13.5 6t-6.5 14q0 11 8 20l96 115q12 13 21 13q7 0 13.5 -6t6.5 -15zM278 310l-206 294q-7 10 -7 19q0 8 6.5 14t13.5 6q10 0 21 -16l192 -273l191 273q13 16 22 16q7 0 13.5 -6t6.5 -14q0 -9 -7 -19l-205 -294
v-290q0 -27 -21 -27q-20 0 -20 27v290z" />
    <glyph glyph-name="Thorn" unicode="&#xde;" horiz-adv-x="550" 
d="M127 461h173q78 0 122 -38t44 -112q0 -73 -44.5 -111.5t-122.5 -38.5h-172v-141q0 -27 -22 -27q-20 0 -20 27v553q0 28 21 28t21 -28v-112zM127 419v-216h130q91 0 128 20.5t38 86.5q0 66 -37.5 87.5t-127.5 21.5h-131z" />
    <glyph glyph-name="germandbls" unicode="&#xdf;" horiz-adv-x="541" 
d="M215 360v42q60 0 97 31t37 94q0 30 -21.5 48.5t-59.5 18.5q-27 0 -44 -4t-34 -16.5t-24.5 -40.5t-7.5 -72v-437q0 -31 -23 -31q-19 0 -19 31v395q-31 0 -31 22q0 20 31 20q0 55 13.5 91.5t37.5 53.5t47.5 23.5t53.5 6.5q59 0 91 -33t32 -78q0 -94 -80 -141
q148 -38 148 -189q0 -61 -13 -105.5t-35.5 -67t-46 -32.5t-49.5 -10q-40 0 -75 27.5t-35 78.5q0 31 21 31t21 -29q0 -34 22.5 -50t53.5 -16q37 0 65.5 37t28.5 136q0 71 -52.5 118t-149.5 47z" />
    <glyph glyph-name="agrave" unicode="&#xe0;" 
d="M185 654q0 9 6.5 15t13.5 6q9 0 21 -13l96 -115q8 -9 8 -20q0 -8 -6.5 -14t-13.5 -6q-9 0 -21 13l-96 115q-8 9 -8 19zM293 248q-48 0 -74.5 -3.5t-49.5 -17t-32.5 -40.5t-9.5 -72q0 -28 18.5 -50.5t41.5 -22.5h93q79 0 122 48t43 138v20h-152zM293 290h152v64
q0 35 -13 50t-47 15h-141q-117 0 -117 -65q0 -30 -22 -30q-20 0 -20 30q0 54 42.5 80.5t109.5 26.5h155q55 0 75 -27t20 -97v-314q0 -30 -21 -30t-21 30v49q-54 -72 -165 -72h-93q-45 0 -73.5 32.5t-28.5 87.5q0 42 10 73t27 49.5t44 29t57 14.5t70 4z" />
    <glyph glyph-name="aacute" unicode="&#xe1;" 
d="M411 657q0 -10 -8 -19l-96 -115q-12 -13 -21 -13q-7 0 -13.5 6t-6.5 14q0 11 8 20l96 115q12 13 21 13q7 0 13.5 -6t6.5 -15zM293 248q-48 0 -74.5 -3.5t-49.5 -17t-32.5 -40.5t-9.5 -72q0 -28 18.5 -50.5t41.5 -22.5h93q79 0 122 48t43 138v20h-152zM293 290h152v64
q0 35 -13 50t-47 15h-141q-117 0 -117 -65q0 -30 -22 -30q-20 0 -20 30q0 54 42.5 80.5t109.5 26.5h155q55 0 75 -27t20 -97v-314q0 -30 -21 -30t-21 30v49q-54 -72 -165 -72h-93q-45 0 -73.5 32.5t-28.5 87.5q0 42 10 73t27 49.5t44 29t57 14.5t70 4z" />
    <glyph glyph-name="acircumflex" unicode="&#xe2;" 
d="M287 644h-3l-92 -104q-16 -18 -24 -18q-18 0 -18 18q0 9 4 13l104 137h55l106 -137q4 -5 4 -13q0 -18 -18 -18q-4 0 -7.5 1.5t-5 3t-5.5 6.5t-6 7zM293 248q-48 0 -74.5 -3.5t-49.5 -17t-32.5 -40.5t-9.5 -72q0 -28 18.5 -50.5t41.5 -22.5h93q79 0 122 48t43 138v20h-152
zM293 290h152v64q0 35 -13 50t-47 15h-141q-117 0 -117 -65q0 -30 -22 -30q-20 0 -20 30q0 54 42.5 80.5t109.5 26.5h155q55 0 75 -27t20 -97v-314q0 -30 -21 -30t-21 30v49q-54 -72 -165 -72h-93q-45 0 -73.5 32.5t-28.5 87.5q0 42 10 73t27 49.5t44 29t57 14.5t70 4z" />
    <glyph glyph-name="atilde" unicode="&#xe3;" 
d="M334 571q4 -2 7 -2q4 0 11 5l31 28q11 8 19 8t14.5 -5t6.5 -13q0 -12 -12 -23l-47 -39q-7 -7 -16 -7q-4 0 -10 2l-98 36q-4 2 -8 2t-11 -5l-31 -28q-11 -8 -19 -8q-7 0 -13.5 5.5t-6.5 13.5q0 13 12 22l47 39q5 7 15 7q3 0 11 -2zM293 248q-48 0 -74.5 -3.5t-49.5 -17
t-32.5 -40.5t-9.5 -72q0 -28 18.5 -50.5t41.5 -22.5h93q79 0 122 48t43 138v20h-152zM293 290h152v64q0 35 -13 50t-47 15h-141q-117 0 -117 -65q0 -30 -22 -30q-20 0 -20 30q0 54 42.5 80.5t109.5 26.5h155q55 0 75 -27t20 -97v-314q0 -30 -21 -30t-21 30v49
q-54 -72 -165 -72h-93q-45 0 -73.5 32.5t-28.5 87.5q0 42 10 73t27 49.5t44 29t57 14.5t70 4z" />
    <glyph glyph-name="adieresis" unicode="&#xe4;" 
d="M313 558q0 14 15 25t31 11q15 0 30.5 -11t15.5 -25t-15.5 -25t-30.5 -11q-16 0 -31 11t-15 25zM167 558q0 14 15 25t31 11q15 0 30.5 -11t15.5 -25t-15.5 -25t-30.5 -11q-16 0 -31 11t-15 25zM293 248q-48 0 -74.5 -3.5t-49.5 -17t-32.5 -40.5t-9.5 -72q0 -28 18.5 -50.5
t41.5 -22.5h93q79 0 122 48t43 138v20h-152zM293 290h152v64q0 35 -13 50t-47 15h-141q-117 0 -117 -65q0 -30 -22 -30q-20 0 -20 30q0 54 42.5 80.5t109.5 26.5h155q55 0 75 -27t20 -97v-314q0 -30 -21 -30t-21 30v49q-54 -72 -165 -72h-93q-45 0 -73.5 32.5t-28.5 87.5
q0 42 10 73t27 49.5t44 29t57 14.5t70 4z" />
    <glyph glyph-name="aring" unicode="&#xe5;" 
d="M238 598q0 -20 14.5 -34.5t34.5 -14.5t34.5 14.5t14.5 34.5t-15 34.5t-34 14.5q-20 0 -34.5 -14.5t-14.5 -34.5zM211 598q0 32 22.5 54t53.5 22t53.5 -22t22.5 -54t-22.5 -54t-53.5 -22t-53.5 22t-22.5 54zM293 248q-48 0 -74.5 -3.5t-49.5 -17t-32.5 -40.5t-9.5 -72
q0 -28 18.5 -50.5t41.5 -22.5h93q79 0 122 48t43 138v20h-152zM293 290h152v64q0 35 -13 50t-47 15h-141q-117 0 -117 -65q0 -30 -22 -30q-20 0 -20 30q0 54 42.5 80.5t109.5 26.5h155q55 0 75 -27t20 -97v-314q0 -30 -21 -30t-21 30v49q-54 -72 -165 -72h-93
q-45 0 -73.5 32.5t-28.5 87.5q0 42 10 73t27 49.5t44 29t57 14.5t70 4z" />
    <glyph glyph-name="ae" unicode="&#xe6;" horiz-adv-x="974" 
d="M301 253q-96 0 -135 -27.5t-39 -112.5q0 -28 18.5 -49.5t41.5 -21.5h92q83 0 127.5 51t44.5 140v20h-150zM847 295q-1 76 -36.5 100t-136.5 24h-8q-102 0 -137 -23.5t-36 -100.5h354zM485 410q16 16 29 24.5t53 17.5t99 9h8q114 0 164.5 -35t50.5 -136v-37h-396v-81
q0 -45 9 -71t33.5 -39t52 -16.5t78.5 -3.5h121q35 0 47.5 15.5t12.5 51.5q0 28 21 28t21 -31q0 -51 -19.5 -78.5t-75.5 -27.5h-128q-55 0 -92.5 6.5t-58.5 20t-30.5 25t-19.5 30.5l-5 -6q-25 -35 -79 -55.5t-102 -20.5h-92q-44 0 -73 32t-29 86q0 100 54.5 138.5t161.5 38.5
h150v62q0 33 -12.5 47.5t-46.5 14.5h-139q-126 0 -126 -65q0 -30 -22 -30q-20 0 -20 30q0 40 26 65.5t59.5 33.5t75.5 8h153q24 0 40.5 -4.5t25.5 -14t12 -15t8 -17.5z" />
    <glyph glyph-name="ccedilla" unicode="&#xe7;" 
d="M300 0h-7q-106 0 -157 35t-51 140v111q0 105 51 140t157 35h141q31 0 51.5 -9t29 -26.5t11.5 -33t3 -38.5q0 -30 -21 -30t-21 28q0 36 -13 51.5t-47 15.5h-134q-48 0 -74.5 -3.5t-49.5 -17t-32.5 -40.5t-9.5 -72v-111q0 -45 9.5 -72t32.5 -40.5t49.5 -17t74.5 -3.5h134
q34 0 47 15t13 52q0 28 21 28t21 -31q0 -22 -3 -38t-11.5 -33t-29 -26t-51.5 -9h-113v-19q44 -14 57 -30.5t13 -46.5q0 -55 -70 -55q-62 0 -62 43q0 13 11 13q10 0 10 -13q0 -22 41 -22q49 0 49 34q0 13 -3 22t-19.5 20.5t-47.5 18.5v35z" />
    <glyph glyph-name="egrave" unicode="&#xe8;" 
d="M204 657q0 9 6.5 15t13.5 6q9 0 21 -13l96 -115q8 -9 8 -20q0 -8 -6.5 -14t-13.5 -6q-9 0 -21 13l-96 115q-8 9 -8 19zM529 286v-36h-402v-75q0 -45 9.5 -72t32.5 -40.5t49.5 -17t74.5 -3.5h134q34 0 47 15t13 52q0 28 21 28t21 -31q0 -22 -3 -38t-11.5 -33t-29 -26
t-51.5 -9h-141q-106 0 -157 35t-51 140v111q0 105 51 140t157 35h29q105 0 156 -35t51 -140zM322 419h-29q-92 0 -129 -23t-37 -104h360q0 81 -37 104t-128 23z" />
    <glyph glyph-name="eacute" unicode="&#xe9;" 
d="M433 657q0 -10 -8 -19l-96 -115q-12 -13 -21 -13q-7 0 -13.5 6t-6.5 14q0 11 8 20l96 115q12 13 21 13q7 0 13.5 -6t6.5 -15zM529 286v-36h-402v-75q0 -45 9.5 -72t32.5 -40.5t49.5 -17t74.5 -3.5h134q34 0 47 15t13 52q0 28 21 28t21 -31q0 -22 -3 -38t-11.5 -33
t-29 -26t-51.5 -9h-141q-106 0 -157 35t-51 140v111q0 105 51 140t157 35h29q105 0 156 -35t51 -140zM322 419h-29q-92 0 -129 -23t-37 -104h360q0 81 -37 104t-128 23z" />
    <glyph glyph-name="ecircumflex" unicode="&#xea;" 
d="M308 644h-3l-92 -104q-16 -18 -24 -18q-18 0 -18 18q0 9 4 13l104 137h55l106 -137q4 -5 4 -13q0 -18 -18 -18q-4 0 -7.5 1.5t-5 3t-5.5 6.5t-6 7zM529 286v-36h-402v-75q0 -45 9.5 -72t32.5 -40.5t49.5 -17t74.5 -3.5h134q34 0 47 15t13 52q0 28 21 28t21 -31
q0 -22 -3 -38t-11.5 -33t-29 -26t-51.5 -9h-141q-106 0 -157 35t-51 140v111q0 105 51 140t157 35h29q105 0 156 -35t51 -140zM322 419h-29q-92 0 -129 -23t-37 -104h360q0 81 -37 104t-128 23z" />
    <glyph glyph-name="edieresis" unicode="&#xeb;" 
d="M335 558q0 14 15 25t31 11q15 0 30.5 -11t15.5 -25t-15.5 -25t-30.5 -11q-16 0 -31 11t-15 25zM189 558q0 14 15 25t31 11q15 0 30.5 -11t15.5 -25t-15.5 -25t-30.5 -11q-16 0 -31 11t-15 25zM529 286v-36h-402v-75q0 -45 9.5 -72t32.5 -40.5t49.5 -17t74.5 -3.5h134
q34 0 47 15t13 52q0 28 21 28t21 -31q0 -22 -3 -38t-11.5 -33t-29 -26t-51.5 -9h-141q-106 0 -157 35t-51 140v111q0 105 51 140t157 35h29q105 0 156 -35t51 -140zM322 419h-29q-92 0 -129 -23t-37 -104h360q0 81 -37 104t-128 23z" />
    <glyph glyph-name="igrave" unicode="&#xec;" horiz-adv-x="210" 
d="M127 20q0 -27 -22 -27q-20 0 -20 27v420q0 28 21 28t21 -28v-420zM-18 658q0 9 6.5 15t13.5 6q9 0 21 -13l96 -115q8 -9 8 -20q0 -8 -6.5 -14t-13.5 -6q-9 0 -21 13l-96 115q-8 9 -8 19z" />
    <glyph glyph-name="iacute" unicode="&#xed;" horiz-adv-x="210" 
d="M127 20q0 -27 -22 -27q-20 0 -20 27v420q0 28 21 28t21 -28v-420zM230 657q0 -10 -8 -19l-96 -115q-12 -13 -21 -13q-7 0 -13.5 6t-6.5 14q0 11 8 20l96 115q12 13 21 13q7 0 13.5 -6t6.5 -15z" />
    <glyph glyph-name="icircumflex" unicode="&#xee;" horiz-adv-x="210" 
d="M107 651h-3l-92 -104q-16 -18 -24 -18q-18 0 -18 18q0 9 4 13l104 137h55l106 -137q4 -5 4 -13q0 -18 -18 -18q-4 0 -7.5 1.5t-5 3t-5.5 6.5t-6 7zM127 20q0 -27 -22 -27q-20 0 -20 27v420q0 28 21 28t21 -28v-420z" />
    <glyph glyph-name="idieresis" unicode="&#xef;" horiz-adv-x="210" 
d="M127 20q0 -27 -22 -27q-20 0 -20 27v420q0 28 21 28t21 -28v-420zM133 565q0 14 15 25t31 11q15 0 30.5 -11t15.5 -25t-15.5 -25t-30.5 -11q-16 0 -31 11t-15 25zM-13 565q0 14 15 25t31 11q15 0 30.5 -11t15.5 -25t-15.5 -25t-30.5 -11q-16 0 -31 11t-15 25z" />
    <glyph glyph-name="eth" unicode="&#xf0;" 
d="M186 593q-26 0 -26 20q0 23 26 23q71 0 131 -27l34 34q11 11 21 11q7 0 13.5 -5.5t6.5 -13.5q0 -10 -11 -22l-25 -24q173 -106 173 -368q0 -98 -56 -167.5t-151 -69.5q-104 0 -170.5 63t-66.5 173q0 111 66.5 173.5t170.5 62.5q82 0 135 -53q-42 106 -132 154l-50 -49
q-11 -11 -20 -11q-7 0 -14 6t-7 14q0 7 12 21l38 37q-48 18 -98 18zM487 221q0 80 -41.5 136.5t-123.5 56.5q-88 0 -141.5 -54t-53.5 -140q0 -85 53.5 -139.5t141.5 -54.5q80 0 122.5 61.5t42.5 133.5z" />
    <glyph glyph-name="ntilde" unicode="&#xf1;" 
d="M354 578q4 -2 7 -2q4 0 11 5l31 28q11 8 19 8t14.5 -5t6.5 -13q0 -12 -12 -23l-47 -39q-7 -7 -16 -7q-4 0 -10 2l-98 36q-4 2 -8 2t-11 -5l-31 -28q-11 -8 -19 -8q-7 0 -13.5 5.5t-6.5 13.5q0 13 12 22l47 39q5 7 15 7q3 0 11 -2zM293 419q-80 0 -123 -48.5t-43 -138.5
v-209q0 -30 -21 -30t-21 30v414q0 31 19 31q23 0 23 -31v-48q56 72 166 72h29q105 0 156 -35t51 -140v-263q0 -30 -20 -30q-22 0 -22 30v263q0 45 -9.5 72t-32.5 40.5t-49.5 17t-73.5 3.5h-29z" />
    <glyph glyph-name="ograve" unicode="&#xf2;" 
d="M206 657q0 9 6.5 15t13.5 6q9 0 21 -13l96 -115q8 -9 8 -20q0 -8 -6.5 -14t-13.5 -6q-9 0 -21 13l-96 115q-8 9 -8 19zM322 0h-29q-106 0 -157 35t-51 140v111q0 105 51 140t157 35h29q105 0 156 -35t51 -140v-111q0 -105 -51 -140t-156 -35zM293 42h29q47 0 73.5 3.5
t49.5 17t32.5 40.5t9.5 72v111q0 45 -9.5 72t-32.5 40.5t-49.5 17t-73.5 3.5h-29q-48 0 -74.5 -3.5t-49.5 -17t-32.5 -40.5t-9.5 -72v-111q0 -45 9.5 -72t32.5 -40.5t49.5 -17t74.5 -3.5z" />
    <glyph glyph-name="oacute" unicode="&#xf3;" 
d="M431 657q0 -10 -8 -19l-96 -115q-12 -13 -21 -13q-7 0 -13.5 6t-6.5 14q0 11 8 20l96 115q12 13 21 13q7 0 13.5 -6t6.5 -15zM322 0h-29q-106 0 -157 35t-51 140v111q0 105 51 140t157 35h29q105 0 156 -35t51 -140v-111q0 -105 -51 -140t-156 -35zM293 42h29
q47 0 73.5 3.5t49.5 17t32.5 40.5t9.5 72v111q0 45 -9.5 72t-32.5 40.5t-49.5 17t-73.5 3.5h-29q-48 0 -74.5 -3.5t-49.5 -17t-32.5 -40.5t-9.5 -72v-111q0 -45 9.5 -72t32.5 -40.5t49.5 -17t74.5 -3.5z" />
    <glyph glyph-name="ocircumflex" unicode="&#xf4;" 
d="M308 644h-3l-92 -104q-16 -18 -24 -18q-18 0 -18 18q0 9 4 13l104 137h55l106 -137q4 -5 4 -13q0 -18 -18 -18q-4 0 -7.5 1.5t-5 3t-5.5 6.5t-6 7zM322 0h-29q-106 0 -157 35t-51 140v111q0 105 51 140t157 35h29q105 0 156 -35t51 -140v-111q0 -105 -51 -140t-156 -35z
M293 42h29q47 0 73.5 3.5t49.5 17t32.5 40.5t9.5 72v111q0 45 -9.5 72t-32.5 40.5t-49.5 17t-73.5 3.5h-29q-48 0 -74.5 -3.5t-49.5 -17t-32.5 -40.5t-9.5 -72v-111q0 -45 9.5 -72t32.5 -40.5t49.5 -17t74.5 -3.5z" />
    <glyph glyph-name="otilde" unicode="&#xf5;" 
d="M354 571q4 -2 7 -2q4 0 11 5l31 28q11 8 19 8t14.5 -5t6.5 -13q0 -12 -12 -23l-47 -39q-7 -7 -16 -7q-4 0 -10 2l-98 36q-4 2 -8 2t-11 -5l-31 -28q-11 -8 -19 -8q-7 0 -13.5 5.5t-6.5 13.5q0 13 12 22l47 39q5 7 15 7q3 0 11 -2zM322 0h-29q-106 0 -157 35t-51 140v111
q0 105 51 140t157 35h29q105 0 156 -35t51 -140v-111q0 -105 -51 -140t-156 -35zM293 42h29q47 0 73.5 3.5t49.5 17t32.5 40.5t9.5 72v111q0 45 -9.5 72t-32.5 40.5t-49.5 17t-73.5 3.5h-29q-48 0 -74.5 -3.5t-49.5 -17t-32.5 -40.5t-9.5 -72v-111q0 -45 9.5 -72t32.5 -40.5
t49.5 -17t74.5 -3.5z" />
    <glyph glyph-name="odieresis" unicode="&#xf6;" 
d="M335 558q0 14 15 25t31 11q15 0 30.5 -11t15.5 -25t-15.5 -25t-30.5 -11q-16 0 -31 11t-15 25zM189 558q0 14 15 25t31 11q15 0 30.5 -11t15.5 -25t-15.5 -25t-30.5 -11q-16 0 -31 11t-15 25zM322 0h-29q-106 0 -157 35t-51 140v111q0 105 51 140t157 35h29
q105 0 156 -35t51 -140v-111q0 -105 -51 -140t-156 -35zM293 42h29q47 0 73.5 3.5t49.5 17t32.5 40.5t9.5 72v111q0 45 -9.5 72t-32.5 40.5t-49.5 17t-73.5 3.5h-29q-48 0 -74.5 -3.5t-49.5 -17t-32.5 -40.5t-9.5 -72v-111q0 -45 9.5 -72t32.5 -40.5t49.5 -17t74.5 -3.5z
" />
    <glyph glyph-name="divide" unicode="&#xf7;" horiz-adv-x="429" 
d="M165 333q0 14 15 25t31 11q15 0 30.5 -11t15.5 -25t-15.5 -25t-30.5 -11q-16 0 -31 11t-15 25zM165 128q0 14 15 25t31 11q15 0 30.5 -11t15.5 -25t-15.5 -25t-30.5 -11q-16 0 -31 11t-15 25zM91 209q-26 0 -26 22q0 21 26 21h245q29 0 29 -23q0 -20 -29 -20h-245z" />
    <glyph glyph-name="oslash" unicode="&#xf8;" 
d="M490 469q7 0 14 -6t7 -14q0 -9 -9 -20l-12 -14q39 -41 39 -129v-111q0 -105 -51 -140t-156 -35h-29q-89 0 -133 20l-14 -15q-11 -13 -21 -13q-7 0 -14 6t-7 14t10 20l11 13q-40 42 -40 130v111q0 105 51 140t157 35h29q91 0 134 -22l13 17q11 13 21 13zM293 42h29
q47 0 73.5 3.5t49.5 17t32.5 40.5t9.5 72v111q0 68 -24 97l-276 -330q32 -11 106 -11zM152 77l276 330q-32 12 -106 12h-29q-48 0 -74.5 -3.5t-49.5 -17t-32.5 -40.5t-9.5 -72v-111q0 -69 25 -98z" />
    <glyph glyph-name="ugrave" unicode="&#xf9;" 
d="M205 657q0 9 6.5 15t13.5 6q9 0 21 -13l96 -115q8 -9 8 -20q0 -8 -6.5 -14t-13.5 -6q-9 0 -21 13l-96 115q-8 9 -8 19zM322 42q79 0 122 48t43 138v210q0 30 21 30t21 -30v-414q0 -31 -19 -31q-23 0 -23 31v48q-54 -72 -165 -72h-29q-106 0 -157 35t-51 140v263
q0 30 20 30q22 0 22 -30v-263q0 -45 9.5 -72t32.5 -40.5t49.5 -17t74.5 -3.5h29z" />
    <glyph glyph-name="uacute" unicode="&#xfa;" 
d="M432 657q0 -10 -8 -19l-96 -115q-12 -13 -21 -13q-7 0 -13.5 6t-6.5 14q0 11 8 20l96 115q12 13 21 13q7 0 13.5 -6t6.5 -15zM322 42q79 0 122 48t43 138v210q0 30 21 30t21 -30v-414q0 -31 -19 -31q-23 0 -23 31v48q-54 -72 -165 -72h-29q-106 0 -157 35t-51 140v263
q0 30 20 30q22 0 22 -30v-263q0 -45 9.5 -72t32.5 -40.5t49.5 -17t74.5 -3.5h29z" />
    <glyph glyph-name="ucircumflex" unicode="&#xfb;" 
d="M307 651h-3l-92 -104q-16 -18 -24 -18q-18 0 -18 18q0 9 4 13l104 137h55l106 -137q4 -5 4 -13q0 -18 -18 -18q-4 0 -7.5 1.5t-5 3t-5.5 6.5t-6 7zM322 42q79 0 122 48t43 138v210q0 30 21 30t21 -30v-414q0 -31 -19 -31q-23 0 -23 31v48q-54 -72 -165 -72h-29
q-106 0 -157 35t-51 140v263q0 30 20 30q22 0 22 -30v-263q0 -45 9.5 -72t32.5 -40.5t49.5 -17t74.5 -3.5h29z" />
    <glyph glyph-name="udieresis" unicode="&#xfc;" 
d="M334 565q0 14 15 25t31 11q15 0 30.5 -11t15.5 -25t-15.5 -25t-30.5 -11q-16 0 -31 11t-15 25zM188 565q0 14 15 25t31 11q15 0 30.5 -11t15.5 -25t-15.5 -25t-30.5 -11q-16 0 -31 11t-15 25zM322 42q79 0 122 48t43 138v210q0 30 21 30t21 -30v-414q0 -31 -19 -31
q-23 0 -23 31v48q-54 -72 -165 -72h-29q-106 0 -157 35t-51 140v263q0 30 20 30q22 0 22 -30v-263q0 -45 9.5 -72t32.5 -40.5t49.5 -17t74.5 -3.5h29z" />
    <glyph glyph-name="yacute" unicode="&#xfd;" 
d="M433 657q0 -10 -8 -19l-96 -115q-12 -13 -21 -13q-7 0 -13.5 6t-6.5 14q0 11 8 20l96 115q12 13 21 13q7 0 13.5 -6t6.5 -15zM529 -92q0 -64 -18 -88.5t-68 -24.5h-263q-31 0 -51.5 9t-29 26.5t-11.5 33t-3 38.5q0 30 21 30t21 -28q0 -36 13 -51.5t47 -15.5h249
q31 0 41 11.5t10 43.5v180q-54 -72 -165 -72h-29q-106 0 -157 35t-51 140v261q0 32 21 32t21 -32v-261q0 -45 9.5 -72t32.5 -40.5t49.5 -17t74.5 -3.5h29q79 0 122 48t43 138v208q0 32 22 32q20 0 20 -32v-528z" />
    <glyph glyph-name="thorn" unicode="&#xfe;" 
d="M487 286q0 45 -9.5 72t-32.5 40.5t-49.5 17t-73.5 3.5h-29q-80 0 -123 -48.5t-43 -138.5v-190h195q47 0 73.5 3.5t49.5 17t32.5 40.5t9.5 72v111zM529 175q0 -105 -51 -140t-156 -35h-195v-152q0 -30 -23 -30q-19 0 -19 30v765q0 30 21 30t21 -30v-224q56 72 166 72h29
q105 0 156 -35t51 -140v-111z" />
    <glyph glyph-name="ydieresis" unicode="&#xff;" 
d="M335 565q0 14 15 25t31 11q15 0 30.5 -11t15.5 -25t-15.5 -25t-30.5 -11q-16 0 -31 11t-15 25zM189 565q0 14 15 25t31 11q15 0 30.5 -11t15.5 -25t-15.5 -25t-30.5 -11q-16 0 -31 11t-15 25zM529 -92q0 -64 -18 -88.5t-68 -24.5h-263q-31 0 -51.5 9t-29 26.5t-11.5 33
t-3 38.5q0 30 21 30t21 -28q0 -36 13 -51.5t47 -15.5h249q31 0 41 11.5t10 43.5v180q-54 -72 -165 -72h-29q-106 0 -157 35t-51 140v261q0 32 21 32t21 -32v-261q0 -45 9.5 -72t32.5 -40.5t49.5 -17t74.5 -3.5h29q79 0 122 48t43 138v208q0 32 22 32q20 0 20 -32v-528z" />
    <glyph glyph-name="Jcircumflex" unicode="&#x134;" horiz-adv-x="586" 
d="M482 774h-3l-92 -104q-16 -18 -24 -18q-18 0 -18 18q0 9 4 13l104 137h55l106 -137q4 -5 4 -13q0 -18 -18 -18q-4 0 -7.5 1.5t-5 3t-5.5 6.5t-6 7zM294 34q48 0 74.5 3.5t49.5 17t32.5 40.5t9.5 72v448q0 28 21 28t21 -28v-448q0 -55 -14 -91t-44 -54t-64 -24t-86 -6
t-86.5 6t-64.5 24t-44 54t-14 91q0 28 23 28q20 0 20 -28q0 -86 36 -109.5t130 -23.5z" />
    <glyph glyph-name="OE" unicode="&#x152;" horiz-adv-x="727" 
d="M376 617q3 19 18 19h239q30 0 30 -20q0 -22 -30 -22h-216v-215h98q30 0 30 -23q0 -19 -30 -19h-98v-295h216q30 0 30 -23q0 -19 -30 -19h-239q-15 0 -18 18q-45 -27 -108 -27q-73 0 -138 65.5t-65 170.5v182q0 105 65 170.5t138 65.5q64 0 108 -28zM375 70v496
q-37 37 -107 37q-61 0 -111.5 -54t-50.5 -140v-182q0 -86 50.5 -140t111.5 -54q70 0 107 37z" />
    <glyph glyph-name="oe" unicode="&#x153;" horiz-adv-x="734" 
d="M513 419q-59 0 -87 -23.5t-28 -103.5h230q0 80 -28 103.5t-87 23.5zM231 419q-77 0 -101 -31.5t-24 -101.5v-111q0 -70 24 -101.5t101 -31.5q78 0 101.5 31.5t23.5 101.5v111q0 70 -23.5 101.5t-101.5 31.5zM231 0q-91 0 -128.5 42t-37.5 133v111q0 91 37.5 133t128.5 42
q57 0 91 -17t55 -53q34 70 136 70q73 0 115 -36t42 -139v-36h-272v-75q0 -43 12.5 -71.5t34.5 -41t41.5 -16.5t45.5 -4q96 0 96 67q0 28 20 28q22 0 22 -31q0 -34 -12 -56.5t-34.5 -32.5t-43 -13.5t-48.5 -3.5q-119 0 -153 74q-20 -38 -54 -56t-94 -18z" />
    <glyph glyph-name="Scircumflex" unicode="&#x15c;" horiz-adv-x="586" 
d="M290 773h-3l-92 -104q-16 -18 -24 -18q-18 0 -18 18q0 9 4 13l104 137h55l106 -137q4 -5 4 -13q0 -18 -18 -18q-4 0 -7.5 1.5t-5 3t-5.5 6.5t-6 7zM127 484q0 -42 18.5 -71.5t45.5 -36.5l217 -52q123 -31 123 -170q0 -66 -37.5 -114t-123.5 -48h-76q-52 0 -86.5 6
t-64.5 24t-44 54t-14 91q0 28 23 28q20 0 20 -28q0 -86 36 -109.5t130 -23.5h93q53 0 77.5 38t24.5 82q0 51 -20.5 84t-43.5 38l-216 53q-68 16 -96 52t-28 103q0 66 38 113t124 47h76q52 0 86 -6t64 -23.5t44 -53t14 -90.5q0 -28 -22 -28q-21 0 -21 28q0 45 -9 72
t-32.5 39.5t-49.5 16t-74 3.5h-94q-53 0 -77.5 -37.5t-24.5 -80.5z" />
    <glyph glyph-name="scircumflex" unicode="&#x15d;" 
d="M322 644h-3l-92 -104q-16 -18 -24 -18q-18 0 -18 18q0 9 4 13l104 137h55l106 -137q4 -5 4 -13q0 -18 -18 -18q-4 0 -7.5 1.5t-5 3t-5.5 6.5t-6 7zM180 0q-31 0 -51.5 9t-29 26t-11.5 33t-3 38q0 31 21 31t21 -28q0 -37 13 -52t47 -15h238q64 0 64 81q0 42 -18 67t-46 25
h-216q-124 0 -124 128q0 58 28.5 88t95.5 30h225q31 0 51.5 -9t29 -26.5t11.5 -33t3 -38.5q0 -30 -21 -30t-21 28q0 36 -13 51.5t-47 15.5h-236q-64 0 -64 -76q0 -41 18 -63.5t46 -22.5h217q123 0 123 -134q0 -123 -123 -123h-228z" />
    <glyph glyph-name="Scaron" unicode="&#x160;" horiz-adv-x="586" 
d="M333 678h-52l-102 107q-6 6 -6 12q0 15 18 15q10 0 29 -16l87 -72l87 72q19 16 29 16q18 0 18 -15q0 -6 -6 -12zM127 484q0 -42 18.5 -71.5t45.5 -36.5l217 -52q123 -31 123 -170q0 -66 -37.5 -114t-123.5 -48h-76q-52 0 -86.5 6t-64.5 24t-44 54t-14 91q0 28 23 28
q20 0 20 -28q0 -86 36 -109.5t130 -23.5h93q53 0 77.5 38t24.5 82q0 51 -20.5 84t-43.5 38l-216 53q-68 16 -96 52t-28 103q0 66 38 113t124 47h76q52 0 86 -6t64 -23.5t44 -53t14 -90.5q0 -28 -22 -28q-21 0 -21 28q0 45 -9 72t-32.5 39.5t-49.5 16t-74 3.5h-94
q-53 0 -77.5 -37.5t-24.5 -80.5z" />
    <glyph glyph-name="scaron" unicode="&#x161;" 
d="M348 522h-52l-102 107q-6 6 -6 12q0 15 18 15q10 0 29 -16l87 -72l87 72q19 16 29 16q18 0 18 -15q0 -6 -6 -12zM180 0q-31 0 -51.5 9t-29 26t-11.5 33t-3 38q0 31 21 31t21 -28q0 -37 13 -52t47 -15h238q64 0 64 81q0 42 -18 67t-46 25h-216q-124 0 -124 128
q0 58 28.5 88t95.5 30h225q31 0 51.5 -9t29 -26.5t11.5 -33t3 -38.5q0 -30 -21 -30t-21 28q0 36 -13 51.5t-47 15.5h-236q-64 0 -64 -76q0 -41 18 -63.5t46 -22.5h217q123 0 123 -134q0 -123 -123 -123h-228z" />
    <glyph glyph-name="Ydieresis" unicode="&#x178;" horiz-adv-x="595" 
d="M326 743q0 14 15 25t31 11q15 0 30.5 -11t15.5 -25t-15.5 -25t-30.5 -11q-16 0 -31 11t-15 25zM180 743q0 14 15 25t31 11q15 0 30.5 -11t15.5 -25t-15.5 -25t-30.5 -11q-16 0 -31 11t-15 25zM278 310l-206 294q-7 10 -7 19q0 8 6.5 14t13.5 6q10 0 21 -16l192 -273
l191 273q13 16 22 16q7 0 13.5 -6t6.5 -14q0 -9 -7 -19l-205 -294v-290q0 -27 -21 -27q-20 0 -20 27v290z" />
    <glyph glyph-name="Zcaron" unicode="&#x17d;" 
d="M339 678h-52l-102 107q-6 6 -6 12q0 15 18 15q10 0 29 -16l87 -72l87 72q19 16 29 16q18 0 18 -15q0 -6 -6 -12zM86 0v44l396 550h-366q-31 0 -31 21t31 21h413v-46l-394 -548h364q30 0 30 -22q0 -20 -30 -20h-413z" />
    <glyph glyph-name="zcaron" unicode="&#x17e;" horiz-adv-x="591" 
d="M308 522h-52l-102 107q-6 6 -6 12q0 15 18 15q10 0 29 -16l87 -72l87 72q19 16 29 16q18 0 18 -15q0 -6 -6 -12zM135 42h269q28 0 42 12.5t16.5 27t2.5 42.5q0 31 21 31t21 -31q0 -70 -20.5 -97t-74.5 -27h-327v59l354 360h-252q-39 0 -49.5 -20.5t-10.5 -61.5
q0 -31 -22 -31q-20 0 -20 31q0 70 20 97t75 27h306v-62z" />
    <glyph glyph-name="florin" unicode="&#x192;" horiz-adv-x="408" 
d="M127 44q0 -92 -31 -120.5t-109 -28.5q-31 0 -31 22q0 20 31 20q68 0 83 20.5t15 112.5v349q-31 0 -31 22q0 20 31 20q0 56 14 91.5t44 53.5t64 24t86 6q31 0 31 -23q0 -19 -31 -19q-48 0 -74.5 -3.5t-49.5 -17t-32.5 -40.5t-9.5 -72h143q31 0 31 -23q0 -19 -31 -19h-143
v-375z" />
    <glyph glyph-name="uni0237" unicode="&#x237;" horiz-adv-x="208" 
d="M124 0q0 -56 -14 -92t-44 -53.5t-64 -23.5t-86 -6q-31 0 -31 22q0 20 31 20q48 0 74.5 3.5t49.5 17t32.5 40.5t9.5 72v437q0 31 22 31q20 0 20 -31v-437z" />
    <glyph glyph-name="circumflex" unicode="&#x2c6;" horiz-adv-x="402" 
d="M202 632h-3l-92 -104q-16 -18 -24 -18q-18 0 -18 18q0 9 4 13l104 137h55l106 -137q4 -5 4 -13q0 -18 -18 -18q-4 0 -7.5 1.5t-5 3t-5.5 6.5t-6 7z" />
    <glyph glyph-name="tilde" unicode="&#x2dc;" horiz-adv-x="401" 
d="M248 231q4 -2 7 -2q4 0 11 5l31 28q11 8 19 8t14.5 -5t6.5 -13q0 -12 -12 -23l-47 -39q-7 -7 -16 -7q-4 0 -10 2l-98 36q-4 2 -8 2t-11 -5l-31 -28q-11 -8 -19 -8q-7 0 -13.5 5.5t-6.5 13.5q0 13 12 22l47 39q5 7 15 7q3 0 11 -2z" />
    <glyph glyph-name="uni0337" unicode="&#x337;" horiz-adv-x="0" 
d="M-210 303q10 0 16 -6.5t6 -14.5q0 -13 -22 -22l-170 -84q-8 -3 -13 -3q-21 0 -21 23q0 10 19 20l170 84q9 3 15 3z" />
    <glyph glyph-name="endash" unicode="&#x2013;" horiz-adv-x="497" 
d="M91 209q-26 0 -26 22q0 21 26 21h313q29 0 29 -23q0 -20 -29 -20h-313z" />
    <glyph glyph-name="emdash" unicode="&#x2014;" 
d="M91 209q-26 0 -26 22q0 21 26 21h430q29 0 29 -23q0 -20 -29 -20h-430z" />
    <glyph glyph-name="quoteleft" unicode="&#x2018;" horiz-adv-x="185" 
d="M111 555q0 -20 -30 -20q-27 0 -27 20q0 43 25.5 82t41.5 39t16 -12q0 -4 -13 -34t-13 -75z" />
    <glyph glyph-name="quoteright" unicode="&#x2019;" horiz-adv-x="191" 
d="M81 655q0 21 30 21q26 0 26 -21q0 -43 -25 -81.5t-41 -38.5q-17 0 -17 12q0 3 13.5 33.5t13.5 74.5z" />
    <glyph glyph-name="quotesinglbase" unicode="&#x201a;" horiz-adv-x="191" 
d="M81 41q0 21 30 21q26 0 26 -21q0 -43 -25 -81.5t-41 -38.5q-17 0 -17 12q0 3 13.5 33.5t13.5 74.5z" />
    <glyph glyph-name="quotedblleft" unicode="&#x201c;" horiz-adv-x="314" 
d="M111 555q0 -20 -30 -20q-27 0 -27 20q0 43 25.5 82t41.5 39t16 -12q0 -4 -13 -34t-13 -75zM234 555q0 -20 -30 -20q-27 0 -27 20q0 43 25.5 82t41.5 39t16 -12q0 -4 -13 -34t-13 -75z" />
    <glyph glyph-name="quotedblright" unicode="&#x201d;" horiz-adv-x="314" 
d="M81 655q0 21 30 21q26 0 26 -21q0 -43 -25 -81.5t-41 -38.5q-17 0 -17 12q0 3 13.5 33.5t13.5 74.5zM204 655q0 21 30 21q26 0 26 -21q0 -43 -25 -81.5t-41 -38.5q-17 0 -17 12q0 3 13.5 33.5t13.5 74.5z" />
    <glyph glyph-name="quotedblbase" unicode="&#x201e;" horiz-adv-x="314" 
d="M81 41q0 21 30 21q26 0 26 -21q0 -43 -25 -81.5t-41 -38.5q-17 0 -17 12q0 3 13.5 33.5t13.5 74.5zM204 41q0 21 30 21q26 0 26 -21q0 -43 -25 -81.5t-41 -38.5q-17 0 -17 12q0 3 13.5 33.5t13.5 74.5z" />
    <glyph glyph-name="dagger" unicode="&#x2020;" horiz-adv-x="340" 
d="M92 485q-27 0 -27 22q0 20 27 20h58v89q0 28 21 28q20 0 20 -28v-89h58q27 0 27 -21t-27 -21h-58v-288q0 -28 -21 -28q-20 0 -20 28v288h-58z" />
    <glyph glyph-name="daggerdbl" unicode="&#x2021;" horiz-adv-x="340" 
d="M191 326h58q27 0 27 -22q0 -20 -27 -20h-58v-89q0 -28 -21 -28q-20 0 -20 28v89h-58q-27 0 -27 21t27 21h58v159h-58q-27 0 -27 22q0 20 27 20h58v89q0 28 21 28q20 0 20 -28v-89h58q27 0 27 -21t-27 -21h-58v-159z" />
    <glyph glyph-name="bullet" unicode="&#x2022;" horiz-adv-x="440" 
d="M85 258q0 56 39.5 95.5t95.5 39.5t95.5 -39.5t39.5 -95.5t-39.5 -95.5t-95.5 -39.5t-95.5 39.5t-39.5 95.5z" />
    <glyph glyph-name="ellipsis" unicode="&#x2026;" horiz-adv-x="466" 
d="M65 29q0 14 15 25t31 11q15 0 30.5 -11t15.5 -25t-15.5 -25t-30.5 -11q-16 0 -31 11t-15 25zM188 29q0 14 15 25t31 11q15 0 30.5 -11t15.5 -25t-15.5 -25t-30.5 -11q-16 0 -31 11t-15 25zM311 29q0 14 15 25t31 11q15 0 30.5 -11t15.5 -25t-15.5 -25t-30.5 -11
q-16 0 -31 11t-15 25z" />
    <glyph glyph-name="perthousand" unicode="&#x2030;" horiz-adv-x="645" 
d="M318 183q0 -14 10.5 -24.5t24.5 -10.5q15 0 25 10.5t10 24.5q0 15 -10 25t-25 10q-14 0 -24.5 -10t-10.5 -25zM276 183q0 31 23 54t54 23t54 -23t23 -54t-23 -54t-54 -23t-54 23t-23 54zM494 183q0 -14 10 -24.5t24 -10.5q15 0 25 10.5t10 24.5q0 15 -10 25t-25 10
q-14 0 -24 -10t-10 -25zM452 183q0 32 22.5 54.5t53.5 22.5q32 0 54.5 -23t22.5 -54t-22.5 -54t-54.5 -23q-31 0 -53.5 22.5t-22.5 54.5zM95 471q0 -14 10.5 -24.5t24.5 -10.5t24.5 10.5t10.5 24.5t-10.5 24.5t-24.5 10.5t-24.5 -10.5t-10.5 -24.5zM52 471q0 32 23 54.5
t55 22.5q31 0 53.5 -22.5t22.5 -54.5t-22.5 -54.5t-53.5 -22.5q-32 0 -55 22.5t-23 54.5zM422 528q7 0 13.5 -6t6.5 -14t-11 -21l-350 -350q-11 -11 -21 -11q-7 0 -13.5 6t-6.5 14q0 10 11 21l350 350q13 11 21 11z" />
    <glyph glyph-name="guilsinglleft" unicode="&#x2039;" horiz-adv-x="362" 
d="M285 178q13 -13 13 -28t-15 -15q-14 0 -20 6l-182 169q-16 14 -16 23q0 7 16 21l182 169q5 5 20 5t15 -14t-13 -28l-158 -153z" />
    <glyph glyph-name="guilsinglright" unicode="&#x203a;" horiz-adv-x="362" 
d="M78 178l158 155l-158 153q-13 14 -13 28t15 14q14 0 19 -5l183 -169q16 -14 16 -21q0 -9 -16 -23l-183 -169q-6 -6 -19 -6q-15 0 -15 15t13 28z" />
    <glyph glyph-name="Euro" unicode="&#x20ac;" 
d="M434 636q31 0 51.5 -9t29 -26t11.5 -33t3 -39q0 -30 -21 -30t-21 28q0 36 -13 51.5t-47 15.5h-56q-86 0 -133.5 -47.5t-47.5 -137.5v-10h199q29 0 29 -22q0 -21 -29 -21h-199v-75h199q29 0 29 -23q0 -20 -29 -20h-199v-11q0 -90 47.5 -137.5t133.5 -47.5h56q34 0 47 15
t13 52q0 28 21 28t21 -31q0 -22 -3 -38t-11.5 -33t-29 -26t-51.5 -9h-63q-99 0 -161 59t-62 168v11h-36q-27 0 -27 22q0 21 27 21h36v75h-36q-27 0 -27 23q0 20 27 20h36v10q0 109 62 168t161 59h63z" />
    <glyph glyph-name="trademark" unicode="&#x2122;" horiz-adv-x="616" 
d="M427 407q-7 0 -12 6l-81 186v-163q0 -29 -21 -29t-21 29v218q0 31 22 31q18 0 26 -17l87 -192l87 193q7 16 26 16q22 0 22 -31v-217q0 -30 -21 -30t-21 30v162l-81 -186q-2 -6 -12 -6zM230 678q28 0 28 -22q0 -20 -28 -20h-53v-202q0 -27 -21 -27t-21 27v202h-53
q-28 0 -28 21t28 21h148z" />
    <glyph glyph-name="threekayahli" unicode="&#xa903;" 
d="M529 180v-74q0 -57 -21.5 -81.5t-72.5 -24.5h-255q-55 0 -75 27t-20 97v17l402 201v12q0 35 -13 50t-47 15h-240q-34 0 -47 -15t-13 -50v-21h70q30 0 30 -22q0 -20 -30 -20h-112v46q0 70 20 97t75 27h254q55 0 75 -27t20 -97v-20l-402 -200v-11q0 -35 13 -49.5t47 -14.5
h42q92 138 175 138h125zM487 138h-83q-46 0 -121 -96h144q33 0 46.5 13.5t13.5 39.5v43z" />
    <glyph glyph-name="fourkayahli" unicode="&#xa904;" 
d="M487 -98v452q0 35 -13 50t-47 15h-134q-80 0 -123 -48.5t-43 -138.5v-190h60q31 0 31 -22q0 -20 -31 -20h-102v438q0 30 21 30t21 -30v-49q56 72 166 72h141q55 0 75 -27t20 -97v-418q0 -77 -25 -100.5t-77 -23.5q-31 0 -31 21t31 21q34 0 47 15t13 50z" />
    <glyph glyph-name="pakayahli" unicode="&#xa915;" 
d="M434 0h-254q-55 0 -75 27t-20 97v213q0 70 20 97t75 27h254q55 0 75 -27t20 -97v-20l-402 -200v-11q0 -35 13 -49.5t47 -14.5h240q34 0 47 14.5t13 49.5v42h-81q-31 0 -31 20q0 22 31 22h123v-66q0 -70 -20 -97t-75 -27zM127 162l360 180v12q0 35 -13 50t-47 15h-240
q-34 0 -47 -15t-13 -50v-192z" />
    <glyph glyph-name="phakayahli" unicode="&#xa916;" 
d="M416 636h-229q-34 0 -47 -15t-13 -50v-110h307q55 0 75 -27t20 -97v-295h12q31 0 31 -20q0 -22 -31 -22h-54v354q0 35 -13 50t-47 15h-300v-313q0 -35 13 -49.5t47 -14.5q31 0 31 -20q0 -22 -31 -22q-52 0 -77 23.5t-25 100.5v430q0 70 20 97t75 27h243q49 0 67.5 -24.5
t18.5 -88.5v-26h-114q-26 0 -26 21t26 21h72q0 32 -10 43.5t-41 11.5z" />
    <glyph glyph-name="makayahli" unicode="&#xa917;" 
d="M466 50q21 14 21 58v244q0 36 -13 51.5t-47 15.5h-21q-31 0 -31 21t31 21h28q55 0 75 -27t20 -97v-213q0 -70 -20 -97t-75 -27h-254q-55 0 -75 27t-20 97v213q0 70 20 97t75 27h29q31 0 31 -21t-31 -21h-22q-34 0 -47 -15.5t-13 -51.5v-244q0 -45 21 -58l159 178zM189 42
h236l-118 132z" />
    <glyph glyph-name="dakayahli" unicode="&#xa918;" 
d="M229 42q93 140 175 140q64 0 94.5 -20.5t30.5 -68.5q0 -93 -94 -93h-255q-55 0 -75 27t-20 97v44q0 70 20 96t75 26h307v64q0 35 -13 50t-47 15h-240q-34 0 -47 -15t-13 -50q0 -30 -22 -30q-20 0 -20 30q0 58 22 82.5t73 24.5h254q55 0 75 -27t20 -97v-89h-342
q-34 0 -47 -14t-13 -49v-79q0 -35 13 -49.5t47 -14.5h42zM283 42h144q33 0 46.5 13.5t13.5 39.5q0 45 -83 45q-44 0 -121 -98z" />
    <glyph glyph-name="bakayahli" unicode="&#xa919;" 
d="M127 23q0 -30 -22 -30q-20 0 -20 30v415q0 30 21 30t21 -30v-242l199 265h108q55 0 75 -27t20 -97v-225q0 -71 -20 -97.5t-75 -26.5q-43 0 -66.5 27.5t-23.5 72.5q0 34 26 60t64 26h53v180q0 35 -13 50t-47 15h-86l-214 -287v-109zM487 132h-53q-19 0 -33.5 -14
t-14.5 -30q0 -27 13.5 -42.5t34.5 -15.5q53 0 53 64v38z" />
    <glyph glyph-name="rakayahli" unicode="&#xa91a;" 
d="M487 -98v452q0 35 -13 50t-47 15h-134q-80 0 -123 -48.5t-43 -138.5v-190h60q31 0 31 -22q0 -20 -31 -20h-102v438q0 30 21 30t21 -30v-49q56 72 166 72h141q55 0 75 -27t20 -97v-418q0 -77 -25 -100.5t-77 -23.5q-31 0 -31 21t31 21q34 0 47 15t13 50z" />
  </font>
</defs>
</svg>
