<?xml version="1.0" encoding="UTF-8" standalone="no"?>
<svg width="1024px" height="1024px" viewBox="0 0 1024 1024" version="1.1" xmlns="http://www.w3.org/2000/svg" xmlns:xlink="http://www.w3.org/1999/xlink" xmlns:sketch="http://www.bohemiancoding.com/sketch/ns">
    <!-- Generator: Sketch 3.3.3 (12072) - http://www.bohemiancoding.com/sketch -->
    <title>icon-encryptr</title>
    <desc>Created with Sketch.</desc>
    <defs>
        <linearGradient x1="10.5695834%" y1="1.30053738%" x2="63.8883649%" y2="102.506786%" id="linearGradient-1">
            <stop stop-color="#F8F8F8" offset="0%"></stop>
            <stop stop-color="#F6F6F6" offset="95.44603%"></stop>
        </linearGradient>
        <filter x="-50%" y="-50%" width="200%" height="200%" filterUnits="objectBoundingBox" id="filter-2">
            <feOffset dx="0" dy="8" in="SourceAlpha" result="shadowOffsetOuter1"></feOffset>
            <feGaussianBlur stdDeviation="10" in="shadowOffsetOuter1" result="shadowBlurOuter1"></feGaussianBlur>
            <feColorMatrix values="0 0 0 0 0   0 0 0 0 0   0 0 0 0 0  0 0 0 0.137075408 0" in="shadowBlurOuter1" type="matrix" result="shadowMatrixOuter1"></feColorMatrix>
            <feMerge>
                <feMergeNode in="shadowMatrixOuter1"></feMergeNode>
                <feMergeNode in="SourceGraphic"></feMergeNode>
            </feMerge>
        </filter>
        <rect id="path-3" x="0" y="0" width="682" height="841"></rect>
        <linearGradient x1="15.9737166%" y1="13.7932309%" x2="77.8903643%" y2="85.7422183%" id="linearGradient-5">
            <stop stop-color="#C21E5A" offset="0%"></stop>
            <stop stop-color="#FF277E" offset="100%"></stop>
        </linearGradient>
        <linearGradient x1="71.5206008%" y1="79.2294812%" x2="1.51853656%" y2="1.29862346%" id="linearGradient-6">
            <stop stop-color="#C31E5A" offset="0%"></stop>
            <stop stop-color="#FF277E" offset="100%"></stop>
        </linearGradient>
        <filter x="-50%" y="-50%" width="200%" height="200%" filterUnits="objectBoundingBox" id="filter-7">
            <feOffset dx="0" dy="17" in="SourceAlpha" result="shadowOffsetOuter1"></feOffset>
            <feGaussianBlur stdDeviation="17.5" in="shadowOffsetOuter1" result="shadowBlurOuter1"></feGaussianBlur>
            <feColorMatrix values="0 0 0 0 0   0 0 0 0 0   0 0 0 0 0  0 0 0 0.209080616 0" in="shadowBlurOuter1" type="matrix" result="shadowMatrixOuter1"></feColorMatrix>
            <feMerge>
                <feMergeNode in="shadowMatrixOuter1"></feMergeNode>
                <feMergeNode in="SourceGraphic"></feMergeNode>
            </feMerge>
        </filter>
    </defs>
    <g id="Icon-Templates" stroke="none" stroke-width="1" fill="none" fill-rule="evenodd" sketch:type="MSPage">
        <g id="icon-encryptr" sketch:type="MSArtboardGroup">
            <g id="Group" sketch:type="MSLayerGroup" transform="translate(158.000000, 85.000000)">
                <rect id="Icon-Shape-(Rect)" stroke="#FFFFFF" stroke-width="6" fill="url(#linearGradient-1)" filter="url(#filter-2)" sketch:type="MSShapeGroup" x="0" y="0" width="682" height="841"></rect>
                <g>
                    <mask id="mask-4" sketch:name="Mask" fill="white">
                        <use xlink:href="#path-3"></use>
                    </mask>
                    <use id="Mask" sketch:type="MSShapeGroup" xlink:href="#path-3"></use>
                    <g mask="url(#mask-4)">
                        <g transform="translate(0.006156, 2.078217)">
                            <g id="Group" stroke-width="1" fill-rule="evenodd" sketch:type="MSLayerGroup" transform="translate(0.000000, 0.000000)" stroke-linecap="round" stroke-linejoin="round">
                                <g id="Imported-Layers-Copy" transform="translate(0.000000, 1.000000)" stroke="#EBEBEB" sketch:type="MSShapeGroup">
                                    <path d="M339.921877,427.272304 L339.921877,512.422715 L254.941408,512.422715 L339.921877,427.272304 L339.921877,427.272304 Z M84.9804693,427.272304 L84.9804693,512.422715 L0,512.422715 L84.9804693,427.272304 L84.9804693,427.272304 Z M169.960939,427.272304 L169.960939,512.422715 L84.9804693,512.422715 L169.960939,427.272304 L169.960939,427.272304 Z M254.941408,427.272304 L254.941408,512.422715 L169.960939,512.422715 L254.941408,427.272304 L254.941408,427.272304 Z" id="Stroke-1"></path>
                                    <path d="M339.921877,427.272304 L339.921877,512.422715 L254.941408,512.422715 L339.921877,427.272304 L339.921877,427.272304 Z M84.9804693,427.272304 L84.9804693,512.422715 L0,512.422715 L84.9804693,427.272304 L84.9804693,427.272304 Z M169.960939,427.272304 L169.960939,512.422715 L84.9804693,512.422715 L169.960939,427.272304 L169.960939,427.272304 Z M254.941408,427.272304 L254.941408,512.422715 L169.960939,512.422715 L254.941408,427.272304 L254.941408,427.272304 Z" id="Stroke-1-Copy"></path>
                                    <path d="M339.921877,427.272304 L339.921877,512.422715 L254.941408,512.422715 L339.921877,427.272304 L339.921877,427.272304 Z M84.9804693,427.272304 L84.9804693,512.422715 L0,512.422715 L84.9804693,427.272304 L84.9804693,427.272304 Z M169.960939,427.272304 L169.960939,512.422715 L84.9804693,512.422715 L169.960939,427.272304 L169.960939,427.272304 Z M254.941408,427.272304 L254.941408,512.422715 L169.960939,512.422715 L254.941408,427.272304 L254.941408,427.272304 Z" id="Stroke-1-Copy-3"></path>
                                    <path d="M339.921877,427.272304 L339.921877,512.422715 L254.941408,512.422715 L339.921877,427.272304 L339.921877,427.272304 Z M84.9804693,427.272304 L84.9804693,512.422715 L0,512.422715 L84.9804693,427.272304 L84.9804693,427.272304 Z M169.960939,427.272304 L169.960939,512.422715 L84.9804693,512.422715 L169.960939,427.272304 L169.960939,427.272304 Z M254.941408,427.272304 L254.941408,512.422715 L169.960939,512.422715 L254.941408,427.272304 L254.941408,427.272304 Z" id="Stroke-1-Copy-2"></path>
                                    <path d="M0,427.272304 L0,512.422715 L84.9804693,512.422715 L0,427.272304 L0,427.272304 Z M254.941408,427.272304 L254.941408,512.422715 L339.921877,512.422715 L254.941408,427.272304 L254.941408,427.272304 Z M169.960939,427.272304 L169.960939,512.422715 L254.941408,512.422715 L169.960939,427.272304 L169.960939,427.272304 Z M84.9804693,427.272304 L84.9804693,512.422715 L169.960939,512.422715 L84.9804693,427.272304 L84.9804693,427.272304 Z" id="Stroke-2"></path>
                                    <path d="M339.921877,509.76931 L339.921877,594.919721 L254.941408,594.919721 L339.921877,509.76931 L339.921877,509.76931 Z M84.9804693,509.76931 L84.9804693,594.919721 L0,594.919721 L84.9804693,509.76931 L84.9804693,509.76931 Z M169.960939,509.76931 L169.960939,594.919721 L84.9804693,594.919721 L169.960939,509.76931 L169.960939,509.76931 Z M254.941408,509.76931 L254.941408,594.919721 L169.960939,594.919721 L254.941408,509.76931 L254.941408,509.76931 Z" id="Stroke-1-Copy-4"></path>
                                    <path d="M0,509.76931 L0,594.919721 L84.9804693,594.919721 L0,509.76931 L0,509.76931 Z M254.941408,509.76931 L254.941408,594.919721 L339.921877,594.919721 L254.941408,509.76931 L254.941408,509.76931 Z M169.960939,509.76931 L169.960939,594.919721 L254.941408,594.919721 L169.960939,509.76931 L169.960939,509.76931 Z M84.9804693,509.76931 L84.9804693,594.919721 L169.960939,594.919721 L84.9804693,509.76931 L84.9804693,509.76931 Z" id="Stroke-2-Copy"></path>
                                    <path d="M339.921877,0.439968693 L339.921877,85.59038 L254.941408,85.59038 L339.921877,0.439968693 L339.921877,0.439968693 Z M84.9804693,0.439968693 L84.9804693,85.59038 L0,85.59038 L84.9804693,0.439968693 L84.9804693,0.439968693 Z M169.960939,0.439968693 L169.960939,85.59038 L84.9804693,85.59038 L169.960939,0.439968693 L169.960939,0.439968693 Z M254.941408,0.439968693 L254.941408,85.59038 L169.960939,85.59038 L254.941408,0.439968693 L254.941408,0.439968693 Z" id="Stroke-1-Copy-6"></path>
                                    <path d="M0,0.439968693 L0,85.59038 L84.9804693,85.59038 L0,0.439968693 L0,0.439968693 Z M254.941408,0.439968693 L254.941408,85.59038 L339.921877,85.59038 L254.941408,0.439968693 L254.941408,0.439968693 Z M169.960939,0.439968693 L169.960939,85.59038 L254.941408,85.59038 L169.960939,0.439968693 L169.960939,0.439968693 Z M84.9804693,0.439968693 L84.9804693,85.59038 L169.960939,85.59038 L84.9804693,0.439968693 L84.9804693,0.439968693 Z" id="Stroke-2-Copy-3"></path>
                                    <path d="M0,0.439968693 L0,85.59038 L84.9804693,85.59038 L0,0.439968693 L0,0.439968693 Z M254.941408,0.439968693 L254.941408,85.59038 L339.921877,85.59038 L254.941408,0.439968693 L254.941408,0.439968693 Z M169.960939,0.439968693 L169.960939,85.59038 L254.941408,85.59038 L169.960939,0.439968693 L169.960939,0.439968693 Z M84.9804693,0.439968693 L84.9804693,85.59038 L169.960939,85.59038 L84.9804693,0.439968693 L84.9804693,0.439968693 Z" id="Stroke-2-Copy-4" transform="translate(169.960939, 43.015174) scale(1, -1) translate(-169.960939, -43.015174) "></path>
                                    <path d="M339.921877,342.121893 L339.921877,427.272304 L254.941408,427.272304 L339.921877,342.121893 L339.921877,342.121893 Z M84.9804693,342.121893 L84.9804693,427.272304 L0,427.272304 L84.9804693,342.121893 L84.9804693,342.121893 Z M169.960939,342.121893 L169.960939,427.272304 L84.9804693,427.272304 L169.960939,342.121893 L169.960939,342.121893 Z M254.941408,342.121893 L254.941408,427.272304 L169.960939,427.272304 L254.941408,342.121893 L254.941408,342.121893 Z" id="Stroke-3"></path>
                                    <path d="M0,342.121893 L0,427.272304 L84.9804693,427.272304 L0,342.121893 L0,342.121893 Z M254.941408,342.121893 L254.941408,427.272304 L339.921877,427.272304 L254.941408,342.121893 L254.941408,342.121893 Z M169.960939,342.121893 L169.960939,427.272304 L254.941408,427.272304 L169.960939,342.121893 L169.960939,342.121893 Z M84.9804693,342.121893 L84.9804693,427.272304 L169.960939,427.272304 L84.9804693,342.121893 L84.9804693,342.121893 Z" id="Stroke-4"></path>
                                    <path d="M339.921877,256.971481 L339.921877,342.121893 L254.941408,342.121893 L339.921877,256.971481 L339.921877,256.971481 Z M84.9804693,256.971481 L84.9804693,342.121893 L0,342.121893 L84.9804693,256.971481 L84.9804693,256.971481 Z M169.960939,256.971481 L169.960939,342.121893 L84.9804693,342.121893 L169.960939,256.971481 L169.960939,256.971481 Z M254.941408,256.971481 L254.941408,342.121893 L169.960939,342.121893 L254.941408,256.971481 L254.941408,256.971481 Z" id="Stroke-5"></path>
                                    <path d="M0,256.971481 L0,342.121893 L84.9804693,342.121893 L0,256.971481 L0,256.971481 Z M254.941408,256.971481 L254.941408,342.121893 L339.921877,342.121893 L254.941408,256.971481 L254.941408,256.971481 Z M169.960939,256.971481 L169.960939,342.121893 L254.941408,342.121893 L169.960939,256.971481 L169.960939,256.971481 Z M84.9804693,256.971481 L84.9804693,342.121893 L169.960939,342.121893 L84.9804693,256.971481 L84.9804693,256.971481 Z" id="Stroke-6"></path>
                                    <path d="M339.921877,171.82107 L339.921877,256.971481 L254.941408,256.971481 L339.921877,171.82107 L339.921877,171.82107 Z M84.9804693,171.82107 L84.9804693,256.971481 L0,256.971481 L84.9804693,171.82107 L84.9804693,171.82107 Z M169.960939,171.82107 L169.960939,256.971481 L84.9804693,256.971481 L169.960939,171.82107 L169.960939,171.82107 Z M254.941408,171.82107 L254.941408,256.971481 L169.960939,256.971481 L254.941408,171.82107 L254.941408,171.82107 Z" id="Stroke-7"></path>
                                    <path d="M0,171.82107 L0,256.971481 L84.9804693,256.971481 L0,171.82107 L0,171.82107 Z M254.941408,171.82107 L254.941408,256.971481 L339.921877,256.971481 L254.941408,171.82107 L254.941408,171.82107 Z M169.960939,171.82107 L169.960939,256.971481 L254.941408,256.971481 L169.960939,171.82107 L169.960939,171.82107 Z M84.9804693,171.82107 L84.9804693,256.971481 L169.960939,256.971481 L84.9804693,171.82107 L84.9804693,171.82107 Z" id="Stroke-8"></path>
                                    <path d="M339.921877,86.6706587 L339.921877,171.82107 L254.941408,171.82107 L339.921877,86.6706587 L339.921877,86.6706587 Z M84.9804693,86.6706587 L84.9804693,171.82107 L0,171.82107 L84.9804693,86.6706587 L84.9804693,86.6706587 Z M169.960939,86.6706587 L169.960939,171.82107 L84.9804693,171.82107 L169.960939,86.6706587 L169.960939,86.6706587 Z M254.941408,86.6706587 L254.941408,171.82107 L169.960939,171.82107 L254.941408,86.6706587 L254.941408,86.6706587 Z" id="Stroke-9"></path>
                                    <path d="M0,86.6706587 L0,171.82107 L84.9804693,171.82107 L0,86.6706587 L0,86.6706587 Z M254.941408,86.6706587 L254.941408,171.82107 L339.921877,171.82107 L254.941408,86.6706587 L254.941408,86.6706587 Z M169.960939,86.6706587 L169.960939,171.82107 L254.941408,171.82107 L169.960939,86.6706587 L169.960939,86.6706587 Z M84.9804693,86.6706587 L84.9804693,171.82107 L169.960939,171.82107 L84.9804693,86.6706587 L84.9804693,86.6706587 Z" id="Stroke-10"></path>
                                </g>
                                <g id="Imported-Layers-Copy-2" transform="translate(0.000000, 596.000000)" stroke="#EBEBEB" sketch:type="MSShapeGroup">
                                    <path d="M339.921877,0.439968693 L339.921877,85.59038 L254.941408,85.59038 L339.921877,0.439968693 L339.921877,0.439968693 Z M84.9804693,0.439968693 L84.9804693,85.59038 L0,85.59038 L84.9804693,0.439968693 L84.9804693,0.439968693 Z M169.960939,0.439968693 L169.960939,85.59038 L84.9804693,85.59038 L169.960939,0.439968693 L169.960939,0.439968693 Z M254.941408,0.439968693 L254.941408,85.59038 L169.960939,85.59038 L254.941408,0.439968693 L254.941408,0.439968693 Z" id="Stroke-1-Copy-6"></path>
                                    <path d="M0,0.439968693 L0,85.59038 L84.9804693,85.59038 L0,0.439968693 L0,0.439968693 Z M254.941408,0.439968693 L254.941408,85.59038 L339.921877,85.59038 L254.941408,0.439968693 L254.941408,0.439968693 Z M169.960939,0.439968693 L169.960939,85.59038 L254.941408,85.59038 L169.960939,0.439968693 L169.960939,0.439968693 Z M84.9804693,0.439968693 L84.9804693,85.59038 L169.960939,85.59038 L84.9804693,0.439968693 L84.9804693,0.439968693 Z" id="Stroke-2-Copy-3"></path>
                                    <path d="M0,0.439968693 L0,85.59038 L84.9804693,85.59038 L0,0.439968693 L0,0.439968693 Z M254.941408,0.439968693 L254.941408,85.59038 L339.921877,85.59038 L254.941408,0.439968693 L254.941408,0.439968693 Z M169.960939,0.439968693 L169.960939,85.59038 L254.941408,85.59038 L169.960939,0.439968693 L169.960939,0.439968693 Z M84.9804693,0.439968693 L84.9804693,85.59038 L169.960939,85.59038 L84.9804693,0.439968693 L84.9804693,0.439968693 Z" id="Stroke-2-Copy-4" transform="translate(169.960939, 43.015174) scale(1, -1) translate(-169.960939, -43.015174) "></path>
                                    <path d="M339.921877,256.971481 L339.921877,342.121893 L254.941408,342.121893 L339.921877,256.971481 L339.921877,256.971481 Z M84.9804693,256.971481 L84.9804693,342.121893 L0,342.121893 L84.9804693,256.971481 L84.9804693,256.971481 Z M169.960939,256.971481 L169.960939,342.121893 L84.9804693,342.121893 L169.960939,256.971481 L169.960939,256.971481 Z M254.941408,256.971481 L254.941408,342.121893 L169.960939,342.121893 L254.941408,256.971481 L254.941408,256.971481 Z" id="Stroke-5"></path>
                                    <path d="M0,256.971481 L0,342.121893 L84.9804693,342.121893 L0,256.971481 L0,256.971481 Z M254.941408,256.971481 L254.941408,342.121893 L339.921877,342.121893 L254.941408,256.971481 L254.941408,256.971481 Z M169.960939,256.971481 L169.960939,342.121893 L254.941408,342.121893 L169.960939,256.971481 L169.960939,256.971481 Z M84.9804693,256.971481 L84.9804693,342.121893 L169.960939,342.121893 L84.9804693,256.971481 L84.9804693,256.971481 Z" id="Stroke-6"></path>
                                    <path d="M339.921877,171.82107 L339.921877,256.971481 L254.941408,256.971481 L339.921877,171.82107 L339.921877,171.82107 Z M84.9804693,171.82107 L84.9804693,256.971481 L0,256.971481 L84.9804693,171.82107 L84.9804693,171.82107 Z M169.960939,171.82107 L169.960939,256.971481 L84.9804693,256.971481 L169.960939,171.82107 L169.960939,171.82107 Z M254.941408,171.82107 L254.941408,256.971481 L169.960939,256.971481 L254.941408,171.82107 L254.941408,171.82107 Z" id="Stroke-7"></path>
                                    <path d="M0,171.82107 L0,256.971481 L84.9804693,256.971481 L0,171.82107 L0,171.82107 Z M254.941408,171.82107 L254.941408,256.971481 L339.921877,256.971481 L254.941408,171.82107 L254.941408,171.82107 Z M169.960939,171.82107 L169.960939,256.971481 L254.941408,256.971481 L169.960939,171.82107 L169.960939,171.82107 Z M84.9804693,171.82107 L84.9804693,256.971481 L169.960939,256.971481 L84.9804693,171.82107 L84.9804693,171.82107 Z" id="Stroke-8"></path>
                                    <path d="M339.921877,86.6706587 L339.921877,171.82107 L254.941408,171.82107 L339.921877,86.6706587 L339.921877,86.6706587 Z M84.9804693,86.6706587 L84.9804693,171.82107 L0,171.82107 L84.9804693,86.6706587 L84.9804693,86.6706587 Z M169.960939,86.6706587 L169.960939,171.82107 L84.9804693,171.82107 L169.960939,86.6706587 L169.960939,86.6706587 Z M254.941408,86.6706587 L254.941408,171.82107 L169.960939,171.82107 L254.941408,86.6706587 L254.941408,86.6706587 Z" id="Stroke-9"></path>
                                    <path d="M0,86.6706587 L0,171.82107 L84.9804693,171.82107 L0,86.6706587 L0,86.6706587 Z M254.941408,86.6706587 L254.941408,171.82107 L339.921877,171.82107 L254.941408,86.6706587 L254.941408,86.6706587 Z M169.960939,86.6706587 L169.960939,171.82107 L254.941408,171.82107 L169.960939,86.6706587 L169.960939,86.6706587 Z M84.9804693,86.6706587 L84.9804693,171.82107 L169.960939,171.82107 L84.9804693,86.6706587 L84.9804693,86.6706587 Z" id="Stroke-10"></path>
                                </g>
                                <g id="Imported-Layers-Copy-3" transform="translate(340.000000, 1.000000)" stroke="#EBEBEB" sketch:type="MSShapeGroup">
                                    <path d="M339.921877,427.272304 L339.921877,512.422715 L254.941408,512.422715 L339.921877,427.272304 L339.921877,427.272304 Z M84.9804693,427.272304 L84.9804693,512.422715 L0,512.422715 L84.9804693,427.272304 L84.9804693,427.272304 Z M169.960939,427.272304 L169.960939,512.422715 L84.9804693,512.422715 L169.960939,427.272304 L169.960939,427.272304 Z M254.941408,427.272304 L254.941408,512.422715 L169.960939,512.422715 L254.941408,427.272304 L254.941408,427.272304 Z" id="Stroke-1"></path>
                                    <path d="M339.921877,427.272304 L339.921877,512.422715 L254.941408,512.422715 L339.921877,427.272304 L339.921877,427.272304 Z M84.9804693,427.272304 L84.9804693,512.422715 L0,512.422715 L84.9804693,427.272304 L84.9804693,427.272304 Z M169.960939,427.272304 L169.960939,512.422715 L84.9804693,512.422715 L169.960939,427.272304 L169.960939,427.272304 Z M254.941408,427.272304 L254.941408,512.422715 L169.960939,512.422715 L254.941408,427.272304 L254.941408,427.272304 Z" id="Stroke-1-Copy"></path>
                                    <path d="M339.921877,427.272304 L339.921877,512.422715 L254.941408,512.422715 L339.921877,427.272304 L339.921877,427.272304 Z M84.9804693,427.272304 L84.9804693,512.422715 L0,512.422715 L84.9804693,427.272304 L84.9804693,427.272304 Z M169.960939,427.272304 L169.960939,512.422715 L84.9804693,512.422715 L169.960939,427.272304 L169.960939,427.272304 Z M254.941408,427.272304 L254.941408,512.422715 L169.960939,512.422715 L254.941408,427.272304 L254.941408,427.272304 Z" id="Stroke-1-Copy-3"></path>
                                    <path d="M339.921877,427.272304 L339.921877,512.422715 L254.941408,512.422715 L339.921877,427.272304 L339.921877,427.272304 Z M84.9804693,427.272304 L84.9804693,512.422715 L0,512.422715 L84.9804693,427.272304 L84.9804693,427.272304 Z M169.960939,427.272304 L169.960939,512.422715 L84.9804693,512.422715 L169.960939,427.272304 L169.960939,427.272304 Z M254.941408,427.272304 L254.941408,512.422715 L169.960939,512.422715 L254.941408,427.272304 L254.941408,427.272304 Z" id="Stroke-1-Copy-2"></path>
                                    <path d="M0,427.272304 L0,512.422715 L84.9804693,512.422715 L0,427.272304 L0,427.272304 Z M254.941408,427.272304 L254.941408,512.422715 L339.921877,512.422715 L254.941408,427.272304 L254.941408,427.272304 Z M169.960939,427.272304 L169.960939,512.422715 L254.941408,512.422715 L169.960939,427.272304 L169.960939,427.272304 Z M84.9804693,427.272304 L84.9804693,512.422715 L169.960939,512.422715 L84.9804693,427.272304 L84.9804693,427.272304 Z" id="Stroke-2"></path>
                                    <path d="M339.921877,509.76931 L339.921877,594.919721 L254.941408,594.919721 L339.921877,509.76931 L339.921877,509.76931 Z M84.9804693,509.76931 L84.9804693,594.919721 L0,594.919721 L84.9804693,509.76931 L84.9804693,509.76931 Z M169.960939,509.76931 L169.960939,594.919721 L84.9804693,594.919721 L169.960939,509.76931 L169.960939,509.76931 Z M254.941408,509.76931 L254.941408,594.919721 L169.960939,594.919721 L254.941408,509.76931 L254.941408,509.76931 Z" id="Stroke-1-Copy-4"></path>
                                    <path d="M0,509.76931 L0,594.919721 L84.9804693,594.919721 L0,509.76931 L0,509.76931 Z M254.941408,509.76931 L254.941408,594.919721 L339.921877,594.919721 L254.941408,509.76931 L254.941408,509.76931 Z M169.960939,509.76931 L169.960939,594.919721 L254.941408,594.919721 L169.960939,509.76931 L169.960939,509.76931 Z M84.9804693,509.76931 L84.9804693,594.919721 L169.960939,594.919721 L84.9804693,509.76931 L84.9804693,509.76931 Z" id="Stroke-2-Copy"></path>
                                    <path d="M339.921877,0.439968693 L339.921877,85.59038 L254.941408,85.59038 L339.921877,0.439968693 L339.921877,0.439968693 Z M84.9804693,0.439968693 L84.9804693,85.59038 L0,85.59038 L84.9804693,0.439968693 L84.9804693,0.439968693 Z M169.960939,0.439968693 L169.960939,85.59038 L84.9804693,85.59038 L169.960939,0.439968693 L169.960939,0.439968693 Z M254.941408,0.439968693 L254.941408,85.59038 L169.960939,85.59038 L254.941408,0.439968693 L254.941408,0.439968693 Z" id="Stroke-1-Copy-6"></path>
                                    <path d="M0,0.439968693 L0,85.59038 L84.9804693,85.59038 L0,0.439968693 L0,0.439968693 Z M254.941408,0.439968693 L254.941408,85.59038 L339.921877,85.59038 L254.941408,0.439968693 L254.941408,0.439968693 Z M169.960939,0.439968693 L169.960939,85.59038 L254.941408,85.59038 L169.960939,0.439968693 L169.960939,0.439968693 Z M84.9804693,0.439968693 L84.9804693,85.59038 L169.960939,85.59038 L84.9804693,0.439968693 L84.9804693,0.439968693 Z" id="Stroke-2-Copy-3"></path>
                                    <path d="M0,0.439968693 L0,85.59038 L84.9804693,85.59038 L0,0.439968693 L0,0.439968693 Z M254.941408,0.439968693 L254.941408,85.59038 L339.921877,85.59038 L254.941408,0.439968693 L254.941408,0.439968693 Z M169.960939,0.439968693 L169.960939,85.59038 L254.941408,85.59038 L169.960939,0.439968693 L169.960939,0.439968693 Z M84.9804693,0.439968693 L84.9804693,85.59038 L169.960939,85.59038 L84.9804693,0.439968693 L84.9804693,0.439968693 Z" id="Stroke-2-Copy-4" transform="translate(169.960939, 43.015174) scale(1, -1) translate(-169.960939, -43.015174) "></path>
                                    <path d="M339.921877,342.121893 L339.921877,427.272304 L254.941408,427.272304 L339.921877,342.121893 L339.921877,342.121893 Z M84.9804693,342.121893 L84.9804693,427.272304 L0,427.272304 L84.9804693,342.121893 L84.9804693,342.121893 Z M169.960939,342.121893 L169.960939,427.272304 L84.9804693,427.272304 L169.960939,342.121893 L169.960939,342.121893 Z M254.941408,342.121893 L254.941408,427.272304 L169.960939,427.272304 L254.941408,342.121893 L254.941408,342.121893 Z" id="Stroke-3"></path>
                                    <path d="M0,342.121893 L0,427.272304 L84.9804693,427.272304 L0,342.121893 L0,342.121893 Z M254.941408,342.121893 L254.941408,427.272304 L339.921877,427.272304 L254.941408,342.121893 L254.941408,342.121893 Z M169.960939,342.121893 L169.960939,427.272304 L254.941408,427.272304 L169.960939,342.121893 L169.960939,342.121893 Z M84.9804693,342.121893 L84.9804693,427.272304 L169.960939,427.272304 L84.9804693,342.121893 L84.9804693,342.121893 Z" id="Stroke-4"></path>
                                    <path d="M339.921877,256.971481 L339.921877,342.121893 L254.941408,342.121893 L339.921877,256.971481 L339.921877,256.971481 Z M84.9804693,256.971481 L84.9804693,342.121893 L0,342.121893 L84.9804693,256.971481 L84.9804693,256.971481 Z M169.960939,256.971481 L169.960939,342.121893 L84.9804693,342.121893 L169.960939,256.971481 L169.960939,256.971481 Z M254.941408,256.971481 L254.941408,342.121893 L169.960939,342.121893 L254.941408,256.971481 L254.941408,256.971481 Z" id="Stroke-5"></path>
                                    <path d="M0,256.971481 L0,342.121893 L84.9804693,342.121893 L0,256.971481 L0,256.971481 Z M254.941408,256.971481 L254.941408,342.121893 L339.921877,342.121893 L254.941408,256.971481 L254.941408,256.971481 Z M169.960939,256.971481 L169.960939,342.121893 L254.941408,342.121893 L169.960939,256.971481 L169.960939,256.971481 Z M84.9804693,256.971481 L84.9804693,342.121893 L169.960939,342.121893 L84.9804693,256.971481 L84.9804693,256.971481 Z" id="Stroke-6"></path>
                                    <path d="M339.921877,171.82107 L339.921877,256.971481 L254.941408,256.971481 L339.921877,171.82107 L339.921877,171.82107 Z M84.9804693,171.82107 L84.9804693,256.971481 L0,256.971481 L84.9804693,171.82107 L84.9804693,171.82107 Z M169.960939,171.82107 L169.960939,256.971481 L84.9804693,256.971481 L169.960939,171.82107 L169.960939,171.82107 Z M254.941408,171.82107 L254.941408,256.971481 L169.960939,256.971481 L254.941408,171.82107 L254.941408,171.82107 Z" id="Stroke-7"></path>
                                    <path d="M0,171.82107 L0,256.971481 L84.9804693,256.971481 L0,171.82107 L0,171.82107 Z M254.941408,171.82107 L254.941408,256.971481 L339.921877,256.971481 L254.941408,171.82107 L254.941408,171.82107 Z M169.960939,171.82107 L169.960939,256.971481 L254.941408,256.971481 L169.960939,171.82107 L169.960939,171.82107 Z M84.9804693,171.82107 L84.9804693,256.971481 L169.960939,256.971481 L84.9804693,171.82107 L84.9804693,171.82107 Z" id="Stroke-8"></path>
                                    <path d="M339.921877,86.6706587 L339.921877,171.82107 L254.941408,171.82107 L339.921877,86.6706587 L339.921877,86.6706587 Z M84.9804693,86.6706587 L84.9804693,171.82107 L0,171.82107 L84.9804693,86.6706587 L84.9804693,86.6706587 Z M169.960939,86.6706587 L169.960939,171.82107 L84.9804693,171.82107 L169.960939,86.6706587 L169.960939,86.6706587 Z M254.941408,86.6706587 L254.941408,171.82107 L169.960939,171.82107 L254.941408,86.6706587 L254.941408,86.6706587 Z" id="Stroke-9"></path>
                                    <path d="M0,86.6706587 L0,171.82107 L84.9804693,171.82107 L0,86.6706587 L0,86.6706587 Z M254.941408,86.6706587 L254.941408,171.82107 L339.921877,171.82107 L254.941408,86.6706587 L254.941408,86.6706587 Z M169.960939,86.6706587 L169.960939,171.82107 L254.941408,171.82107 L169.960939,86.6706587 L169.960939,86.6706587 Z M84.9804693,86.6706587 L84.9804693,171.82107 L169.960939,171.82107 L84.9804693,86.6706587 L84.9804693,86.6706587 Z" id="Stroke-10"></path>
                                </g>
                                <g id="Imported-Layers-Copy-4" transform="translate(340.000000, 597.000000)" stroke="#EBEBEB" sketch:type="MSShapeGroup">
                                    <path d="M339.921877,0.439968693 L339.921877,85.59038 L254.941408,85.59038 L339.921877,0.439968693 L339.921877,0.439968693 Z M84.9804693,0.439968693 L84.9804693,85.59038 L0,85.59038 L84.9804693,0.439968693 L84.9804693,0.439968693 Z M169.960939,0.439968693 L169.960939,85.59038 L84.9804693,85.59038 L169.960939,0.439968693 L169.960939,0.439968693 Z M254.941408,0.439968693 L254.941408,85.59038 L169.960939,85.59038 L254.941408,0.439968693 L254.941408,0.439968693 Z" id="Stroke-1-Copy-6"></path>
                                    <path d="M0,0.439968693 L0,85.59038 L84.9804693,85.59038 L0,0.439968693 L0,0.439968693 Z M254.941408,0.439968693 L254.941408,85.59038 L339.921877,85.59038 L254.941408,0.439968693 L254.941408,0.439968693 Z M169.960939,0.439968693 L169.960939,85.59038 L254.941408,85.59038 L169.960939,0.439968693 L169.960939,0.439968693 Z M84.9804693,0.439968693 L84.9804693,85.59038 L169.960939,85.59038 L84.9804693,0.439968693 L84.9804693,0.439968693 Z" id="Stroke-2-Copy-3"></path>
                                    <path d="M0,0.439968693 L0,85.59038 L84.9804693,85.59038 L0,0.439968693 L0,0.439968693 Z M254.941408,0.439968693 L254.941408,85.59038 L339.921877,85.59038 L254.941408,0.439968693 L254.941408,0.439968693 Z M169.960939,0.439968693 L169.960939,85.59038 L254.941408,85.59038 L169.960939,0.439968693 L169.960939,0.439968693 Z M84.9804693,0.439968693 L84.9804693,85.59038 L169.960939,85.59038 L84.9804693,0.439968693 L84.9804693,0.439968693 Z" id="Stroke-2-Copy-4" transform="translate(169.960939, 43.015174) scale(1, -1) translate(-169.960939, -43.015174) "></path>
                                    <path d="M339.921877,256.971481 L339.921877,342.121893 L254.941408,342.121893 L339.921877,256.971481 L339.921877,256.971481 Z M84.9804693,256.971481 L84.9804693,342.121893 L0,342.121893 L84.9804693,256.971481 L84.9804693,256.971481 Z M169.960939,256.971481 L169.960939,342.121893 L84.9804693,342.121893 L169.960939,256.971481 L169.960939,256.971481 Z M254.941408,256.971481 L254.941408,342.121893 L169.960939,342.121893 L254.941408,256.971481 L254.941408,256.971481 Z" id="Stroke-5"></path>
                                    <path d="M0,256.971481 L0,342.121893 L84.9804693,342.121893 L0,256.971481 L0,256.971481 Z M254.941408,256.971481 L254.941408,342.121893 L339.921877,342.121893 L254.941408,256.971481 L254.941408,256.971481 Z M169.960939,256.971481 L169.960939,342.121893 L254.941408,342.121893 L169.960939,256.971481 L169.960939,256.971481 Z M84.9804693,256.971481 L84.9804693,342.121893 L169.960939,342.121893 L84.9804693,256.971481 L84.9804693,256.971481 Z" id="Stroke-6"></path>
                                    <path d="M339.921877,171.82107 L339.921877,256.971481 L254.941408,256.971481 L339.921877,171.82107 L339.921877,171.82107 Z M84.9804693,171.82107 L84.9804693,256.971481 L0,256.971481 L84.9804693,171.82107 L84.9804693,171.82107 Z M169.960939,171.82107 L169.960939,256.971481 L84.9804693,256.971481 L169.960939,171.82107 L169.960939,171.82107 Z M254.941408,171.82107 L254.941408,256.971481 L169.960939,256.971481 L254.941408,171.82107 L254.941408,171.82107 Z" id="Stroke-7"></path>
                                    <path d="M0,171.82107 L0,256.971481 L84.9804693,256.971481 L0,171.82107 L0,171.82107 Z M254.941408,171.82107 L254.941408,256.971481 L339.921877,256.971481 L254.941408,171.82107 L254.941408,171.82107 Z M169.960939,171.82107 L169.960939,256.971481 L254.941408,256.971481 L169.960939,171.82107 L169.960939,171.82107 Z M84.9804693,171.82107 L84.9804693,256.971481 L169.960939,256.971481 L84.9804693,171.82107 L84.9804693,171.82107 Z" id="Stroke-8"></path>
                                    <path d="M339.921877,86.6706587 L339.921877,171.82107 L254.941408,171.82107 L339.921877,86.6706587 L339.921877,86.6706587 Z M84.9804693,86.6706587 L84.9804693,171.82107 L0,171.82107 L84.9804693,86.6706587 L84.9804693,86.6706587 Z M169.960939,86.6706587 L169.960939,171.82107 L84.9804693,171.82107 L169.960939,86.6706587 L169.960939,86.6706587 Z M254.941408,86.6706587 L254.941408,171.82107 L169.960939,171.82107 L254.941408,86.6706587 L254.941408,86.6706587 Z" id="Stroke-9"></path>
                                    <path d="M0,86.6706587 L0,171.82107 L84.9804693,171.82107 L0,86.6706587 L0,86.6706587 Z M254.941408,86.6706587 L254.941408,171.82107 L339.921877,171.82107 L254.941408,86.6706587 L254.941408,86.6706587 Z M169.960939,86.6706587 L169.960939,171.82107 L254.941408,171.82107 L169.960939,86.6706587 L169.960939,86.6706587 Z M84.9804693,86.6706587 L84.9804693,171.82107 L169.960939,171.82107 L84.9804693,86.6706587 L84.9804693,86.6706587 Z" id="Stroke-10"></path>
                                </g>
                            </g>
                            <text id="PASSWORD" sketch:type="MSTextLayer" font-family="Uni Sans" font-size="46" font-weight="526">
                                <tspan x="90.0231593" y="150.440532" fill="#484848">PASSWORD</tspan>
                            </text>
                            <text id="USERNAME" sketch:type="MSTextLayer" font-family="Uni Sans" font-size="46" font-weight="526">
                                <tspan x="100.699443" y="495.229603" fill="#484848">USERNAME</tspan>
                            </text>
                            <text id="edwin@spidero" sketch:type="MSTextLayer" font-family="Graphik" font-size="66" font-weight="normal" letter-spacing="-0.200000003">
                                <tspan x="100.288411" y="586.678437" fill="#9B9B9B">edwin@spidero</tspan>
                            </text>
                            <g id="Password-Copy" stroke-width="1" fill-rule="evenodd" sketch:type="MSLayerGroup" transform="translate(434.507537, 186.964511)">
                                <g id="Icon-Password" sketch:type="MSShapeGroup">
                                    <path d="M115.985084,74.297676 L148.030002,57.3316654 C149.466306,56.5684524 150.539832,55.2798274 150.99974,53.7349605 C151.465688,52.1193267 151.233648,50.4245587 150.368419,49.0148363 L133.691168,21.8299647 C131.988998,19.0530341 128.350004,18.1130365 125.467997,19.6506794 L93.2910575,36.6826292 L98.822079,39.9804737 L98.822079,5.97894737 C98.822079,2.62873617 96.0287127,0 92.6776524,0 L59.3223476,0 C55.9712873,0 53.177921,2.62873617 53.177921,5.97894737 L53.177921,39.9804737 L58.7089425,36.6826292 L26.5210733,19.6448713 C23.6499961,18.1130365 20.0110015,19.0530341 18.3081127,21.8311379 L1.63117967,49.015491 C0.76635195,50.4245587 0.534312091,52.1193267 0.991218586,53.7041035 C1.45251884,55.2756254 2.53114867,56.5703763 3.97090525,57.3321458 L36.0124306,74.2976217 L36.0126127,67.7022819 L3.97007732,84.6660503 C2.53229387,85.4267756 1.45420666,86.7224458 0.997359063,88.2725899 C0.533952511,89.8796784 0.766454612,91.5794554 1.63535082,92.9890499 L18.3088321,120.167793 C20.0116588,122.945796 23.6538103,123.888358 26.5370941,122.344357 L58.7091238,105.312791 L53.177921,102.015042 L53.177921,136.021053 C53.177921,139.369186 55.9715645,142 59.3223476,142 L92.6776524,142 C96.0284355,142 98.822079,139.369186 98.822079,136.021053 L98.822079,102.019526 L93.2912388,105.317467 L125.479108,122.352983 C128.34619,123.888358 131.988341,122.945796 133.691887,120.16662 L150.36882,92.9822669 C151.233545,91.5794554 151.466047,89.8796784 151.008781,88.2936544 C150.538121,86.7182103 149.465154,85.4286938 148.035024,84.6687563 L115.984902,67.7022276 L115.985084,74.297676 L115.985084,74.297676 Z" id="OuterStroke" fill="#C31E5A"></path>
                                    <path d="M114.215649,71 L146.260567,54.0339895 C146.813312,53.7402737 147.220723,53.2514947 147.392265,52.6752737 C147.559042,52.0968105 147.475653,51.4802316 147.156395,50.9600632 L130.478743,23.7745368 C129.825932,22.7095368 128.386889,22.3351053 127.248043,22.9427158 L95.0601742,39.9804737 L95.0601742,5.97894737 C95.0601742,4.73906316 93.995187,3.73684211 92.6776524,3.73684211 L59.3223476,3.73684211 C58.004813,3.73684211 56.9398258,4.73906316 56.9398258,5.97894737 L56.9398258,39.9804737 L24.7519566,22.9427158 C23.6131112,22.3351053 22.174068,22.7095368 21.521257,23.7745368 L4.8436046,50.9600632 C4.52434668,51.4802316 4.44095842,52.0968105 4.60773495,52.6752737 C4.77689399,53.2514947 5.18430522,53.7402737 5.73943279,54.0339895 L37.7819682,71 L5.73943279,87.9637684 C5.18430522,88.2574842 4.77689399,88.7485053 4.60773495,89.3224842 C4.44095842,89.9009474 4.52434668,90.5197684 4.8436046,91.0376947 L21.521257,118.223221 C22.174068,119.288221 23.6131112,119.664895 24.7519566,119.055042 L56.9398258,102.015042 L56.9398258,136.021053 C56.9398258,137.258695 58.004813,138.263158 59.3223476,138.263158 L92.6776524,138.263158 C93.995187,138.263158 95.0601742,137.258695 95.0601742,136.021053 L95.0601742,102.019526 L127.248043,119.055042 C128.386889,119.664895 129.825932,119.288221 130.478743,118.223221 L147.156395,91.0376947 C147.475653,90.5197684 147.559042,89.9009474 147.392265,89.3224842 C147.220723,88.7485053 146.813312,88.2574842 146.260567,87.9637684 L114.215649,71 Z" id="Fill" stroke="#FFFFFF" fill="url(#linearGradient-5)"></path>
                                </g>
                            </g>
                            <g id="Password-Copy-2" stroke-width="1" fill-rule="evenodd" sketch:type="MSLayerGroup" transform="translate(263.699443, 186.964511)">
                                <g id="Icon-Password" sketch:type="MSShapeGroup">
                                    <path d="M115.985084,74.297676 L148.030002,57.3316654 C149.466306,56.5684524 150.539832,55.2798274 150.99974,53.7349605 C151.465688,52.1193267 151.233648,50.4245587 150.368419,49.0148363 L133.691168,21.8299647 C131.988998,19.0530341 128.350004,18.1130365 125.467997,19.6506794 L93.2910575,36.6826292 L98.822079,39.9804737 L98.822079,5.97894737 C98.822079,2.62873617 96.0287127,0 92.6776524,0 L59.3223476,0 C55.9712873,0 53.177921,2.62873617 53.177921,5.97894737 L53.177921,39.9804737 L58.7089425,36.6826292 L26.5210733,19.6448713 C23.6499961,18.1130365 20.0110015,19.0530341 18.3081127,21.8311379 L1.63117967,49.015491 C0.76635195,50.4245587 0.534312091,52.1193267 0.991218586,53.7041035 C1.45251884,55.2756254 2.53114867,56.5703763 3.97090525,57.3321458 L36.0124306,74.2976217 L36.0126127,67.7022819 L3.97007732,84.6660503 C2.53229387,85.4267756 1.45420666,86.7224458 0.997359063,88.2725899 C0.533952511,89.8796784 0.766454612,91.5794554 1.63535082,92.9890499 L18.3088321,120.167793 C20.0116588,122.945796 23.6538103,123.888358 26.5370941,122.344357 L58.7091238,105.312791 L53.177921,102.015042 L53.177921,136.021053 C53.177921,139.369186 55.9715645,142 59.3223476,142 L92.6776524,142 C96.0284355,142 98.822079,139.369186 98.822079,136.021053 L98.822079,102.019526 L93.2912388,105.317467 L125.479108,122.352983 C128.34619,123.888358 131.988341,122.945796 133.691887,120.16662 L150.36882,92.9822669 C151.233545,91.5794554 151.466047,89.8796784 151.008781,88.2936544 C150.538121,86.7182103 149.465154,85.4286938 148.035024,84.6687563 L115.984902,67.7022276 L115.985084,74.297676 L115.985084,74.297676 Z" id="OuterStroke" fill="#C31E5A"></path>
                                    <path d="M114.215649,71 L146.260567,54.0339895 C146.813312,53.7402737 147.220723,53.2514947 147.392265,52.6752737 C147.559042,52.0968105 147.475653,51.4802316 147.156395,50.9600632 L130.478743,23.7745368 C129.825932,22.7095368 128.386889,22.3351053 127.248043,22.9427158 L95.0601742,39.9804737 L95.0601742,5.97894737 C95.0601742,4.73906316 93.995187,3.73684211 92.6776524,3.73684211 L59.3223476,3.73684211 C58.004813,3.73684211 56.9398258,4.73906316 56.9398258,5.97894737 L56.9398258,39.9804737 L24.7519566,22.9427158 C23.6131112,22.3351053 22.174068,22.7095368 21.521257,23.7745368 L4.8436046,50.9600632 C4.52434668,51.4802316 4.44095842,52.0968105 4.60773495,52.6752737 C4.77689399,53.2514947 5.18430522,53.7402737 5.73943279,54.0339895 L37.7819682,71 L5.73943279,87.9637684 C5.18430522,88.2574842 4.77689399,88.7485053 4.60773495,89.3224842 C4.44095842,89.9009474 4.52434668,90.5197684 4.8436046,91.0376947 L21.521257,118.223221 C22.174068,119.288221 23.6131112,119.664895 24.7519566,119.055042 L56.9398258,102.015042 L56.9398258,136.021053 C56.9398258,137.258695 58.004813,138.263158 59.3223476,138.263158 L92.6776524,138.263158 C93.995187,138.263158 95.0601742,137.258695 95.0601742,136.021053 L95.0601742,102.019526 L127.248043,119.055042 C128.386889,119.664895 129.825932,119.288221 130.478743,118.223221 L147.156395,91.0376947 C147.475653,90.5197684 147.559042,89.9009474 147.392265,89.3224842 C147.220723,88.7485053 146.813312,88.2574842 146.260567,87.9637684 L114.215649,71 Z" id="Fill" stroke="#FFFFFF" fill="url(#linearGradient-5)"></path>
                                </g>
                            </g>
                            <g id="Password-Copy-3" stroke-width="1" fill-rule="evenodd" sketch:type="MSLayerGroup" transform="translate(94.023159, 186.964511)">
                                <g id="Icon-Password" sketch:type="MSShapeGroup">
                                    <path d="M115.985084,74.297676 L148.030002,57.3316654 C149.466306,56.5684524 150.539832,55.2798274 150.99974,53.7349605 C151.465688,52.1193267 151.233648,50.4245587 150.368419,49.0148363 L133.691168,21.8299647 C131.988998,19.0530341 128.350004,18.1130365 125.467997,19.6506794 L93.2910575,36.6826292 L98.822079,39.9804737 L98.822079,5.97894737 C98.822079,2.62873617 96.0287127,0 92.6776524,0 L59.3223476,0 C55.9712873,0 53.177921,2.62873617 53.177921,5.97894737 L53.177921,39.9804737 L58.7089425,36.6826292 L26.5210733,19.6448713 C23.6499961,18.1130365 20.0110015,19.0530341 18.3081127,21.8311379 L1.63117967,49.015491 C0.76635195,50.4245587 0.534312091,52.1193267 0.991218586,53.7041035 C1.45251884,55.2756254 2.53114867,56.5703763 3.97090525,57.3321458 L36.0124306,74.2976217 L36.0126127,67.7022819 L3.97007732,84.6660503 C2.53229387,85.4267756 1.45420666,86.7224458 0.997359063,88.2725899 C0.533952511,89.8796784 0.766454612,91.5794554 1.63535082,92.9890499 L18.3088321,120.167793 C20.0116588,122.945796 23.6538103,123.888358 26.5370941,122.344357 L58.7091238,105.312791 L53.177921,102.015042 L53.177921,136.021053 C53.177921,139.369186 55.9715645,142 59.3223476,142 L92.6776524,142 C96.0284355,142 98.822079,139.369186 98.822079,136.021053 L98.822079,102.019526 L93.2912388,105.317467 L125.479108,122.352983 C128.34619,123.888358 131.988341,122.945796 133.691887,120.16662 L150.36882,92.9822669 C151.233545,91.5794554 151.466047,89.8796784 151.008781,88.2936544 C150.538121,86.7182103 149.465154,85.4286938 148.035024,84.6687563 L115.984902,67.7022276 L115.985084,74.297676 L115.985084,74.297676 Z" id="OuterStroke" fill="#C31E5A"></path>
                                    <path d="M114.215649,71 L146.260567,54.0339895 C146.813312,53.7402737 147.220723,53.2514947 147.392265,52.6752737 C147.559042,52.0968105 147.475653,51.4802316 147.156395,50.9600632 L130.478743,23.7745368 C129.825932,22.7095368 128.386889,22.3351053 127.248043,22.9427158 L95.0601742,39.9804737 L95.0601742,5.97894737 C95.0601742,4.73906316 93.995187,3.73684211 92.6776524,3.73684211 L59.3223476,3.73684211 C58.004813,3.73684211 56.9398258,4.73906316 56.9398258,5.97894737 L56.9398258,39.9804737 L24.7519566,22.9427158 C23.6131112,22.3351053 22.174068,22.7095368 21.521257,23.7745368 L4.8436046,50.9600632 C4.52434668,51.4802316 4.44095842,52.0968105 4.60773495,52.6752737 C4.77689399,53.2514947 5.18430522,53.7402737 5.73943279,54.0339895 L37.7819682,71 L5.73943279,87.9637684 C5.18430522,88.2574842 4.77689399,88.7485053 4.60773495,89.3224842 C4.44095842,89.9009474 4.52434668,90.5197684 4.8436046,91.0376947 L21.521257,118.223221 C22.174068,119.288221 23.6131112,119.664895 24.7519566,119.055042 L56.9398258,102.015042 L56.9398258,136.021053 C56.9398258,137.258695 58.004813,138.263158 59.3223476,138.263158 L92.6776524,138.263158 C93.995187,138.263158 95.0601742,137.258695 95.0601742,136.021053 L95.0601742,102.019526 L127.248043,119.055042 C128.386889,119.664895 129.825932,119.288221 130.478743,118.223221 L147.156395,91.0376947 C147.475653,90.5197684 147.559042,89.9009474 147.392265,89.3224842 C147.220723,88.7485053 146.813312,88.2574842 146.260567,87.9637684 L114.215649,71 Z" id="Fill" stroke="#FFFFFF" fill="url(#linearGradient-5)"></path>
                                </g>
                            </g>
                        </g>
                    </g>
                </g>
                <path d="M393,718 L557,885 L721,718 L557,718 L721,551 L557,551 L721,384 L557,384 L393,384 L393,718 Z" id="EncryptrLogo-Copy" stroke="#FFFFFF" stroke-width="12" stroke-linecap="round" fill="url(#linearGradient-6)" filter="url(#filter-7)" sketch:type="MSShapeGroup"></path>
            </g>
        </g>
    </g>
</svg>