<?xml version="1.0" encoding="UTF-8" standalone="no"?>
<svg width="32px" height="32px" viewBox="0 0 32 32" version="1.1" xmlns="http://www.w3.org/2000/svg" xmlns:xlink="http://www.w3.org/1999/xlink" xmlns:sketch="http://www.bohemiancoding.com/sketch/ns">
    <!-- Generator: Sketch 3.3.3 (12072) - http://www.bohemiancoding.com/sketch -->
    <title>AddWhite</title>
    <desc>Created with Sketch.</desc>
    <defs></defs>
    <g id="Living-Document" stroke="none" stroke-width="1" fill="none" fill-rule="evenodd" sketch:type="MSPage">
        <g id="Asset-Board" sketch:type="MSArtboardGroup" transform="translate(-192.000000, -112.000000)" fill="#EBECEE">
            <g id="AddWhite" sketch:type="MSLayerGroup" transform="translate(192.000000, 112.000000)">
                <path d="M14.5,14.5174043 L14.5,1.77777778 C14.5,0.795938223 15.1715729,0 16,0 C16.8284271,0 17.5,0.795938223 17.5,1.77777778 L17.5,14.5215089 L30.2251428,14.5389191 C31.206981,14.5402625 32.0016106,15.2042115 31.9999975,16.0218909 C31.9983845,16.8395702 31.2011398,17.5013413 30.2193015,17.499998 L17.5,17.4825957 L17.5,30.2222222 C17.5,31.2040618 16.8284271,32 16,32 C15.1715729,32 14.5,31.2040618 14.5,30.2222222 L14.5,17.4784911 L1.77485719,17.4610809 C0.793018966,17.4597375 -0.00161056858,16.7957885 2.45136263e-06,15.9781091 C0.00161547131,15.1604298 0.798860228,14.4986587 1.78069846,14.500002 L14.5,14.5174043 Z" id="Shape-Add" sketch:type="MSShapeGroup"></path>
            </g>
        </g>
    </g>
</svg>