<?xml version="1.0" encoding="UTF-8" standalone="no"?>
<svg width="32px" height="32px" viewBox="0 0 32 32" version="1.1" xmlns="http://www.w3.org/2000/svg" xmlns:xlink="http://www.w3.org/1999/xlink" xmlns:sketch="http://www.bohemiancoding.com/sketch/ns">
    <!-- Generator: Sketch 3.3.3 (12072) - http://www.bohemiancoding.com/sketch -->
    <title>Delete</title>
    <desc>Created with Sketch.</desc>
    <defs></defs>
    <g id="Living-Document" stroke="none" stroke-width="1" fill="none" fill-rule="evenodd" sketch:type="MSPage">
        <g id="Asset-Board" sketch:type="MSArtboardGroup" transform="translate(-416.000000, -224.000000)">
            <g id="Delete" sketch:type="MSLayerGroup" transform="translate(420.000000, 228.000000)">
                <path d="M0,3 L24,3" id="Line" stroke="#C31E5A" stroke-width="2" stroke-linecap="round" sketch:type="MSShapeGroup"></path>
                <path d="M3,3.5 L4,24 L20,24 L21,3 L3,3" id="Shape" stroke="#C31E5A" stroke-width="2" sketch:type="MSShapeGroup"></path>
                <path d="M11,7 L11,20 L13,20 L13,7 L11,7 Z M15,8 L15,19 L17,19 L17,8 L15,8 Z M7,8 L7,19 L9,19 L9,8 L7,8 Z" id="Detail" fill="#C31E5A" sketch:type="MSShapeGroup"></path>
                <path d="M8,3 L8,1.5 C8,0.671572875 8.66831553,0 9.50473881,0 L14.4952612,0 C15.3263055,0 16,0.674322248 16,1.50016487 L16,3.49983513" id="Path" stroke="#C31E5A" stroke-width="2" sketch:type="MSShapeGroup"></path>
            </g>
        </g>
    </g>
</svg>