<?xml version="1.0" encoding="UTF-8" standalone="no"?>
<svg width="48px" height="48px" viewBox="0 0 48 48" version="1.1" xmlns="http://www.w3.org/2000/svg" xmlns:xlink="http://www.w3.org/1999/xlink" xmlns:sketch="http://www.bohemiancoding.com/sketch/ns">
    <!-- Generator: Sketch 3.3.3 (12072) - http://www.bohemiancoding.com/sketch -->
    <title>Note</title>
    <desc>Created with Sketch.</desc>
    <defs>
        <linearGradient x1="50%" y1="0%" x2="50%" y2="100%" id="linearGradient-1">
            <stop stop-color="#F9F9F9" offset="0%"></stop>
            <stop stop-color="#E3E3E3" offset="100%"></stop>
        </linearGradient>
    </defs>
    <g id="Living-Document" stroke="none" stroke-width="1" fill="none" fill-rule="evenodd" sketch:type="MSPage">
        <g id="Asset-Board" sketch:type="MSArtboardGroup" transform="translate(-32.000000, -224.000000)">
            <g id="Note" sketch:type="MSLayerGroup" transform="translate(37.000000, 226.000000)">
                <g id="Icon-Note" sketch:type="MSShapeGroup">
                    <rect id="Fill" fill="url(#linearGradient-1)" x="1.9" y="1.91304348" width="34.2" height="40.173913" rx="1.58601399"></rect>
                    <path d="M2.85,3.51269965 L2.85,3.51269965 L2.85,40.4873004 C2.85,40.844584 3.13273296,41.1304348 3.48094654,41.1304348 L34.5190535,41.1304348 C34.8628151,41.1304348 35.15,40.8406743 35.15,40.4873004 L35.15,3.51269965 C35.15,3.15541605 34.867267,2.86956522 34.5190535,2.86956522 L3.48094654,2.86956522 C3.13718489,2.86956522 2.85,3.15932566 2.85,3.51269965 L2.85,3.51269965 Z M1.9,3.51269965 C1.9,2.62923394 2.61431561,1.91304348 3.48094654,1.91304348 L34.5190535,1.91304348 C35.3921861,1.91304348 36.1,2.6273873 36.1,3.51269965 L36.1,40.4873004 C36.1,41.3707661 35.3856844,42.0869565 34.5190535,42.0869565 L3.48094654,42.0869565 C2.60781388,42.0869565 1.9,41.3726127 1.9,40.4873004 L1.9,3.51269965 L1.9,3.51269965 Z" id="InnerStroke" fill="#FFFFFF"></path>
                    <path d="M1.9,3.51269965 L1.9,3.51269965 L1.9,40.4873004 C1.9,41.3726127 2.60781388,42.0869565 3.48094654,42.0869565 L34.5190535,42.0869565 C35.3856844,42.0869565 36.1,41.3707661 36.1,40.4873004 L36.1,3.51269965 C36.1,2.6273873 35.3921861,1.91304348 34.5190535,1.91304348 L3.48094654,1.91304348 C2.61431561,1.91304348 1.9,2.62923394 1.9,3.51269965 L1.9,3.51269965 Z M0,3.51269965 L0,3.51269965 C0,1.57584747 1.56184049,0 3.48094654,0 L34.5190535,0 C36.4439168,0 38,1.57324314 38,3.51269965 L38,40.4873004 C38,42.4241525 36.4381595,44 34.5190535,44 L3.48094654,44 C1.55608325,44 0,42.4267569 0,40.4873004 L0,3.51269965 Z" id="OuterStroke" fill="#515151"></path>
                    <path d="M24.81875,30.9913043 L23.15625,30.9913043 C21.2917563,30.9913043 19.83125,29.6468174 19.83125,27.9304348 C19.83125,27.9246957 19.8295875,27.9193391 19.8295875,27.9139826 C19.8295875,27.9082435 19.83125,27.902887 19.83125,27.8971478 L19.83125,24.8695652 L21.49375,24.8695652 C21.9526,24.8695652 22.325,24.5267478 22.325,24.1043478 C22.325,23.6819478 21.9526,23.3391304 21.49375,23.3391304 L19.83125,23.3391304 L19.83125,14.1565217 C19.83125,12.4401391 21.2917563,11.0956522 23.15625,11.0956522 L24.81875,11.0956522 C25.2776,11.0956522 25.65,10.7528348 25.65,10.3304348 C25.65,9.90803478 25.2776,9.56521739 24.81875,9.56521739 L23.15625,9.56521739 C21.4023125,9.56521739 19.8865281,10.3587478 19,11.5853913 C18.1134719,10.3587478 16.5976875,9.56521739 14.84375,9.56521739 L13.18125,9.56521739 C12.7224,9.56521739 12.35,9.90803478 12.35,10.3304348 C12.35,10.7528348 12.7224,11.0956522 13.18125,11.0956522 L14.84375,11.0956522 C16.7082437,11.0956522 18.16875,12.4401391 18.16875,14.1565217 L18.16875,23.3391304 L16.4887937,23.3391304 C16.0299438,23.3391304 15.6575437,23.6819478 15.6575437,24.1043478 C15.6575437,24.5267478 16.0299438,24.8695652 16.4887937,24.8695652 L18.16875,24.8695652 L18.16875,27.8971478 C18.16875,27.902887 18.1704125,27.9082435 18.1704125,27.9139826 C18.1704125,27.9193391 18.16875,27.9246957 18.16875,27.9304348 C18.16875,29.6468174 16.7082437,30.9913043 14.84375,30.9913043 L13.18125,30.9913043 C12.7224,30.9913043 12.35,31.3341217 12.35,31.7565217 C12.35,32.1789217 12.7224,32.5217391 13.18125,32.5217391 L14.84375,32.5217391 C16.5976875,32.5217391 18.1134719,31.7282087 19,30.5015652 C19.8865281,31.7282087 21.4023125,32.5217391 23.15625,32.5217391 L24.81875,32.5217391 C25.2776,32.5217391 25.65,32.1789217 25.65,31.7565217 C25.65,31.3341217 25.2776,30.9913043 24.81875,30.9913043" id="Detail" fill="#58595B"></path>
                </g>
            </g>
        </g>
    </g>
</svg>