<?xml version="1.0" encoding="UTF-8" standalone="no"?>
<svg width="94px" height="117px" viewBox="0 0 94 117" version="1.1" xmlns="http://www.w3.org/2000/svg" xmlns:xlink="http://www.w3.org/1999/xlink" xmlns:sketch="http://www.bohemiancoding.com/sketch/ns">
    <!-- Generator: Sketch 3.3.3 (12072) - http://www.bohemiancoding.com/sketch -->
    <style>
      g {
        opacity: 0.4;
      }
    </style>
    <title>Imported Layers</title>
    <desc>Created with Sketch.</desc>
    <defs></defs>
    <g id="Page-1" stroke="none" stroke-width="1" fill="none" fill-rule="evenodd" sketch:type="MSPage">
        <g id="Artboard-1" sketch:type="MSArtboardGroup" stroke-linecap="round" stroke="#000000" stroke-width="0.5" stroke-linejoin="round">
            <g id="Imported-Layers" sketch:type="MSLayerGroup">
                <path d="M93.7028049,93.3631059 L93.7028049,116.703882 L70.2771037,116.703882 L93.7028049,93.3631059 L93.7028049,93.3631059 Z M23.4257012,93.3631059 L23.4257012,116.703882 L0,116.703882 L23.4257012,93.3631059 L23.4257012,93.3631059 Z M46.8514025,93.3631059 L46.8514025,116.703882 L23.4257012,116.703882 L46.8514025,93.3631059 L46.8514025,93.3631059 Z M70.2771037,93.3631059 L70.2771037,116.703882 L46.8514025,116.703882 L70.2771037,93.3631059 L70.2771037,93.3631059 Z" id="Stroke-1" sketch:type="MSShapeGroup"></path>
                <path d="M0,93.3631059 L0,116.703882 L23.4257012,116.703882 L0,93.3631059 L0,93.3631059 Z M70.2771037,93.3631059 L70.2771037,116.703882 L93.7028049,116.703882 L70.2771037,93.3631059 L70.2771037,93.3631059 Z M46.8514025,93.3631059 L46.8514025,116.703882 L70.2771037,116.703882 L46.8514025,93.3631059 L46.8514025,93.3631059 Z M23.4257012,93.3631059 L23.4257012,116.703882 L46.8514025,116.703882 L23.4257012,93.3631059 L23.4257012,93.3631059 Z" id="Stroke-2" sketch:type="MSShapeGroup"></path>
                <path d="M93.7028049,70.0223294 L93.7028049,93.3631059 L70.2771037,93.3631059 L93.7028049,70.0223294 L93.7028049,70.0223294 Z M23.4257012,70.0223294 L23.4257012,93.3631059 L0,93.3631059 L23.4257012,70.0223294 L23.4257012,70.0223294 Z M46.8514025,70.0223294 L46.8514025,93.3631059 L23.4257012,93.3631059 L46.8514025,70.0223294 L46.8514025,70.0223294 Z M70.2771037,70.0223294 L70.2771037,93.3631059 L46.8514025,93.3631059 L70.2771037,70.0223294 L70.2771037,70.0223294 Z" id="Stroke-3" sketch:type="MSShapeGroup"></path>
                <path d="M0,70.0223294 L0,93.3631059 L23.4257012,93.3631059 L0,70.0223294 L0,70.0223294 Z M70.2771037,70.0223294 L70.2771037,93.3631059 L93.7028049,93.3631059 L70.2771037,70.0223294 L70.2771037,70.0223294 Z M46.8514025,70.0223294 L46.8514025,93.3631059 L70.2771037,93.3631059 L46.8514025,70.0223294 L46.8514025,70.0223294 Z M23.4257012,70.0223294 L23.4257012,93.3631059 L46.8514025,93.3631059 L23.4257012,70.0223294 L23.4257012,70.0223294 Z" id="Stroke-4" sketch:type="MSShapeGroup"></path>
                <path d="M93.7028049,46.6815529 L93.7028049,70.0223294 L70.2771037,70.0223294 L93.7028049,46.6815529 L93.7028049,46.6815529 Z M23.4257012,46.6815529 L23.4257012,70.0223294 L0,70.0223294 L23.4257012,46.6815529 L23.4257012,46.6815529 Z M46.8514025,46.6815529 L46.8514025,70.0223294 L23.4257012,70.0223294 L46.8514025,46.6815529 L46.8514025,46.6815529 Z M70.2771037,46.6815529 L70.2771037,70.0223294 L46.8514025,70.0223294 L70.2771037,46.6815529 L70.2771037,46.6815529 Z" id="Stroke-5" sketch:type="MSShapeGroup"></path>
                <path d="M0,46.6815529 L0,70.0223294 L23.4257012,70.0223294 L0,46.6815529 L0,46.6815529 Z M70.2771037,46.6815529 L70.2771037,70.0223294 L93.7028049,70.0223294 L70.2771037,46.6815529 L70.2771037,46.6815529 Z M46.8514025,46.6815529 L46.8514025,70.0223294 L70.2771037,70.0223294 L46.8514025,46.6815529 L46.8514025,46.6815529 Z M23.4257012,46.6815529 L23.4257012,70.0223294 L46.8514025,70.0223294 L23.4257012,46.6815529 L23.4257012,46.6815529 Z" id="Stroke-6" sketch:type="MSShapeGroup"></path>
                <path d="M93.7028049,23.3407765 L93.7028049,46.6815529 L70.2771037,46.6815529 L93.7028049,23.3407765 L93.7028049,23.3407765 Z M23.4257012,23.3407765 L23.4257012,46.6815529 L0,46.6815529 L23.4257012,23.3407765 L23.4257012,23.3407765 Z M46.8514025,23.3407765 L46.8514025,46.6815529 L23.4257012,46.6815529 L46.8514025,23.3407765 L46.8514025,23.3407765 Z M70.2771037,23.3407765 L70.2771037,46.6815529 L46.8514025,46.6815529 L70.2771037,23.3407765 L70.2771037,23.3407765 Z" id="Stroke-7" sketch:type="MSShapeGroup"></path>
                <path d="M0,23.3407765 L0,46.6815529 L23.4257012,46.6815529 L0,23.3407765 L0,23.3407765 Z M70.2771037,23.3407765 L70.2771037,46.6815529 L93.7028049,46.6815529 L70.2771037,23.3407765 L70.2771037,23.3407765 Z M46.8514025,23.3407765 L46.8514025,46.6815529 L70.2771037,46.6815529 L46.8514025,23.3407765 L46.8514025,23.3407765 Z M23.4257012,23.3407765 L23.4257012,46.6815529 L46.8514025,46.6815529 L23.4257012,23.3407765 L23.4257012,23.3407765 Z" id="Stroke-8" sketch:type="MSShapeGroup"></path>
                <path d="M93.7028049,0 L93.7028049,23.3407765 L70.2771037,23.3407765 L93.7028049,0 L93.7028049,0 Z M23.4257012,0 L23.4257012,23.3407765 L0,23.3407765 L23.4257012,0 L23.4257012,0 Z M46.8514025,0 L46.8514025,23.3407765 L23.4257012,23.3407765 L46.8514025,0 L46.8514025,0 Z M70.2771037,0 L70.2771037,23.3407765 L46.8514025,23.3407765 L70.2771037,0 L70.2771037,0 Z" id="Stroke-9" sketch:type="MSShapeGroup"></path>
                <path d="M0,0 L0,23.3407765 L23.4257012,23.3407765 L0,0 L0,0 Z M70.2771037,0 L70.2771037,23.3407765 L93.7028049,23.3407765 L70.2771037,0 L70.2771037,0 Z M46.8514025,0 L46.8514025,23.3407765 L70.2771037,23.3407765 L46.8514025,0 L46.8514025,0 Z M23.4257012,0 L23.4257012,23.3407765 L46.8514025,23.3407765 L23.4257012,0 L23.4257012,0 Z" id="Stroke-10" sketch:type="MSShapeGroup"></path>
            </g>
        </g>
    </g>
</svg>
