<?xml version="1.0" encoding="UTF-8" standalone="no"?>
<svg width="32px" height="32px" viewBox="0 0 32 32" version="1.1" xmlns="http://www.w3.org/2000/svg" xmlns:xlink="http://www.w3.org/1999/xlink" xmlns:sketch="http://www.bohemiancoding.com/sketch/ns">
    <!-- Generator: Sketch 3.3.3 (12072) - http://www.bohemiancoding.com/sketch -->
    <title>MaskPassword</title>
    <desc>Created with Sketch.</desc>
    <defs></defs>
    <g id="Living-Document" stroke="none" stroke-width="1" fill="none" fill-rule="evenodd" sketch:type="MSPage">
        <g id="Asset-Board" sketch:type="MSArtboardGroup" transform="translate(-304.000000, -224.000000)">
            <g id="MaskPassword" sketch:type="MSLayerGroup" transform="translate(304.000000, 229.000000)">
                <path d="M6.73817722,18.0779502 C6.0235915,17.5996899 5.32206022,17.0694511 4.6344485,16.4923258 C3.47638702,15.5203432 2.44020968,14.4807543 1.53828379,13.4403532 C1.22171973,13.0751861 0.943997762,12.7352458 0.706799257,12.4288576 C0.561903887,12.2416969 0.461097174,12.104933 0.406110561,12.026897 L0,11.4505527 L0.454194361,10.910718 C0.517149858,10.8358919 0.633238879,10.7023419 0.798991489,10.5184045 C1.07174558,10.2157266 1.38712388,9.87947482 1.74169915,9.51797345 C2.75322941,8.48668445 3.87943607,7.45576256 5.0939772,6.49169246 C8.57554507,3.72811747 12.0794006,2.0429416 15.4402862,2.00078754 C15.5029541,2.00013181 15.5029541,2.00013181 15.5656634,2 C17.5710853,2 19.5834567,2.4788537 21.5782285,3.34870666 L20.1583382,4.75799487 C18.6099446,4.16096726 17.0715556,3.83870968 15.5656634,3.83870968 C15.5147008,3.83881676 15.5147008,3.83881676 15.4636947,3.83935042 C12.6025382,3.8752366 9.44026893,5.3961269 6.25102579,7.92766238 C5.10089106,8.84060841 4.03013058,9.82077523 3.06910313,10.8005749 C2.7332832,11.1429546 2.43563143,11.4603066 2.17980815,11.7441963 C2.02841434,11.9121995 1.92598482,12.0300355 1.87613726,12.089282 L1.92422106,10.973103 C1.96370625,11.0291396 2.04819266,11.1437618 2.17576127,11.3085416 C2.3926694,11.5887209 2.64892396,11.9023844 2.94255585,12.2410985 C3.78404694,13.211786 4.75235853,14.1832858 5.83065411,15.0883194 C6.56525482,15.7048834 7.31426674,16.261157 8.07580586,16.7503094 L6.73817722,18.0779502 Z M10.1390923,19.9030853 C11.8883045,20.6130721 13.7007787,21 15.5656634,21 C19.4616544,21 23.2837159,19.3110058 26.8889588,16.5147265 C28.136347,15.5472339 29.2692077,14.5122568 30.2684029,13.4765632 C30.6189844,13.1131757 30.9283605,12.7749968 31.1940152,12.4703587 C31.3559338,12.2846794 31.4689066,12.1493734 31.5303727,12.0727791 L32,11.4875658 L31.5181063,10.9122602 C31.4546175,10.8364645 31.3377415,10.7019563 31.1704855,10.5170747 C30.895716,10.2133495 30.576683,9.87607575 30.2163508,9.51358453 C29.1890129,8.48009127 28.0330194,7.44719316 26.7710846,6.48157763 C26.1702383,6.02181807 25.5656571,5.59201656 24.9580648,5.19476309 L23.6179212,6.52490008 C24.2938404,6.9516792 24.9684847,7.42394875 25.6399921,7.93777721 C26.8310749,8.84917781 27.9258412,9.82736841 28.8976142,10.8049639 C29.2369708,11.1463537 29.5361927,11.4626837 29.7920704,11.7455261 C29.9432027,11.912585 30.0447595,12.0294629 30.093574,12.0877398 L30.0813076,10.9272209 C30.0351819,10.9846991 29.9382615,11.1007793 29.7932763,11.2670405 C29.5474243,11.5489699 29.2588641,11.8643949 28.9303697,12.2048884 C27.9893481,13.1802835 26.9209201,14.1563952 25.7482714,15.0659187 C22.4391233,17.6325426 18.9796869,19.1612903 15.5656634,19.1612903 C14.2159652,19.1612903 12.8840985,18.9222716 11.578414,18.4745107 L10.1390923,19.9030853 Z" id="Shape-Copy" fill="#C31E5A" sketch:type="MSShapeGroup"></path>
                <path d="M20.3476141,9.58453895 C20.4470091,9.95625811 20.5,10.3469407 20.5,10.75 C20.5,13.2352814 18.4852814,15.25 16,15.25 C15.6017062,15.25 15.2154982,15.1982548 14.8477318,15.1011202 L20.3476141,9.58453895 Z M18.0695559,6.75308398 C17.4499894,6.43162681 16.7462053,6.25 16,6.25 C13.5147186,6.25 11.5,8.26471863 11.5,10.75 C11.5,11.4794242 11.6735496,12.1683138 11.9816093,12.7776291 L18.0695559,6.75308398 Z" id="Oval-59-Copy" fill="#C31E5A" sketch:type="MSShapeGroup"></path>
                <path d="M6,21.5000004 L26.3999939,0.877056527" id="Cross" stroke="#C31E5A" stroke-width="1.84615385" stroke-linecap="square" sketch:type="MSShapeGroup"></path>
            </g>
        </g>
    </g>
</svg>