<?xml version="1.0" encoding="UTF-8" standalone="no"?>
<svg width="48px" height="32px" viewBox="0 0 48 32" version="1.1" xmlns="http://www.w3.org/2000/svg" xmlns:xlink="http://www.w3.org/1999/xlink" xmlns:sketch="http://www.bohemiancoding.com/sketch/ns">
    <!-- Generator: Sketch 3.3.3 (12072) - http://www.bohemiancoding.com/sketch -->
    <title>More</title>
    <desc>Created with Sketch.</desc>
    <defs></defs>
    <g id="Living-Document" stroke="none" stroke-width="1" fill="none" fill-rule="evenodd" sketch:type="MSPage">
        <g id="Asset-Board" sketch:type="MSArtboardGroup" transform="translate(-160.000000, -160.000000)" fill="#C31E5A">
            <g id="More" sketch:type="MSLayerGroup" transform="translate(165.000000, 172.000000)">
                <path d="M3.99243856,8 C6.23062382,8 8,6.24574669 8,4.00756144 C8,1.76937618 6.23062382,0 3.99243856,0 C1.75425331,0 0,1.76937618 0,4.00756144 C0,6.24574669 1.75425331,8 3.99243856,8 L3.99243856,8 Z M19.9924386,8 C22.2306238,8 24,6.24574669 24,4.00756144 C24,1.76937618 22.2306238,0 19.9924386,0 C17.7542533,0 16,1.76937618 16,4.00756144 C16,6.24574669 17.7542533,8 19.9924386,8 L19.9924386,8 Z M35.9924386,8 C38.2306238,8 40,6.24574669 40,4.00756144 C40,1.76937618 38.2306238,0 35.9924386,0 C33.7542533,0 32,1.76937618 32,4.00756144 C32,6.24574669 33.7542533,8 35.9924386,8 L35.9924386,8 Z" id="Shape-Dots" sketch:type="MSShapeGroup"></path>
            </g>
        </g>
    </g>
</svg>