<?xml version="1.0" encoding="UTF-8" standalone="no"?>
<svg width="48px" height="48px" viewBox="0 0 48 48" version="1.1" xmlns="http://www.w3.org/2000/svg" xmlns:xlink="http://www.w3.org/1999/xlink" xmlns:sketch="http://www.bohemiancoding.com/sketch/ns">
    <!-- Generator: Sketch 3.3.3 (12072) - http://www.bohemiancoding.com/sketch -->
    <title>Password</title>
    <desc>Created with Sketch.</desc>
    <defs>
        <radialGradient cx="50%" cy="0%" fx="50%" fy="0%" r="67.9475219%" id="radialGradient-1">
            <stop stop-color="#FBDA61" offset="0%"></stop>
            <stop stop-color="#FAC655" offset="21.8724212%"></stop>
            <stop stop-color="#F76B1C" offset="100%"></stop>
        </radialGradient>
    </defs>
    <g id="Living-Document" stroke="none" stroke-width="1" fill="none" fill-rule="evenodd" sketch:type="MSPage">
        <g id="Asset-Board" sketch:type="MSArtboardGroup" transform="translate(-160.000000, -224.000000)">
            <g id="Password" sketch:type="MSLayerGroup" transform="translate(163.000000, 229.000000)">
                <g id="Icon-Password" sketch:type="MSShapeGroup">
                    <path d="M31.1585903,19 L39.6768596,14.4598 C39.8237919,14.3812 39.9320911,14.2504 39.9776907,14.0962 C40.0220237,13.9414 39.9998572,13.7764 39.9149912,13.6372 L35.4816912,6.3622 C35.3081591,6.0772 34.9256287,5.977 34.6228976,6.1396 L26.0666286,10.699 L26.0666286,1.6 C26.0666286,1.2682 25.7835307,1 25.4333,1 L16.5667,1 C16.2164693,1 15.9333714,1.2682 15.9333714,1.6 L15.9333714,10.699 L7.37710238,6.1396 C7.07437132,5.977 6.69184086,6.0772 6.51830883,6.3622 L2.08500882,13.6372 C2.00014279,13.7764 1.97797629,13.9414 2.02230929,14.0962 C2.06727562,14.2504 2.1755748,14.3812 2.32314036,14.4598 L10.8407763,19 L2.32314036,23.5396 C2.1755748,23.6182 2.06727562,23.7496 2.02230929,23.9032 C1.97797629,24.058 2.00014279,24.2236 2.08500882,24.3622 L6.51830883,31.6372 C6.69184086,31.9222 7.07437132,32.023 7.37710238,31.8598 L15.9333714,27.2998 L15.9333714,36.4 C15.9333714,36.7312 16.2164693,37 16.5667,37 L25.4333,37 C25.7835307,37 26.0666286,36.7312 26.0666286,36.4 L26.0666286,27.301 L34.6228976,31.8598 C34.9256287,32.023 35.3081591,31.9222 35.4816912,31.6372 L39.9149912,24.3622 C39.9998572,24.2236 40.0220237,24.058 39.9776907,23.9032 C39.9320911,23.7496 39.8237919,23.6182 39.6768596,23.5396 L31.1585903,19 Z" id="Fill" fill="url(#radialGradient-1)"></path>
                    <path d="M30.217878,17.2350467 L30.217878,17.2350467 L38.7334773,12.6962724 C38.413497,12.8674428 38.1675505,13.1646488 38.0549858,13.5455587 C37.9453512,13.9283759 38.0014069,14.3405402 38.2071197,14.6779569 L33.7734372,7.40232904 C34.1573878,8.03290955 34.9438744,8.23743139 35.5634407,7.90464355 L27.0071717,12.4640435 L24.0666286,14.0309779 L24.0666286,10.699 L24.0666286,1.6 C24.0666286,2.39767078 24.7024158,3 25.4333,3 L16.5667,3 C17.2975842,3 17.9333714,2.39767078 17.9333714,1.6 L17.9333714,10.699 L17.9333714,14.0309779 L14.9928283,12.4640435 L6.43074878,7.90153498 C7.05612564,8.23743139 7.84261221,8.03290955 8.22618032,7.40295693 L3.79266671,14.6783074 C3.99859312,14.3405402 4.0546488,13.9283759 3.94233831,13.5362995 C3.83461726,13.166899 3.58595704,12.8664137 3.26390718,12.6948757 L11.7815432,17.2350757 L15.0928458,19.0001166 L11.7814463,20.7649759 L3.2633702,25.3048104 C3.58632569,25.1327899 3.8340196,24.8331091 3.94501419,24.4538413 C4.05477888,24.0705699 3.99865334,23.6574952 3.7928803,23.3214431 L8.22656279,30.597071 C7.84271366,29.9666571 7.05487231,29.7614021 6.43646291,30.0948078 L14.9927319,25.5348078 L17.9333714,23.9676159 L17.9333714,27.2998 L17.9333714,36.4 C17.9333714,35.6022633 17.2980929,35 16.5667,35 L25.4333,35 C24.7019071,35 24.0666286,35.6022633 24.0666286,36.4 L24.0666286,27.301 L24.0666286,23.9692283 L27.0070753,25.5359051 L35.5719581,30.0993216 C34.9451277,29.7614021 34.1572863,29.9666571 33.7738197,30.5964431 L38.2093373,23.3178127 C38.0013467,23.6574952 37.9452211,24.0705699 38.0603958,24.4723926 C38.1681537,24.8353693 38.4131282,25.1317599 38.7362441,25.3046049 L30.2179748,20.7650049 L26.9062747,19.0001166 L30.217878,17.2350467 Z M33.2847792,20.1330996 L33.2847792,20.1330996 L39.6768596,23.5396 C39.8237919,23.6182 39.9320911,23.7496 39.9776907,23.9032 C40.0220237,24.058 39.9998572,24.2236 39.9149912,24.3622 L35.4816912,31.6372 C35.3081591,31.9222 34.9256287,32.023 34.6228976,31.8598 L28.0666286,28.3666046 L28.0666286,27.301 L27.1261819,27.8655325 L26.0666286,27.301 L26.0666286,28.5015624 L25.1261819,29.0660949 L26.0666286,29.5671671 L26.0666286,36.4 C26.0666286,36.7312 25.7835307,37 25.4333,37 L16.5667,37 C16.2164693,37 15.9333714,36.7312 15.9333714,36.4 L15.9333714,29.5660961 L16.8740109,29.0647922 L15.9333714,28.5002139 L15.9333714,27.2998 L14.8740109,27.8643783 L13.9333714,27.2998 L13.9333714,28.3656851 L7.37710238,31.8598 C7.07437132,32.023 6.69184086,31.9222 6.51830883,31.6372 L2.08500882,24.3622 C2.00014279,24.2236 1.97797629,24.058 2.02230929,23.9032 C2.06727562,23.7496 2.1755748,23.6182 2.32314036,23.5396 L8.71471056,20.1331182 L9.90000953,20.7649243 L9.90004419,19.5013771 L10.8407763,19 L9.90007169,18.4985713 L9.90010635,17.2350241 L8.71477271,17.8667652 L2.32314036,14.4598 C2.1755748,14.3812 2.06727562,14.2504 2.02230929,14.0962 C1.97797629,13.9414 2.00014279,13.7764 2.08500882,13.6372 L6.51830883,6.3622 C6.69184086,6.0772 7.07437132,5.977 7.37710238,6.1396 L13.9333714,9.63325511 L13.9333714,10.699 L14.8739145,10.1344446 L15.9333714,10.699 L15.9333714,9.49851185 L16.8739145,8.93395645 L15.9333714,8.43276696 L15.9333714,1.6 C15.9333714,1.2682 16.2164693,1 16.5667,1 L25.4333,1 C25.7835307,1 26.0666286,1.2682 26.0666286,1.6 L26.0666286,8.43276832 L25.1260855,8.93395645 L26.0666286,9.49851185 L26.0666286,10.699 L27.1260855,10.1344446 L28.0666286,10.699 L28.0666286,9.63325511 L34.6228976,6.1396 C34.9256287,5.977 35.3081591,6.0772 35.4816912,6.3622 L39.9149912,13.6372 C39.9998572,13.7764 40.0220237,13.9414 39.9776907,14.0962 C39.9320911,14.2504 39.8237919,14.3812 39.6768596,14.4598 L33.2847167,17.866784 L32.0992059,17.2349951 L32.0992405,18.4986376 L31.1585903,19 L32.099268,19.5013108 L32.0993027,20.7649533 L33.2847792,20.1330996 Z" id="InnerStroke" fill="#F6F6F6"></path>
                    <path d="M31.6289465,19.8824767 L40.1472158,15.3422767 C40.5290179,15.1380366 40.8143857,14.7931932 40.9366398,14.3797782 C41.0604993,13.9474254 40.9988178,13.493896 40.7688201,13.1166463 L36.3356269,5.84182153 C35.8831515,5.09869927 34.9158238,4.84715062 34.1497208,5.25863251 L25.5963571,9.81647823 L27.0666286,10.699 L27.0666286,1.6 C27.0666286,0.703464609 26.3240882,0 25.4333,0 L16.5667,0 C15.6759118,0 14.9333714,0.703464609 14.9333714,1.6 L14.9333714,10.699 L16.4036429,9.81647823 L7.84737392,5.25707823 C7.08417618,4.84715062 6.1168485,5.09869927 5.66418186,5.84213548 L1.23107308,13.1168215 C1.00118216,13.493896 0.939500682,13.9474254 1.06095684,14.3715207 C1.18358096,14.7920688 1.47030534,15.1385514 1.85302545,15.3424052 L10.3703929,19.8824622 L10.3704414,18.117512 L1.85280536,22.657112 C1.47060976,22.8606864 1.18402962,23.2074151 1.06258912,23.6222424 C0.939405098,24.0523083 1.00120945,24.5071782 1.23218186,24.8843936 L5.66437309,32.1575785 C6.11702322,32.9009877 7.08519009,33.1532225 7.85163261,32.7400392 L16.4036911,28.1822961 L14.9333714,27.2998 L14.9333714,36.4 C14.9333714,37.2959794 15.6759855,38 16.5667,38 L25.4333,38 C26.3240145,38 27.0666286,37.2959794 27.0666286,36.4 L27.0666286,27.301 L25.5964053,28.1835475 L34.1526743,32.7423475 C34.9148099,33.1532225 35.8829768,32.9009877 36.3358181,32.1572645 L40.7689269,24.8825785 C40.9987905,24.5071782 41.0605949,24.0523083 40.9390432,23.6278793 C40.813931,23.2062816 40.5287119,22.8611997 40.1485508,22.6578362 L31.6288981,18.1174975 L31.6289465,19.8824767 L31.6289465,19.8824767 Z M30.6882341,18.1175233 L29.0324325,19.0000583 L30.6882826,19.8825025 L39.2065519,24.4221025 C39.1183228,24.3749065 39.0500795,24.2923401 39.0190433,24.1877963 C38.983679,24.0644827 39.0004946,23.9407229 39.0621642,23.8400064 L34.6277554,31.1168215 C34.7325165,30.9447673 34.9350218,30.8920089 35.0974278,30.9795608 L26.5368519,26.4184525 L25.0666286,25.6351141 L25.0666286,27.301 L25.0666286,36.4 C25.0666286,36.1668353 25.2426096,36 25.4333,36 L16.5667,36 C16.7573904,36 16.9333714,36.1668353 16.9333714,36.4 L16.9333714,27.2998 L16.9333714,25.6337079 L15.4630517,26.4173039 L6.90678265,30.9773039 C7.06497823,30.8920089 7.26748351,30.9447673 7.37243581,31.1171355 L2.93894456,23.8418215 C2.99950538,23.9407229 3.01632095,24.0644827 2.98366174,24.1785207 C2.95068961,24.2912111 2.88108705,24.3754221 2.79325528,24.4222052 L11.3111113,19.882488 L12.9668111,19.0000583 L11.3111598,18.1175378 L2.79352377,13.5773378 C2.88073981,13.623793 2.95093849,13.7086222 2.9823238,13.8162498 C3.01626609,13.9347258 2.99945614,14.0583255 2.93883776,14.1577537 L7.37224458,6.88257847 C7.26735764,7.05483946 7.06547582,7.1073378 6.90392558,7.02056749 L15.4630999,11.5815218 L16.9333714,12.364989 L16.9333714,10.699 L16.9333714,1.6 C16.9333714,1.83293539 16.7570268,2 16.5667,2 L25.4333,2 C25.2429732,2 25.0666286,1.83293539 25.0666286,1.6 L25.0666286,10.699 L25.0666286,12.364989 L26.5369001,11.5815218 L35.0931692,7.02212177 C34.9345242,7.1073378 34.7326424,7.05483946 34.6275642,6.88226452 L39.0610554,14.1575785 C39.0005439,14.0583255 38.9837339,13.9347258 39.0163383,13.8208793 C39.0498289,13.7074969 39.1186706,13.6243074 39.2051685,13.5780362 L30.6882341,18.1175233 L30.6882341,18.1175233 Z" id="OuterStroke" fill="#D05612"></path>
                </g>
            </g>
        </g>
    </g>
</svg>