<?xml version="1.0" encoding="UTF-8" standalone="no"?>
<svg width="48px" height="48px" viewBox="0 0 48 48" version="1.1" xmlns="http://www.w3.org/2000/svg" xmlns:xlink="http://www.w3.org/1999/xlink" xmlns:sketch="http://www.bohemiancoding.com/sketch/ns">
    <!-- Generator: Sketch 3.3.3 (12072) - http://www.bohemiancoding.com/sketch -->
    <title>Password-Line</title>
    <desc>Created with Sketch.</desc>
    <defs></defs>
    <g id="Living-Document" stroke="none" stroke-width="1" fill="none" fill-rule="evenodd" sketch:type="MSPage">
        <g id="Asset-Board" sketch:type="MSArtboardGroup" transform="translate(-160.000000, -288.000000)" fill="#FFFFFF">
            <g id="Password-Line" sketch:type="MSLayerGroup" transform="translate(163.000000, 293.000000)">
                <g id="Icon-Password" sketch:type="MSShapeGroup">
                    <path d="M31.6289465,19.8824767 L40.1472158,15.3422767 C40.5290179,15.1380366 40.8143857,14.7931932 40.9366398,14.3797782 C41.0604993,13.9474254 40.9988178,13.493896 40.7688201,13.1166463 L36.3356269,5.84182153 C35.8831515,5.09869927 34.9158238,4.84715062 34.1497208,5.25863251 L25.5963571,9.81647823 L27.0666286,10.699 L27.0666286,1.6 C27.0666286,0.703464609 26.3240882,0 25.4333,0 L16.5667,0 C15.6759118,0 14.9333714,0.703464609 14.9333714,1.6 L14.9333714,10.699 L16.4036429,9.81647823 L7.84737392,5.25707823 C7.08417618,4.84715062 6.1168485,5.09869927 5.66418186,5.84213548 L1.23107308,13.1168215 C1.00118216,13.493896 0.939500682,13.9474254 1.06095684,14.3715207 C1.18358096,14.7920688 1.47030534,15.1385514 1.85302545,15.3424052 L10.3703929,19.8824622 L10.3704414,18.117512 L1.85280536,22.657112 C1.47060976,22.8606864 1.18402962,23.2074151 1.06258912,23.6222424 C0.939405098,24.0523083 1.00120945,24.5071782 1.23218186,24.8843936 L5.66437309,32.1575785 C6.11702322,32.9009877 7.08519009,33.1532225 7.85163261,32.7400392 L16.4036911,28.1822961 L14.9333714,27.2998 L14.9333714,36.4 C14.9333714,37.2959794 15.6759855,38 16.5667,38 L25.4333,38 C26.3240145,38 27.0666286,37.2959794 27.0666286,36.4 L27.0666286,27.301 L25.5964053,28.1835475 L34.1526743,32.7423475 C34.9148099,33.1532225 35.8829768,32.9009877 36.3358181,32.1572645 L40.7689269,24.8825785 C40.9987905,24.5071782 41.0605949,24.0523083 40.9390432,23.6278793 C40.813931,23.2062816 40.5287119,22.8611997 40.1485508,22.6578362 L31.6288981,18.1174975 L31.6289465,19.8824767 L31.6289465,19.8824767 Z M30.6882341,18.1175233 L29.0324325,19.0000583 L30.6882826,19.8825025 L39.2065519,24.4221025 C39.1183228,24.3749065 39.0500795,24.2923401 39.0190433,24.1877963 C38.983679,24.0644827 39.0004946,23.9407229 39.0621642,23.8400064 L34.6277554,31.1168215 C34.7325165,30.9447673 34.9350218,30.8920089 35.0974278,30.9795608 L26.5368519,26.4184525 L25.0666286,25.6351141 L25.0666286,27.301 L25.0666286,36.4 C25.0666286,36.1668353 25.2426096,36 25.4333,36 L16.5667,36 C16.7573904,36 16.9333714,36.1668353 16.9333714,36.4 L16.9333714,27.2998 L16.9333714,25.6337079 L15.4630517,26.4173039 L6.90678265,30.9773039 C7.06497823,30.8920089 7.26748351,30.9447673 7.37243581,31.1171355 L2.93894456,23.8418215 C2.99950538,23.9407229 3.01632095,24.0644827 2.98366174,24.1785207 C2.95068961,24.2912111 2.88108705,24.3754221 2.79325528,24.4222052 L11.3111113,19.882488 L12.9668111,19.0000583 L11.3111598,18.1175378 L2.79352377,13.5773378 C2.88073981,13.623793 2.95093849,13.7086222 2.9823238,13.8162498 C3.01626609,13.9347258 2.99945614,14.0583255 2.93883776,14.1577537 L7.37224458,6.88257847 C7.26735764,7.05483946 7.06547582,7.1073378 6.90392558,7.02056749 L15.4630999,11.5815218 L16.9333714,12.364989 L16.9333714,10.699 L16.9333714,1.6 C16.9333714,1.83293539 16.7570268,2 16.5667,2 L25.4333,2 C25.2429732,2 25.0666286,1.83293539 25.0666286,1.6 L25.0666286,10.699 L25.0666286,12.364989 L26.5369001,11.5815218 L35.0931692,7.02212177 C34.9345242,7.1073378 34.7326424,7.05483946 34.6275642,6.88226452 L39.0610554,14.1575785 C39.0005439,14.0583255 38.9837339,13.9347258 39.0163383,13.8208793 C39.0498289,13.7074969 39.1186706,13.6243074 39.2051685,13.5780362 L30.6882341,18.1175233 L30.6882341,18.1175233 Z" id="OuterStroke"></path>
                </g>
            </g>
        </g>
    </g>
</svg>