<?xml version="1.0" encoding="UTF-8" standalone="no"?>
<svg width="32px" height="32px" viewBox="0 0 32 32" version="1.1" xmlns="http://www.w3.org/2000/svg" xmlns:xlink="http://www.w3.org/1999/xlink" xmlns:sketch="http://www.bohemiancoding.com/sketch/ns">
    <!-- Generator: Sketch 3.3.3 (12072) - http://www.bohemiancoding.com/sketch -->
    <title>RevealPassword</title>
    <desc>Created with Sketch.</desc>
    <defs></defs>
    <g id="Living-Document" stroke="none" stroke-width="1" fill="none" fill-rule="evenodd" sketch:type="MSPage">
        <g id="Asset-Board" sketch:type="MSArtboardGroup" transform="translate(-240.000000, -224.000000)" fill="#C31E5A">
            <g id="RevealPassword" sketch:type="MSLayerGroup" transform="translate(240.000000, 231.000000)">
                <path d="M0,9.45055268 L0.406110561,10.026897 C0.461097174,10.104933 0.561903887,10.2416969 0.706799257,10.4288576 C0.943997762,10.7352458 1.22171973,11.0751861 1.53828379,11.4403532 C2.44020968,12.4807543 3.47638702,13.5203432 4.6344485,14.4923258 C7.98161677,17.3016665 11.6586181,19 15.5656634,19 C19.4616544,19 23.2837159,17.3110058 26.8889588,14.5147265 C28.136347,13.5472339 29.2692077,12.5122568 30.2684029,11.4765632 C30.6189844,11.1131757 30.9283605,10.7749968 31.1940152,10.4703587 C31.3559338,10.2846794 31.4689066,10.1493734 31.5303727,10.0727791 L32,9.48756584 L31.5181063,8.91226023 C31.4546175,8.8364645 31.3377415,8.70195628 31.1704855,8.51707467 C30.895716,8.21334954 30.576683,7.87607575 30.2163508,7.51358453 C29.1890129,6.48009127 28.0330194,5.44719316 26.7710846,4.48157763 C23.1197319,1.68761153 19.3304519,0 15.5656634,0 C15.5029541,0.000131809106 15.5029541,0.000131809106 15.4402862,0.000787538713 C12.0794006,0.0429415962 8.57554507,1.72811747 5.0939772,4.49169246 C3.87943607,5.45576256 2.75322941,6.48668445 1.74169915,7.51797345 C1.38712388,7.87947482 1.07174558,8.21572663 0.798991489,8.51840454 C0.633238879,8.70234185 0.517149858,8.83589192 0.454194361,8.91071795 L0,9.45055268 Z M1.87613726,10.089282 C1.92598482,10.0300355 2.02841434,9.91219948 2.17980815,9.74419627 C2.43563143,9.46030664 2.7332832,9.14295461 3.06910313,8.80057493 C4.03013058,7.82077523 5.10089106,6.84060841 6.25102579,5.92766238 C9.44026893,3.3961269 12.6025382,1.8752366 15.4636947,1.83935042 C15.5147008,1.83881676 15.5147008,1.83881676 15.5656634,1.83870968 C18.8470436,1.83870968 22.2827232,3.36884008 25.6399921,5.93777721 C26.8310749,6.84917781 27.9258412,7.82736841 28.8976142,8.80496386 C29.2369708,9.14635368 29.5361927,9.46268372 29.7920704,9.74552613 C29.9432027,9.91258505 30.0447595,10.0294629 30.093574,10.0877398 L30.0813076,8.92722086 C30.0351819,8.98469915 29.9382615,9.10077932 29.7932763,9.26704045 C29.5474243,9.54896989 29.2588641,9.86439487 28.9303697,10.2048884 C27.9893481,11.1802835 26.9209201,12.1563952 25.7482714,13.0659187 C22.4391233,15.6325426 18.9796869,17.1612903 15.5656634,17.1612903 C12.1626944,17.1612903 8.87307744,15.6418819 5.83065411,13.0883194 C4.75235853,12.1832858 3.78404694,11.211786 2.94255585,10.2410985 C2.64892396,9.90238443 2.3926694,9.5887209 2.17576127,9.30854163 C2.04819266,9.14376181 1.96370625,9.02913959 1.92422106,8.97310296 L1.87613726,10.089282 Z" id="Eye" sketch:type="MSShapeGroup"></path>
                <ellipse id="Pupil" sketch:type="MSShapeGroup" cx="16" cy="8.75" rx="4.5" ry="4.5"></ellipse>
            </g>
        </g>
    </g>
</svg>