<?xml version="1.0" encoding="UTF-8" standalone="no"?>
<svg width="32px" height="32px" viewBox="0 0 32 32" version="1.1" xmlns="http://www.w3.org/2000/svg" xmlns:xlink="http://www.w3.org/1999/xlink" xmlns:sketch="http://www.bohemiancoding.com/sketch/ns">
    <!-- Generator: Sketch 3.3.3 (12072) - http://www.bohemiancoding.com/sketch -->
    <title>Settings</title>
    <desc>Created with Sketch.</desc>
    <defs></defs>
    <g id="Living-Document" stroke="none" stroke-width="1" fill="none" fill-rule="evenodd" sketch:type="MSPage">
        <g id="Asset-Board" sketch:type="MSArtboardGroup" transform="translate(-32.000000, -160.000000)" fill="#C31E5A">
            <g id="Settings" sketch:type="MSLayerGroup" transform="translate(32.000000, 160.000000)">
                <path d="M10.6666667,16 C10.6666667,13.0586667 13.0586667,10.6666667 16,10.6666667 C18.9413333,10.6666667 21.3333333,13.0586667 21.3333333,16 C21.3333333,18.9413333 18.9413333,21.3333333 16,21.3333333 C13.0586667,21.3333333 10.6666667,18.9413333 10.6666667,16 Z M31.3333333,13.3333333 L27.5266667,13.3333333 C27.26,12.28 26.9213333,11.1106667 26.4893333,10.2253333 L29.1986667,7.51466667 C29.324,7.38933333 29.3946667,7.22 29.3946667,7.04266667 C29.3946667,6.86533333 29.324,6.69733333 29.1986667,6.572 L25.4266667,2.80133333 C25.1666667,2.54 24.7453333,2.54 24.484,2.80133333 L21.7733333,5.51066667 C20.888,5.07866667 19.7186667,4.74 18.6666667,4.47466667 L18.6666667,0.666666667 C18.6666667,0.298666667 18.368,0 18,0 L14,0 C13.632,0 13.3333333,0.298666667 13.3333333,0.666666667 L13.3333333,4.47466667 C12.28,4.74 11.1106667,5.07866667 10.2253333,5.51066667 L7.51466667,2.80133333 C7.25333333,2.54 6.832,2.54 6.572,2.80133333 L2.8,6.572 C2.54,6.832 2.54,7.25333333 2.8,7.51466667 L5.51066667,10.2253333 C5.08133333,11.1093333 4.74,12.2786667 4.472,13.3333333 L0.666666667,13.3333333 C0.298666667,13.3333333 0,13.632 0,14 L0,18 C0,18.368 0.298666667,18.6666667 0.666666667,18.6666667 L4.472,18.6666667 C4.74,19.7213333 5.08133333,20.892 5.51066667,21.7746667 L2.8,24.4853333 C2.67466667,24.6106667 2.604,24.78 2.604,24.9573333 C2.604,25.1346667 2.67466667,25.304 2.8,25.428 L6.572,29.1986667 C6.82133333,29.4493333 7.26533333,29.4493333 7.51466667,29.1986667 L10.224,26.488 C11.108,26.92 12.2786667,27.26 13.3333333,27.528 L13.3333333,31.3333333 C13.3333333,31.7013333 13.632,32 14,32 L18,32 C18.368,32 18.6666667,31.7013333 18.6666667,31.3333333 L18.6666667,27.528 C19.7213333,27.26 20.8906667,26.92 21.7746667,26.4893333 L24.4853333,29.1986667 C24.7466667,29.46 25.168,29.46 25.428,29.1986667 L29.1986667,25.428 C29.46,25.168 29.46,24.7466667 29.1986667,24.4853333 L26.4893333,21.7746667 C26.92,20.892 27.26,19.7213333 27.5266667,18.6666667 L31.3333333,18.6666667 C31.7013333,18.6666667 32,18.368 32,18 L32,14 C32,13.632 31.7013333,13.3333333 31.3333333,13.3333333" id="Shape-Cog" sketch:type="MSShapeGroup"></path>
            </g>
        </g>
    </g>
</svg>