<?xml version="1.0" encoding="utf-8"?>
<!-- Generator: Adobe Illustrator 17.1.0, SVG Export Plug-In . SVG Version: 6.00 Build 0)  -->
<!DOCTYPE svg PUBLIC "-//W3C//DTD SVG 1.1//EN" "http://www.w3.org/Graphics/SVG/1.1/DTD/svg11.dtd">
<svg version="1.1" id="Layer_1" xmlns="http://www.w3.org/2000/svg" xmlns:xlink="http://www.w3.org/1999/xlink" x="0px" y="0px"
	 viewBox="0 0 432 72" enable-background="new 0 0 432 72" xml:space="preserve">
<g>
	<polygon fill="#FFFFFF" points="29.3,39.7 53.5,39.7 53.5,33.1 26.3,33.1 24.7,33.1 16.1,33.1 16.1,39.7 24.7,39.7 	"/>
	<polygon fill="#FFFFFF" points="24.7,46.4 16.1,46.4 16.1,53.8 58.7,53.8 58.7,46.4 29.3,46.4 	"/>
	<polygon fill="#FFFFFF" points="26.3,26.9 57.4,26.9 57.4,19.5 16.1,19.5 16.1,26.9 24.7,26.9 	"/>
	<polygon fill="#FFFFFF" points="101.7,43.5 76.9,19.5 68.3,19.5 68.3,53.8 76.9,53.8 76.9,29.8 101.7,53.8 110.3,53.8 110.3,19.5 
		101.7,19.5 	"/>
	<path fill="#FFFFFF" d="M154.9,43.4c-0.9,0.8-1.9,1.5-3,2.1c-1.2,0.6-2.5,1.1-4,1.4c-1.5,0.3-3.1,0.5-4.9,0.5
		c-2.4,0-4.5-0.3-6.4-0.9c-1.8-0.6-3.3-1.4-4.5-2.4c-1.2-1-2.1-2.1-2.7-3.4c-0.6-1.3-0.9-2.6-0.9-4c0-1.4,0.3-2.8,0.9-4.1
		c0.6-1.3,1.5-2.4,2.7-3.4c1.2-1,2.7-1.8,4.5-2.3c1.8-0.6,3.9-0.9,6.4-0.9c1.7,0,3.2,0.2,4.7,0.5c1.5,0.3,2.8,0.7,3.9,1.3
		c1.2,0.5,2.2,1.1,3,1.9c0.8,0.7,1.5,1.5,2,2.3l7.7-3.9c-0.9-1.4-2-2.6-3.3-3.8c-1.3-1.2-2.9-2.2-4.7-3s-3.7-1.5-5.9-2
		c-2.2-0.5-4.5-0.7-7.1-0.7c-3.8,0-7.1,0.5-10.1,1.5c-3,1-5.5,2.3-7.5,4c-2,1.7-3.6,3.6-4.7,5.8s-1.6,4.6-1.6,7c0,2.5,0.5,4.8,1.6,7
		c1.1,2.2,2.6,4.1,4.7,5.8c2,1.7,4.5,3,7.5,4c3,1,6.3,1.5,10.1,1.5c2.6,0,5.1-0.3,7.3-0.8c2.2-0.5,4.2-1.2,6-2.1
		c1.8-0.9,3.4-2,4.7-3.2c1.3-1.2,2.4-2.6,3.3-4l-7.8-3.9C156.4,41.7,155.8,42.6,154.9,43.4z"/>
	<path fill="#FFFFFF" d="M211.3,21.7c-1.2-0.8-2.4-1.4-3.7-1.7c-1.3-0.3-2.4-0.5-3.3-0.5h-30.8v7.4H203c0.3,0,0.6,0,1.1,0.1
		c0.4,0.1,0.9,0.3,1.3,0.6c0.4,0.3,0.8,0.7,1.1,1.2c0.3,0.5,0.4,1.2,0.4,2c0,0.8-0.2,1.4-0.5,1.9c-0.3,0.5-0.7,0.9-1.2,1.2
		c-0.4,0.3-0.9,0.5-1.3,0.6c-0.4,0.1-0.7,0.2-0.9,0.2h-29.6v19.1h8.6V42.1h18l5.5,11.7h9.2l-6-12.7c0.8-0.3,1.6-0.8,2.4-1.3
		c0.8-0.6,1.5-1.3,2.2-2.1c0.6-0.8,1.2-1.8,1.5-3c0.4-1.1,0.6-2.5,0.6-4c0-2.3-0.4-4.2-1.2-5.6C213.5,23.7,212.5,22.5,211.3,21.7z"
		/>
	<polygon fill="#FFFFFF" points="244.9,35 232,19.5 221.7,19.5 240.7,42.6 240.7,53.8 249.3,53.8 249.3,42.2 268.3,19.5 257.7,19.5 
			"/>
	<path fill="#FFFFFF" d="M313.3,21.7c-1.2-0.8-2.4-1.4-3.7-1.7c-1.3-0.3-2.4-0.5-3.3-0.5h-30.8v7.4H305c0.3,0,0.6,0,1.1,0.1
		c0.4,0.1,0.9,0.3,1.3,0.6c0.4,0.3,0.8,0.7,1.1,1.2c0.3,0.5,0.4,1.2,0.4,2c0,0.8-0.2,1.4-0.5,1.9c-0.3,0.5-0.7,0.9-1.2,1.2
		c-0.4,0.3-0.9,0.5-1.3,0.6c-0.4,0.1-0.7,0.2-0.9,0.2h-29.6v19.1h8.6V42.1h22.2c0.9,0,1.9-0.2,3.2-0.5c1.3-0.3,2.5-0.9,3.7-1.8
		c1.2-0.9,2.2-2,3.1-3.5c0.8-1.5,1.3-3.3,1.3-5.6c0-2.3-0.4-4.2-1.2-5.6C315.5,23.7,314.5,22.5,313.3,21.7z"/>
	<polygon fill="#FFFFFF" points="325.1,26.9 340.5,26.9 340.5,53.8 349.1,53.8 349.1,26.9 364.5,26.9 364.5,19.5 325.1,19.5 	"/>
</g>
<path fill="#FFFFFF" d="M411.7,21.7c-1.2-0.8-2.4-1.4-3.7-1.7c-1.3-0.3-2.4-0.5-3.3-0.5h-30.8v7.4h29.6c0.3,0,0.6,0,1.1,0.1
	c0.4,0.1,0.9,0.3,1.3,0.6c0.4,0.3,0.8,0.7,1.1,1.2c0.3,0.5,0.4,1.2,0.4,2c0,0.8-0.2,1.4-0.5,1.9c-0.3,0.5-0.7,0.9-1.2,1.2
	c-0.4,0.3-0.9,0.5-1.3,0.6c-0.4,0.1-0.7,0.2-0.9,0.2h-29.6v19.1h8.6V42.1h18l5.5,11.7h9.2l-6-12.7c0.8-0.3,1.6-0.8,2.4-1.3
	c0.8-0.6,1.5-1.3,2.2-2.1c0.6-0.8,1.2-1.8,1.5-3c0.4-1.1,0.6-2.5,0.6-4c0-2.3-0.4-4.2-1.2-5.6C413.9,23.7,412.9,22.5,411.7,21.7z"/>
</svg>
